SplineFontDB: 3.0
FontName: NeutonCursive-Regular
FullName: Neuton Cursive
FamilyName: Neuton Cursive
Weight: Book
Copyright: Copyright (c) 2010, Brian M Zick (http://21326.info/),\nwith Reserved Font Name "Neuton".\nThis Font Software is licensed under the SIL Open Font License, Version 1.1.\nThis license is available with a FAQ at: http://scripts.sil.org/OFL
Version: 1.41
ItalicAngle: 0
UnderlinePosition: -355
UnderlineWidth: 177
Ascent: 618
Descent: 410
sfntRevision: 0x000168f6
LayerCount: 2
Layer: 0 0 "Back"  1
Layer: 1 0 "Fore"  0
NeedsXUIDChange: 1
XUID: [1021 467 2011608612 8622985]
FSType: 0
OS2Version: 1
OS2_WeightWidthSlopeOnly: 0
OS2_UseTypoMetrics: 1
CreationTime: 1300472668
ModificationTime: 1316517010
PfmFamily: 17
TTFWeight: 400
TTFWidth: 5
LineGap: 0
VLineGap: 0
Panose: 2 0 5 3 0 0 0 0 0 0
OS2TypoAscent: 378
OS2TypoAOffset: 1
OS2TypoDescent: -61
OS2TypoDOffset: 1
OS2TypoLinegap: 0
OS2WinAscent: -232
OS2WinAOffset: 1
OS2WinDescent: -10
OS2WinDOffset: 1
HheadAscent: -232
HheadAOffset: 1
HheadDescent: 11
HheadDOffset: 1
OS2SubXSize: 1077
OS2SubYSize: 1159
OS2SubXOff: 0
OS2SubYOff: 232
OS2SupXSize: 1077
OS2SupYSize: 1159
OS2SupXOff: 0
OS2SupYOff: 795
OS2StrikeYSize: 83
OS2StrikeYPos: 429
OS2Vendor: 'PfEd'
OS2CodePages: 20000093.00000000
OS2UnicodeRanges: a00000ef.0000204a.00000000.00000000
MarkAttachClasses: 1
DEI: 91125
ShortTable: maxp 16
  1
  0
  367
  132
  7
  0
  0
  2
  0
  1
  1
  0
  64
  0
  0
  0
EndShort
LangName: 1033 "" "" "" "FontForge 2.0 : Neuton Cursive : 26-8-2011" "" "" "" "" "" "Brian M Zick" "" "" "http://21326.info/" "Copyright (c) 2011, Brian Zick (http://21326.info/),+AAoA-with Reserved Font Name +ACIA-Neuton+ACIA.+AAoACgAA-This Font Software is licensed under the SIL Open Font License, Version 1.1.+AAoA-This license is available with a FAQ at: http://scripts.sil.org/OFL" "http://scripts.sil.org/OFL" 
GaspTable: 1 65535 2
Encoding: UnicodeBmp
Compacted: 1
UnicodeInterp: none
NameList: Neuton-Regular
DisplaySize: -36

StartChar: .notdef
Encoding: 65536 -1 0
Width: 1209
VWidth: 1655
Flags: HMW
LayerCount: 2
Fore
SplineSet
220 109 m 1
 881 109 l 1
 881 1508 l 1
 220 1508 l 1
 220 109 l 1
109 0 m 1
 109 1617 l 1
 990 1617 l 1
 990 0 l 1
 109 0 l 1
EndSplineSet
EndChar

StartChar: uni0021
Encoding: 33 33 4
Width: 319
VWidth: 1655
GlyphClass: 2
Flags: HMW
LayerCount: 2
Fore
SplineSet
49 1257 m 1
 80.3334 1279 116.333 1290 157 1290 c 128
 197.667 1290 231.167 1278 257.5 1254 c 128
 283.834 1230 300.667 1196 308 1152 c 1
 312 1136.67 313.667 1114.33 313 1085 c 0
 311.667 1000.33 293.667 871.667 259 699 c 5
 184 338 l 1
 113 325 l 1
 125 495 l 2
 129.667 561 132 666.333 132 811 c 2
 132 874 l 1
 127.333 1022 99.6667 1149.67 49 1257 c 1
178 206 m 128
 189.333 200.666 200 191.333 210 178 c 128
 220 164.667 226.167 152.833 228.5 142.5 c 128
 230.833 132.167 232 124.667 232 120 c 128
 232 115.333 229.333 99.6666 224 73 c 128
 218.666 46.3333 204.333 21.6667 181 -1 c 128
 157.667 -23.6667 131 -35 101 -35 c 1
 74.3333 -33 53.3333 -24 38 -8 c 128
 22.6667 8 13.6667 24.6667 11 42 c 128
 8.33333 59.3334 7 69.1667 7 71.5 c 128
 7 73.8333 9.16667 86 13.5 108 c 128
 17.8333 130 31.3333 152.667 54 176 c 128
 76.6667 199.333 100.167 211.5 124.5 212.5 c 128
 148.833 213.5 166.667 211.333 178 206 c 128
EndSplineSet
EndChar

StartChar: uni0022
Encoding: 34 34 5
Width: 405
VWidth: 1655
GlyphClass: 2
Flags: HMW
LayerCount: 2
Fore
SplineSet
8 1308 m 1
 13.3333 1309.33 32.8333 1309.83 66.5 1309.5 c 128
 100.167 1309.17 141.667 1303.33 191 1292 c 1
 106 906 l 1
 83.3333 898 58.3333 894.333 31 895 c 2
 10 895 l 1
 8 1308 l 1
217 1308 m 1
 222.333 1309.33 241.833 1309.83 275.5 1309.5 c 128
 309.167 1309.17 350.667 1303.33 400 1292 c 1
 315 906 l 1
 292.333 898 267.333 894.333 240 895 c 2
 220 895 l 1
 217 1308 l 1
EndSplineSet
EndChar

StartChar: uni0023
Encoding: 35 35 6
Width: 919
VWidth: 1655
GlyphClass: 2
Flags: HMW
LayerCount: 2
Fore
SplineSet
383 355 m 1
 332 174 l 1
 227 167 l 1
 282 355 l 1
 116 355 l 1
 157 455 l 1
 315 455 l 1
 378 662 l 1
 220 662 l 1
 259 760 l 1
 411 760 l 1
 468 931 l 1
 569 941 l 1
 512 760 l 1
 712 760 l 1
 766 931 l 1
 869 940 l 1
 812 760 l 1
 977 760 l 1
 938 662 l 1
 780 662 l 1
 718 455 l 1
 874 455 l 1
 835 355 l 1
 683 355 l 1
 632 174 l 1
 527 167 l 1
 583 355 l 1
 383 355 l 1
416 455 m 1
 615 455 l 1
 680 662 l 1
 479 662 l 1
 416 455 l 1
EndSplineSet
EndChar

StartChar: uni0024
Encoding: 36 36 7
Width: 857
VWidth: 1655
GlyphClass: 2
Flags: HMW
LayerCount: 2
Fore
SplineSet
538 1184 m 1
 534 1184 l 2
 489.333 1184 448.166 1168.83 410.5 1138.5 c 128
 372.833 1108.17 352.333 1067.33 349 1016 c 1
 349 1003 l 2
 349 945 369 894 409 850 c 1
 425 833.333 446 812.667 472 788 c 1
 538 1184 l 1
418 80 m 1
 459.334 82.6667 496.667 94.6667 530 116 c 0
 584 151.333 611 200 611 262 c 128
 611 324 589.333 377.667 546 423 c 1
 532 439.667 512 458.333 486 479 c 1
 418 80 l 1
265 401 m 1
 245 345.667 235.667 297.333 237 256 c 0
 237 193.333 258.667 145.667 302 113 c 1
 315.333 104.333 333 96 355 88 c 1
 429 525 l 1
 347.667 591 285.333 650 242 702 c 1
 186 772.667 158 840.667 158 906 c 2
 158 928 l 1
 161.333 966 173 1004.33 193 1043 c 1
 227 1108.33 273.333 1160.5 332 1199.5 c 128
 390.667 1238.5 453.333 1263 520 1273 c 1
 545 1417 l 1
 678 1426 l 1
 653 1271 l 1
 733.667 1256.33 801 1225.33 855 1178 c 1
 790 832 l 1
 702 851 l 1
 695 1101 l 1
 672.333 1134.34 641.333 1157.68 602 1171 c 1
 529 741 l 1
 615.667 668.333 670.333 621.333 693 600 c 0
 761.668 532 801.335 457.333 812 376 c 0
 813.333 371.333 813.667 361.333 813 346 c 0
 813 260.667 781.667 185.333 719 120 c 1
 667.667 66 602.667 26 524 0 c 0
 494.667 -9.33333 464.667 -15.6667 434 -19 c 1
 411 -157 l 1
 282 -167 l 1
 307 -19 l 1
 234.333 -11 169.667 11.6667 113 49 c 0
 83 69.6667 59 94.5 41 123.5 c 128
 23 152.5 12.6667 180.333 10 207 c 1
 8.66667 210.333 8 218.833 8 232.5 c 128
 8 246.167 10.6667 264 16 286 c 1
 33.3333 338.667 68 375 120 395 c 1
 142.667 405.667 167.167 411 193.5 411 c 128
 219.833 411 243.667 407.667 265 401 c 1
EndSplineSet
EndChar

StartChar: uni0025
Encoding: 37 37 8
Width: 1096
VWidth: 1655
GlyphClass: 2
Flags: HMW
LayerCount: 2
Fore
SplineSet
940 962 m 1
 1076 971 l 1
 267 -23 l 1
 125 -31 l 1
 940 962 l 1
585 770 m 0
 585 768 584.333 753.667 583 727 c 1
 573.667 649 544 586.833 494 540.5 c 128
 444 494.167 383.333 471 312 471 c 128
 240.667 471 187.333 490.667 152 530 c 128
 116.667 569.333 99 621.333 99 686 c 0
 99 769.333 126.833 838.333 182.5 893 c 128
 238.167 947.667 302.167 975 374.5 975 c 128
 446.833 975 500 956.5 534 919.5 c 128
 568 882.5 585 832.667 585 770 c 0
355 883 m 0
 262.333 883 216.333 821.667 217 699 c 0
 217 608.333 254 562.667 328 562 c 0
 410 562 456.667 619 468 733 c 0
 469.333 745 470 752 470 754 c 0
 470 794 459.833 825.5 439.5 848.5 c 128
 419.167 871.5 391 883 355 883 c 0
1127 274 m 0
 1127 270.667 1125.67 257 1123 233 c 1
 1114.33 155.667 1084.66 93.5 1034 46.5 c 128
 983.333 -0.5 922.5 -24 851.5 -24 c 128
 780.5 -24 727.333 -3.83333 692 36.5 c 128
 656.667 76.8333 639 128.333 639 191 c 0
 639 271.667 668.5 339.333 727.5 394 c 128
 786.5 448.667 851 476 921 476 c 128
 991 476 1042.83 457.667 1076.5 421 c 128
 1110.17 384.333 1127 335.333 1127 274 c 0
757 202 m 0
 757 112.667 794.333 68 869 68 c 0
 950.333 68 996.667 118.667 1008 220 c 0
 1009.33 225.333 1010 236.667 1010 254 c 0
 1010 295.333 999.833 327.5 979.5 350.5 c 128
 959.167 373.5 931 385 895 385 c 0
 815.665 385 770.332 336.667 759 240 c 0
 757.667 234.667 757 222 757 202 c 0
EndSplineSet
EndChar

StartChar: uni0026
Encoding: 38 38 9
Width: 1385
VWidth: 1655
GlyphClass: 2
Flags: HMW
LayerCount: 2
Fore
SplineSet
293 279 m 0
 293 227 307.167 180.333 335.5 139 c 128
 363.833 97.6666 410 66.6666 474 46 c 1
 508 34 550.833 28 602.5 28 c 128
 654.167 28 705.667 37.6667 757 57 c 1
 728.333 112.333 692 173.333 648 240 c 1
 525 409 l 2
 514.333 424.333 486 469 440 543 c 1
 342 467 293 379 293 279 c 0
700.5 785 m 128
 732.169 827 750.336 865.667 755 901 c 128
 759.667 936.333 762 960.333 762 973 c 128
 762 985.668 759.667 998.334 755 1011 c 1
 746.333 1045 729.5 1072.83 704.5 1094.5 c 128
 679.5 1116.17 650.667 1127 618 1127 c 128
 585.333 1127 556.333 1113.67 531 1087 c 0
 499 1055 483.333 1013 484 961 c 0
 484 938.333 489 906.833 499 866.5 c 128
 509 826.167 537.667 765.667 585 685 c 1
 630.333 709.667 668.833 743 700.5 785 c 128
962 63 m 1
 1005.33 -23.6667 1027 -94.3333 1027 -149 c 0
 1027 -163 1026.67 -172 1026 -176 c 1
 1022.67 -212.667 1010.67 -245.5 990 -274.5 c 128
 969.333 -303.5 942.333 -324.833 909 -338.5 c 128
 875.665 -352.167 837.332 -359 794 -359 c 1
 712 -351 l 1
 691 -315 l 1
 725 -307.667 754.333 -297.5 779 -284.5 c 128
 803.667 -271.5 819.667 -258.667 827 -246 c 1
 835.667 -233.334 840.5 -221.667 841.5 -211 c 128
 842.5 -200.333 843.667 -194.333 845 -193 c 1
 845 -184 l 2
 845 -150 829 -98.6667 797 -30 c 1
 700.333 -70 603 -89.6667 505 -89 c 1
 437 -86 l 1
 346.333 -78 269 -52 205 -8 c 1
 129.667 47.3333 89 116.333 83 199 c 1
 83 211 l 1
 81.6667 214.333 81 217.333 81 220 c 0
 81 282.667 101.667 343.667 143 403 c 128
 184.333 462.333 239.333 514 308 558 c 1
 334 576.667 364.667 595.667 400 615 c 1
 372 670 l 1
 332 756 311.667 823.333 311 872 c 0
 311 876.68 311.667 880.347 313 883 c 1
 313 893 l 1
 319 957.667 350.667 1018 408 1074 c 0
 480.667 1146.67 563.667 1193 657 1213 c 1
 681 1217.67 697.667 1220 707 1220 c 128
 716.333 1220 736 1218.5 766 1215.5 c 128
 796 1212.5 825.667 1200.67 855 1180 c 1
 911.667 1139.33 941.667 1086 945 1020 c 1
 945 1005 l 2
 945 968.333 936.667 930.333 920 891 c 128
 903.333 851.667 881.667 816.667 855 786 c 1
 797 717.333 720.333 662 625 620 c 1
 762 385 l 2
 776 360.333 802.5 318.166 841.5 258.5 c 128
 880.5 198.833 906.667 158.333 920 137 c 1
 993.333 185.667 1033.67 247.667 1041 323 c 0
 1041 327.667 1041.33 331.333 1042 334 c 1
 1042 346 l 2
 1042 400.667 1022.33 457.667 983 517 c 1
 949 565 910.333 605 867 637 c 1
 899 681.667 942 706.667 996 712 c 1
 1013 712 l 2
 1061.67 712 1106.33 693.667 1147 657 c 0
 1195 614.333 1218.83 556.333 1218.5 483 c 128
 1218.17 409.667 1196.5 336.667 1153.5 264 c 128
 1110.5 191.333 1046.67 124.333 962 63 c 1
EndSplineSet
EndChar

StartChar: uni0027
Encoding: 39 39 10
Width: 196
VWidth: 1655
GlyphClass: 2
Flags: HMW
LayerCount: 2
Fore
SplineSet
8 1308 m 5
 13.3333 1309.33 32.8333 1309.83 66.5 1309.5 c 128
 100.167 1309.17 141.667 1303.33 191 1292 c 1
 106 906 l 1
 83.3333 898 58.3333 894.333 31 895 c 2
 10 895 l 1
 8 1308 l 5
EndSplineSet
EndChar

StartChar: uni0028
Encoding: 40 40 11
Width: 504
VWidth: 1655
GlyphClass: 2
Flags: HMW
LayerCount: 2
Fore
SplineSet
251 -378 m 1
 89.6667 -194.667 8.66668 27 8 287 c 0
 8 338.333 12.3333 401.667 21 477 c 128
 29.6667 552.333 49.1667 634.667 79.5 724 c 128
 109.833 813.333 141 885.333 173 940 c 128
 205 994.667 242.5 1047.5 285.5 1098.5 c 128
 328.5 1149.5 364.333 1187.33 393 1212 c 128
 421.667 1236.67 443.333 1254.67 458 1266 c 1
 500 1199 l 1
 339.333 1020.33 239.333 774 200 460 c 0
 192.667 400.667 188.667 341.333 188 282 c 1
 190 72 236.667 -128.667 328 -320 c 1
 251 -378 l 1
EndSplineSet
EndChar

StartChar: uni0029
Encoding: 41 41 12
Width: 525
VWidth: 1655
GlyphClass: 2
Flags: HMW
LayerCount: 2
Fore
SplineSet
8 -320 m 1
 230.667 -16 342.333 319 343 685 c 0
 343 885.667 299 1057 211 1199 c 1
 269 1266 l 1
 435 1111.33 517.667 896.333 517 621 c 0
 517 467 491.333 316.667 440 170 c 0
 409.333 84 378 12.5 346 -44.5 c 128
 314 -101.5 279.5 -152.5 242.5 -197.5 c 128
 205.5 -242.5 177 -276 157 -298 c 0
 133 -324.666 104 -351.333 70 -378 c 1
 8 -320 l 1
EndSplineSet
EndChar

StartChar: uni002A
Encoding: 42 42 13
Width: 733
VWidth: 1655
GlyphClass: 2
Flags: HMW
LayerCount: 2
Fore
SplineSet
660 696 m 1
 540 628 l 1
 392 877 l 1
 444 928 l 1
 660 696 l 1
232 597 m 1
 129 690 l 1
 320 909 l 1
 385 877 l 1
 232 597 l 1
8 971 m 1
 65 1101 l 1
 332 985 l 1
 320 913 l 1
 8 971 l 1
295 1303 m 1
 434 1288 l 1
 406 999 l 1
 334 989 l 1
 295 1303 l 1
698 1131 m 1
 727 996 l 1
 444 931 l 1
 409 996 l 1
 698 1131 l 1
EndSplineSet
EndChar

StartChar: uni002B
Encoding: 43 43 14
Width: 580
VWidth: 1655
GlyphClass: 2
Flags: HMW
LayerCount: 2
Fore
SplineSet
341 413 m 1
 313 174 l 1
 204 186 l 1
 232 413 l 1
 8 413 l 1
 33 514 l 1
 242 514 l 1
 272 747 l 1
 378 734 l 1
 353 514 l 1
 576 514 l 1
 550 413 l 1
 341 413 l 1
EndSplineSet
EndChar

StartChar: uni002C
Encoding: 44 44 15
Width: 345
VWidth: 1655
GlyphClass: 2
Flags: HMW
LayerCount: 2
Fore
SplineSet
197 227 m 2
 212 227 l 1
 264 221 301 187.667 323 127 c 0
 332.333 103 337.333 79.6667 338 57 c 0
 338 -43.6667 288.333 -132.333 189 -209 c 1
 145 -245 95.3333 -276.333 40 -303 c 1
 8 -251 l 1
 66.6667 -220.333 108.5 -186.167 133.5 -148.5 c 128
 158.5 -110.833 171 -74.3333 171 -39 c 0
 171 -37.6667 169 -25.8333 165 -3.5 c 128
 161 18.8333 149.333 41.1667 130 63.5 c 128
 110.667 85.8333 88.3333 103.333 63 116 c 1
 72.3333 152 90.3333 179.5 117 198.5 c 128
 143.667 217.5 170.333 227 197 227 c 2
EndSplineSet
EndChar

StartChar: uni002D
Encoding: 45 45 16
Width: 557
VWidth: 1655
GlyphClass: 2
Flags: HMW
LayerCount: 2
Fore
SplineSet
89 489 m 1
 489 507 l 1
 477 408 l 1
 78 390 l 1
 89 489 l 1
EndSplineSet
EndChar

StartChar: uni002E
Encoding: 46 46 17
Width: 236
VWidth: 1655
GlyphClass: 2
Flags: HMW
LayerCount: 2
Fore
SplineSet
178 206 m 128
 189.333 200.666 200 191.333 210 178 c 128
 220 164.667 226.167 152.833 228.5 142.5 c 128
 230.833 132.167 232 124.667 232 120 c 128
 232 115.333 229.333 99.6666 224 73 c 128
 218.666 46.3333 204.333 21.6667 181 -1 c 128
 157.667 -23.6667 131 -35 101 -35 c 1
 74.3333 -33 53.3333 -24 38 -8 c 128
 22.6667 8 13.6667 24.6667 11 42 c 128
 8.33333 59.3334 7 69.1667 7 71.5 c 128
 7 73.8333 9.16667 86 13.5 108 c 128
 17.8333 130 31.3333 152.667 54 176 c 128
 76.6667 199.333 100.167 211.5 124.5 212.5 c 128
 148.833 213.5 166.667 211.333 178 206 c 128
EndSplineSet
EndChar

StartChar: uni002F
Encoding: 47 47 18
Width: 614
VWidth: 1655
GlyphClass: 2
Flags: HMW
LayerCount: 2
Fore
SplineSet
474 1245 m 1
 608 1252 l 1
 139 -357 l 1
 8 -367 l 1
 474 1245 l 1
EndSplineSet
EndChar

StartChar: uni0030
Encoding: 48 48 19
Width: 849
VWidth: 1655
GlyphClass: 2
Flags: HMW
LayerCount: 2
Fore
SplineSet
488 1158 m 1
 552.667 1154.67 609.667 1132.5 659 1091.5 c 128
 708.333 1050.5 748.667 997 780 931 c 0
 823.333 840.333 845 736 845 618 c 0
 845 611.333 843.667 586.333 841 543 c 1
 829.667 402.333 789.667 281.667 721 181 c 0
 683 125.667 639.5 80.1667 590.5 44.5 c 128
 541.5 8.83333 497.167 -11.3333 457.5 -16 c 128
 417.833 -20.6667 396.333 -23 393 -23 c 0
 330.333 -23 270.833 -5.5 214.5 29.5 c 128
 158.167 64.5 112.5 118.167 77.5 190.5 c 128
 42.5 262.833 21 345 13 437 c 1
 9.66667 466.333 8 503.333 8 548 c 128
 8 592.667 14.6667 644 28 702 c 0
 54.6667 818 106.333 921 183 1011 c 1
 228.333 1063 273.833 1100.5 319.5 1123.5 c 128
 365.167 1146.5 415.667 1158 471 1158 c 2
 488 1158 l 1
197 864 m 1
 177 801.333 167.333 731 168 653 c 0
 168 509 199.667 375 263 251 c 1
 315 151 381.667 101 463 101 c 0
 525 101 572.333 125 605 173 c 0
 626.333 204.333 645.167 252.333 661.5 317 c 128
 677.833 381.667 686 448.333 686 517 c 0
 686 623.667 663.833 727.667 619.5 829 c 128
 575.167 930.333 519.667 994.667 453 1022 c 1
 429 1030.67 411.667 1035.17 401 1035.5 c 128
 390.333 1035.83 375 1034.67 355 1032 c 1
 277 1015.33 224.333 959.333 197 864 c 1
EndSplineSet
EndChar

StartChar: uni0031
Encoding: 49 49 20
Width: 531
VWidth: 1655
GlyphClass: 2
Flags: HMW
LayerCount: 2
Fore
SplineSet
205 -14 m 1
 253 260.667 282.167 437.167 292.5 515.5 c 128
 302.835 593.833 311.668 657.667 319 707 c 128
 326.333 756.333 333.333 806.5 340 857.5 c 128
 346.667 908.5 354.667 968 364 1036 c 1
 355 1032 l 1
 329 958.666 301.333 907.832 272 879.5 c 128
 242.667 851.163 215.5 833.33 190.5 826 c 128
 165.5 818.667 144.667 815 128 815 c 128
 111.333 815 92.6666 820 72 830 c 0
 30 850 8.66667 885 8 935 c 0
 8 936.333 9.33333 944.333 12 959 c 1
 116 965.667 210.333 997 295 1053 c 1
 333 1078.34 367.333 1106.67 398 1138 c 1
 524 1154 l 1
 425 -8 l 1
 205 -14 l 1
EndSplineSet
EndChar

StartChar: uni0032
Encoding: 50 50 21
Width: 851
VWidth: 1655
GlyphClass: 2
Flags: HMW
LayerCount: 2
Fore
SplineSet
381 664 m 1
 350.333 626 316.333 607 279 607 c 0
 207 607 157 638.667 129 702 c 1
 118.333 724.668 113 757.835 113 801.5 c 128
 113 845.167 131.5 898.167 168.5 960.5 c 128
 205.5 1022.83 254.667 1074.17 316 1114.5 c 128
 377.333 1154.83 446 1176 522 1178 c 1
 536 1178 l 2
 624.667 1178 696 1150 750 1094 c 1
 812.668 1031.33 844.335 948.332 845 845 c 0
 844.333 698.333 772.333 558 629 424 c 0
 565.666 365.333 468 290.667 336 200 c 2
 223 123 l 1
 223 113 l 1
 424 121 l 1
 440 121 459.833 121.667 483.5 123 c 128
 507.167 124.333 522.667 125 530 125 c 0
 598.667 130.333 650.667 159.333 686 212 c 0
 701.333 234 715.667 262 729 296 c 2
 762 376 l 1
 836 349 l 1
 835.333 343 828.333 296.667 815 210 c 0
 801 123.333 784.667 48 766 -16 c 1
 611 -16 l 1
 449 -14 302.333 -9.66667 171 -3 c 2
 8 5 l 1
 19 101 l 1
 200 211 l 2
 315.333 281 397.5 337.833 446.5 381.5 c 128
 495.5 425.167 532 464.333 556 499 c 128
 580 533.668 601.333 574.334 620 621 c 128
 638.667 667.667 649 722.667 651 786 c 1
 651 797 l 2
 651 863 637 922.167 609 974.5 c 128
 581 1026.83 542.333 1061.33 493 1078 c 1
 473 1083.33 451 1086 427 1086 c 128
 403 1086 376.167 1075.33 346.5 1054 c 128
 316.833 1032.67 295.833 1005.83 283.5 973.5 c 128
 271.167 941.167 265 911.667 265 885 c 0
 265 797 303.667 723.333 381 664 c 1
EndSplineSet
EndChar

StartChar: uni0033
Encoding: 51 51 22
Width: 785
VWidth: 1655
GlyphClass: 2
Flags: HMW
LayerCount: 2
Fore
SplineSet
313 589 m 1
 414 639 l 1
 444.667 653 468.833 668.5 486.5 685.5 c 128
 504.167 702.5 525.333 727.333 550 760 c 1
 586 811.333 604 863 604 915 c 2
 604 925 l 1
 602.667 928.333 602 931.667 602 935 c 0
 594.667 1015.67 563.667 1066.33 509 1087 c 1
 490.333 1095 471.333 1099 452 1099 c 128
 432.667 1099 421.333 1098.33 418 1097 c 1
 382.667 1091.67 353.833 1076.5 331.5 1051.5 c 128
 309.167 1026.5 298 999.167 298 969.5 c 128
 298 939.833 303.333 914.833 314 894.5 c 128
 324.667 874.167 344 847.667 372 815 c 1
 354 781 325.333 761.667 286 757 c 1
 279 757 l 1
 277.667 755.667 275.333 755 272 755 c 0
 240 755 212.5 766.833 189.5 790.5 c 128
 166.5 814.168 153.667 844.335 151 881 c 1
 151 888 l 2
 151 954 182.667 1015 246 1071 c 0
 326 1143 422 1179 534 1179 c 0
 612.667 1179 674 1157.67 718 1115 c 1
 738.667 1095.67 754.167 1071 764.5 1041 c 128
 774.833 1011 780 977 780 939 c 128
 780 901 767.833 860 743.5 816 c 128
 719.165 772 687.332 735.333 648 706 c 1
 512 625 l 1
 512 621 l 1
 520 621 l 2
 603.333 621 670 585.667 720 515 c 0
 749.333 474.333 764 426.667 764 372 c 2
 764 355 l 1
 760.667 298.333 745.167 247.667 717.5 203 c 128
 689.833 158.333 657 120.667 619 90 c 128
 581 59.3333 542 35.6667 502 19 c 0
 424 -12.3333 348.833 -28 276.5 -28 c 128
 204.167 -28 143 -11 93 23 c 0
 37 61 8.66667 109 8 167 c 0
 8 199 15.3333 226.333 30 249 c 0
 63.3333 305 116 332.667 188 332 c 1
 183.333 309.333 181 289.666 181 273 c 128
 181 256.333 182.667 239.667 186 223 c 1
 196 153.667 225.667 107.333 275 84 c 1
 299.667 71.3333 322.333 64.3333 343 63 c 1
 357 63 l 2
 413 63 462.667 83.8334 506 125.5 c 128
 549.333 167.167 573.667 218.333 579 279 c 0
 579 282.333 579.667 285.333 581 288 c 1
 581 298 l 2
 581 351.334 565.833 398.167 535.5 438.5 c 128
 505.167 478.834 463.667 506.667 411 522 c 1
 387 528.667 364.667 532 344 532 c 128
 323.333 532 311 531.333 307 530 c 1
 313 589 l 1
EndSplineSet
EndChar

StartChar: uni0034
Encoding: 52 52 23
Width: 847
VWidth: 1655
GlyphClass: 2
Flags: HMW
LayerCount: 2
Fore
SplineSet
343 532 m 2
 153 353 l 1
 499 360 l 1
 520 585 l 1
 690 702 l 1
 646 365 l 1
 841 369 l 1
 808 233 l 1
 637 241 l 1
 618 14 l 1
 460 -12 l 1
 491 246 l 1
 23 267 l 1
 8 323 l 1
 197 510 l 1
 283.667 596.667 356.167 679.167 414.5 757.5 c 128
 472.833 835.833 513.667 915 537 995 c 1
 554.333 1048.33 562.667 1111.33 562 1184 c 1
 572.667 1186 589.667 1187 613 1187 c 128
 636.333 1187 659 1178.5 681 1161.5 c 128
 703 1144.5 717.667 1124.17 725 1100.5 c 128
 732.333 1076.83 736 1058.66 736 1046 c 128
 736 1033.33 735.333 1025.33 734 1022 c 1
 728.667 970.666 698.167 910.332 642.5 841 c 128
 586.833 771.667 487 668.667 343 532 c 2
EndSplineSet
EndChar

StartChar: uni0035
Encoding: 53 53 24
Width: 816
VWidth: 1655
GlyphClass: 2
Flags: HMW
LayerCount: 2
Fore
SplineSet
809 1092 m 1
 800.333 998 733.333 951 608 951 c 0
 550.667 951 493.333 954.667 436 962 c 0
 378.667 969.333 347.667 973 343 973 c 1
 290 750 l 1
 298 747 l 1
 303.336 747 307.669 747.333 311 748 c 1
 327 748 l 2
 443 748 540 712.333 618 641 c 1
 694 567 732.333 480 733 380 c 0
 733 280.667 701.333 192 638 114 c 0
 591.333 56.6667 532 17 460 -5 c 1
 412.667 -22.3333 369.5 -31 330.5 -31 c 128
 291.5 -31 269.333 -30.6667 264 -30 c 1
 202 -26.6667 148.333 -10.6667 103 18 c 1
 40.3333 56.6667 8.66667 112 8 184 c 0
 8 187.333 9.33333 198 12 216 c 1
 19.3333 247.333 35 276.167 59 302.5 c 128
 83 328.833 115 343.333 155 346 c 1
 156.333 336 161.667 310.333 171 269 c 1
 203.667 161 263 98.3333 349 81 c 1
 372.335 79 384.668 78 386 78 c 0
 426 78 463.833 89 499.5 111 c 128
 535.167 133 557.334 160.333 566 193 c 128
 574.667 225.667 579 250.167 579 266.5 c 128
 579 282.833 578.333 297.5 577 310.5 c 128
 575.667 323.5 567.667 347.667 553 383 c 1
 530.333 441 496.333 487.833 451 523.5 c 128
 405.667 559.167 354.667 582 298 592 c 1
 265.333 598.667 232.333 602 199 602 c 1
 176 620 l 1
 311 1115 l 1
 327 1113.67 362.667 1113 418 1113 c 0
 568.667 1113 695.667 1128.33 799 1159 c 1
 805.667 1139 809 1120.67 809 1104 c 2
 809 1092 l 1
EndSplineSet
EndChar

StartChar: uni0036
Encoding: 54 54 25
Width: 778
VWidth: 1655
GlyphClass: 2
Flags: HMW
LayerCount: 2
Fore
SplineSet
179 423 m 2
 179 388 l 1
 184.333 264 209 177.667 253 129 c 1
 287 89 324.333 69.3333 365 70 c 0
 367 70 370 70.6667 374 72 c 1
 381 72 l 1
 408.333 75.3333 433.333 86 456 104 c 0
 500 144 527 212.667 537 310 c 0
 540.333 334 541.667 359 541 385 c 0
 541 433.667 532 476.667 514 514 c 1
 505.333 534 491 551.333 471 566 c 1
 440.333 589.333 405.333 601.167 366 601.5 c 128
 326.667 601.833 290 596.167 256 584.5 c 128
 222 572.833 198 556 184 534 c 1
 180.667 498 179 461 179 423 c 2
65 675 m 0
 133.667 866.333 243.667 1009.33 395 1104 c 1
 462.333 1144.67 523.667 1164.67 579 1164 c 0
 631 1164 673.333 1150.67 706 1124 c 0
 749.333 1086.67 770.667 1043.67 770 995 c 0
 770 965.663 762.333 937.83 747 911.5 c 128
 731.667 885.167 708 865.667 676 853 c 1
 648.665 921.667 610.332 971.667 561 1003 c 0
 538.333 1017.01 515.667 1025.67 493 1029 c 1
 477 1029 l 2
 418.333 1029 368.166 1001 326.5 945 c 128
 284.833 889 253.333 824.667 232 752 c 0
 211.333 679.333 199 630 195 604 c 1
 223.667 642 261.333 670.667 308 690 c 128
 354.667 709.333 403 718.5 453 717.5 c 128
 503 716.5 547.167 704.667 585.5 682 c 128
 623.833 659.333 653.333 630.167 674 594.5 c 128
 694.672 558.833 706.839 523.167 710.5 487.5 c 128
 714.167 451.832 716 431.666 716 427 c 0
 716 371.667 703 312.5 677 249.5 c 128
 651 186.5 615 133.667 569 91 c 1
 490.333 20.3333 406.333 -15.3333 317 -16 c 0
 301 -16 290.667 -15.3333 286 -14 c 1
 179.333 -5.33333 99.3333 52 46 158 c 1
 21.3333 212.667 8.66667 274.667 8 344 c 0
 8 372 8.66667 390 10 398 c 1
 16 497.333 34.3333 589.667 65 675 c 0
EndSplineSet
EndChar

StartChar: uni0037
Encoding: 55 55 26
Width: 838
VWidth: 1655
GlyphClass: 2
Flags: HMW
LayerCount: 2
Fore
SplineSet
411 537 m 0
 372.333 454.333 353 369.333 353 282 c 128
 353 194.667 384 117 446 49 c 1
 428.667 26.3333 403 9 369 -3 c 1
 359 -7.66667 346 -10 330 -10 c 128
 314 -10 293.167 -6.16667 267.5 1.5 c 128
 241.833 9.16667 217.5 28 194.5 58 c 128
 171.5 88 158.167 119.5 154.5 152.5 c 128
 150.833 185.5 149 210.667 149 228 c 0
 149 268.667 170.667 335 214 427 c 1
 260 515 329 618.667 421 738 c 2
 641 1022 l 1
 525 1018.67 417.667 1013.17 319 1005.5 c 128
 220.333 997.833 163.667 992.667 149 990 c 1
 83 830 l 1
 8 851 l 1
 42 1142 l 1
 57.3333 1144 115.833 1147.67 217.5 1153 c 128
 319.167 1158.33 405.667 1161 477 1161 c 1
 832 1148 l 1
 829 1090 l 1
 595 812 l 2
 511 710.667 449.667 619 411 537 c 0
EndSplineSet
EndChar

StartChar: uni0038
Encoding: 56 56 27
Width: 730
VWidth: 1655
GlyphClass: 2
Flags: HMW
LayerCount: 2
Fore
SplineSet
471 653 m 1
 531.667 707 561.667 783.333 561 882 c 0
 561 935.333 552.167 978.833 534.5 1012.5 c 128
 516.833 1046.17 497 1067.5 475 1076.5 c 128
 453 1085.5 434.333 1090 419 1090 c 1
 398 1089 l 1
 375.333 1085.67 355 1075.67 337 1059 c 128
 319 1042.33 306.833 1021.83 300.5 997.5 c 128
 294.167 973.163 291 954.33 291 941 c 2
 291 931 l 1
 294.333 877.667 317 825.667 359 775 c 0
 393 733 430.333 692.333 471 653 c 1
246 618 m 1
 173.333 701.333 136.667 783.333 136 864 c 0
 136 878 136.333 886.667 137 890 c 1
 147.667 980.667 199 1056.33 291 1117 c 1
 353 1155.67 417.5 1175 484.5 1175 c 128
 551.5 1175 607.833 1152 653.5 1106 c 128
 699.167 1060 722 1005 722 941 c 0
 722 925 721.667 915 721 911 c 1
 715.667 851.667 693 794.667 653 740 c 128
 613 685.333 567.667 641.333 517 608 c 1
 578.333 546.667 621.667 491.667 647 443 c 128
 672.333 394.333 685 345.333 685 296 c 0
 685 280 684.333 269.667 683 265 c 1
 679.667 229 668.167 194 648.5 160 c 128
 628.833 126 603.667 97.6667 573 75 c 1
 517.666 29.6667 449.666 -1.33333 369 -18 c 0
 342.333 -23.3333 313.333 -26 282 -26 c 0
 170 -26 89 15.6667 39 99 c 1
 18.3333 132.333 8 171.333 8 216 c 0
 8 231.333 8.66667 240 10 242 c 1
 14 286.667 26.3333 327 47 363 c 0
 67.6667 398.333 100.667 441.333 146 492 c 1
 188.667 534.668 228 570.334 264 599 c 1
 246 618 l 1
307 557 m 1
 225 465 183 374.667 181 286 c 1
 181 269 l 2
 181 185.667 210.333 125.667 269 89 c 0
 295 72.3333 322.333 63 351 61 c 1
 355 61 l 2
 401.667 61 440.333 77.5 471 110.5 c 128
 501.667 143.5 517 188.667 517 246 c 128
 517 303.333 486.333 367 425 437 c 0
 409 458.333 369.667 498.333 307 557 c 1
EndSplineSet
EndChar

StartChar: uni0039
Encoding: 57 57 28
Width: 720
VWidth: 1655
GlyphClass: 2
Flags: HMW
LayerCount: 2
Fore
SplineSet
349 1090 m 0
 250.333 1090 194.333 1003.33 181 830 c 1
 181 812 l 1
 179.667 806.667 179 800.667 179 794 c 0
 179 682 212.333 608.667 279 574 c 0
 303.667 561.333 330.667 555 360 555 c 0
 363.333 555 378.5 556.833 405.5 560.5 c 128
 432.5 564.167 457.333 571.667 480 583 c 128
 502.667 594.333 517.833 603.167 525.5 609.5 c 128
 533.171 615.833 541.337 624.667 550 636 c 1
 550 681 l 2
 550 781.667 539 865.667 517 933 c 0
 484.333 1037.67 428.333 1090 349 1090 c 0
714 739 m 2
 714 632.333 701.5 534.333 676.5 445 c 128
 651.5 355.667 608 270 546 188 c 1
 441.333 53.3333 329.667 -14 211 -14 c 2
 204 -14 l 2
 170 -14 138.167 -7.5 108.5 5.5 c 128
 78.8333 18.5 54.6667 38 36 64 c 128
 17.3333 90 8 119.667 8 153 c 0
 8 156.333 9.33333 166.667 12 184 c 1
 24 229.333 50.3333 262.667 91 284 c 1
 111 248 136.667 217 168 191 c 1
 218 157 261.333 140.333 298 141 c 0
 312 141 320.333 141.333 323 142 c 1
 383.667 147.333 433.333 180.667 472 242 c 1
 500 288.667 520.667 357.333 534 448 c 0
 534.675 451.334 538.342 487.667 545 557 c 1
 520.333 522.333 487 494.167 445 472.5 c 128
 403 450.833 360.333 438 317 434 c 1
 312.333 432.667 296.166 432 268.5 432 c 128
 240.833 432 208 441.333 170 460 c 128
 132 478.667 102.333 503.333 81 534 c 1
 45 582.667 27.3333 646.667 28 726 c 0
 28 827.333 55 920.333 109 1005 c 0
 143 1057 184.5 1098.83 233.5 1130.5 c 128
 282.5 1162.17 335.333 1178.67 392 1180 c 1
 401 1180 l 2
 453 1180 500.667 1167.83 544 1143.5 c 128
 587.333 1119.17 622.333 1084.33 649 1039 c 1
 687.669 975 709.336 891.333 714 788 c 1
 714 739 l 2
EndSplineSet
EndChar

StartChar: uni003A
Encoding: 58 58 29
Width: 301
VWidth: 1655
GlyphClass: 2
Flags: HMW
LayerCount: 2
Fore
SplineSet
296 755 m 0
 296 753 295 743.333 293 726 c 1
 285 695.333 271 670.833 251 652.5 c 128
 231 634.167 207.833 625 181.5 625 c 128
 155.167 625 135.5 632 122.5 646 c 128
 109.5 660 101.333 676.667 98 696 c 1
 96.6667 698 96 702.167 96 708.5 c 128
 96 714.833 97.8333 728.833 101.5 750.5 c 128
 105.167 772.167 117.667 793.667 139 815 c 128
 160.333 836.333 184.667 847.167 212 847.5 c 128
 239.333 847.833 260.167 838.5 274.5 819.5 c 128
 288.833 800.5 296 779 296 755 c 0
189 165 m 1
 201.667 147 208.167 132.167 208.5 120.5 c 128
 208.833 108.833 207.667 94.3333 205 77 c 1
 198.333 50.3333 184.5 26.1667 163.5 4.5 c 128
 142.5 -17.1667 118.333 -28 91 -28 c 1
 67.6667 -26 49 -17.6667 35 -3 c 1
 15 17 5.66667 40.6667 7 68 c 0
 7 104 19.5 134.333 44.5 159 c 128
 69.5 183.667 92 196.167 112 196.5 c 128
 132 196.833 146.833 194.833 156.5 190.5 c 128
 166.167 186.167 177 177.667 189 165 c 1
EndSplineSet
EndChar

StartChar: uni003B
Encoding: 59 59 30
Width: 386
VWidth: 1655
GlyphClass: 2
Flags: HMW
LayerCount: 2
Fore
SplineSet
116 181 m 1
 138.667 193.667 160.333 200 181 200 c 2
 191 200 l 1
 238.333 194 271.667 163.667 291 109 c 1
 299.667 81.6667 304.167 62.1667 304.5 50.5 c 128
 304.833 38.8333 303 18.5 299 -10.5 c 128
 295 -39.5 281.333 -70.3333 258 -103 c 0
 210 -171.667 136.333 -230.667 37 -280 c 1
 8 -230 l 1
 41.3333 -210 63.6667 -195.5 75 -186.5 c 128
 86.3333 -177.5 102.5 -159.833 123.5 -133.5 c 128
 144.5 -107.167 155 -76 155 -40 c 0
 155 -38 153 -27.5 149 -8.5 c 128
 145 10.5 134 30 116 50 c 128
 98 70 78.6667 87 58 101 c 1
 65.3334 133 84.6667 159.667 116 181 c 1
360 815 m 1
 372.667 797 379.167 782 379.5 770 c 128
 379.833 758 379 743.333 377 726 c 1
 369 695.333 355.333 670.833 336 652.5 c 128
 316.667 634.167 293.667 625 267 625 c 128
 240.333 625 220.333 632 207 646 c 0
 187 666.667 177.333 691 178 719 c 0
 178 754.333 190.5 784.5 215.5 809.5 c 128
 240.5 834.5 262.833 847.167 282.5 847.5 c 128
 302.167 847.833 317 845.833 327 841.5 c 128
 337 837.16 348 828.327 360 815 c 1
EndSplineSet
EndChar

StartChar: uni003C
Encoding: 60 60 31
Width: 668
VWidth: 1655
GlyphClass: 2
Flags: HMW
LayerCount: 2
Fore
SplineSet
106 419 m 1
 113 446 l 1
 721 952 l 1
 765 883 l 1
 341 446 l 1
 644 -13 l 1
 571 -81 l 1
 106 419 l 1
EndSplineSet
EndChar

StartChar: uni003D
Encoding: 61 61 32
Width: 778
VWidth: 1655
GlyphClass: 2
Flags: HMW
LayerCount: 2
Fore
SplineSet
108 416 m 1
 711 416 l 1
 683 311 l 1
 81 311 l 1
 108 416 l 1
149 651 m 1
 750 651 l 1
 722 546 l 1
 121 546 l 1
 149 651 l 1
EndSplineSet
EndChar

StartChar: uni003E
Encoding: 62 62 33
Width: 668
VWidth: 1655
GlyphClass: 2
Flags: HMW
LayerCount: 2
Fore
SplineSet
718 419 m 1
 94 -81 l 1
 44 -13 l 1
 489 446 l 1
 204 883 l 1
 270 952 l 1
 720 446 l 1
 718 419 l 1
EndSplineSet
EndChar

StartChar: uni003F
Encoding: 63 63 34
Width: 562
VWidth: 1655
GlyphClass: 2
Flags: HMW
LayerCount: 2
Fore
SplineSet
178 206 m 128
 189.333 200.666 200 191.333 210 178 c 128
 220 164.667 226.167 152.833 228.5 142.5 c 128
 230.833 132.167 232 124.667 232 120 c 128
 232 115.333 229.333 99.6666 224 73 c 128
 218.666 46.3333 204.333 21.6667 181 -1 c 128
 157.667 -23.6667 131 -35 101 -35 c 1
 74.3333 -33 53.3333 -24 38 -8 c 128
 22.6667 8 13.6667 24.6667 11 42 c 128
 8.33333 59.3334 7 69.1667 7 71.5 c 128
 7 73.8333 9.16667 86 13.5 108 c 128
 17.8333 130 31.3333 152.667 54 176 c 128
 76.6667 199.333 100.167 211.5 124.5 212.5 c 128
 148.833 213.5 166.667 211.333 178 206 c 128
86 504 m 1
 81 555 l 1
 81 595 92.3333 630.5 115 661.5 c 128
 137.667 692.5 160.5 715.333 183.5 730 c 128
 206.5 744.667 237 759.667 275 775 c 128
 313 790.333 341.333 803.833 360 815.5 c 128
 378.667 827.167 397.667 844 417 866 c 128
 436.333 888 447.333 913 450 941 c 0
 450 944.333 450.333 947.667 451 951 c 1
 451 959 l 2
 451 1012.33 426.667 1056.67 378 1092 c 1
 358 1104.67 341.333 1112 328 1114 c 128
 314.667 1116 307.667 1117.33 307 1118 c 1
 298 1118 l 2
 263.333 1118 227.333 1109.83 190 1093.5 c 128
 152.667 1077.17 125.667 1061 109 1045 c 1
 98.3332 1049.67 88.6666 1057.67 80 1069 c 1
 62.6667 1089 54 1107.83 54 1125.5 c 128
 54 1143.17 54.6667 1153.33 56 1156 c 1
 64 1204 95 1241.67 149 1269 c 0
 181 1284.33 215 1292 251 1292 c 2
 272 1292 l 1
 330.667 1288.67 382.167 1269.33 426.5 1234 c 128
 470.834 1198.67 503.667 1154.33 525 1101 c 128
 546.333 1047.67 557 999.667 557 957 c 128
 557 914.333 554.667 883.333 550 864 c 0
 537.333 801.333 504 746.333 450 699 c 1
 414.667 669 372.333 645.333 323 628 c 1
 288.333 614.666 266.166 603.333 256.5 594 c 128
 246.833 584.667 237 574 227 562 c 0
 209.667 543.333 200.667 513.333 200 472 c 0
 200 464 200.667 457 202 451 c 1
 202 430 l 2
 202 428.667 203.667 413.667 207 385 c 1
 129 369 l 1
 105.667 428.333 91.3333 473.333 86 504 c 1
EndSplineSet
EndChar

StartChar: uni0040
Encoding: 64 64 35
Width: 1277
VWidth: 1655
GlyphClass: 2
Flags: HMW
LayerCount: 2
Fore
SplineSet
764 602 m 1
 723.333 662.667 682.333 693 641 693 c 2
 634 693 l 2
 614 693 593.833 686.333 573.5 673 c 128
 553.167 659.667 537.667 643.667 527 625 c 1
 510.332 599.667 494.166 553.167 478.5 485.5 c 128
 462.833 417.833 455 362.666 455 320 c 2
 455 307 l 2
 455 283.667 456.5 262.667 459.5 244 c 128
 462.5 225.333 465 214 467 210 c 128
 469 206 471.667 202.333 475 199 c 128
 478.333 195.667 480.5 193.667 481.5 193 c 128
 482.5 192.333 484.667 190.667 488 188 c 0
 492.667 183.333 501 181 513 181 c 128
 525 181 539 186.833 555 198.5 c 128
 571 210.167 589.333 228.334 610 253 c 128
 630.667 277.667 658.5 326 693.5 398 c 128
 728.5 470 752 538 764 602 c 1
703 83.5 m 128
 691.667 98.5 686 123.5 686 158.5 c 128
 686 193.5 696 242.333 716 305 c 1
 704 307 l 1
 679.333 253.667 655 210.167 631 176.5 c 128
 607 142.833 578.333 115 545 93 c 128
 511.667 71 478 60 444 60 c 128
 410 60 381.167 74.8333 357.5 104.5 c 128
 333.833 134.167 320.333 167.333 317 204 c 1
 315.667 209.333 315 224.5 315 249.5 c 128
 315 274.5 322.667 323 338 395 c 0
 368 531.667 436.333 646 543 738 c 1
 587.667 772.667 628.834 790 666.5 790 c 128
 704.167 790 740.667 771 776 733 c 1
 790 731 l 1
 796 802 l 1
 815 809 l 1
 920 778 l 1
 859 463 l 1
 844.333 356.333 836.333 300.667 835 296 c 1
 832 253 l 2
 830 218.333 829 200.333 829 199 c 2
 829 188 l 2
 829 184.667 831.167 180.5 835.5 175.5 c 128
 839.833 170.5 844.333 168 849 168 c 128
 853.667 168 857 168.667 859 170 c 1
 867 170 l 1
 883 172 894 173.667 900 175 c 128
 906 176.333 912.333 177.667 919 179 c 128
 925.667 180.333 930 181.5 932 182.5 c 128
 934 183.5 937.667 184.833 943 186.5 c 128
 948.333 188.167 952.5 190 955.5 192 c 128
 958.5 194 962.333 196.333 967 199 c 128
 971.667 201.667 976 204.667 980 208 c 128
 984 211.333 988.667 214.667 994 218 c 0
 1046.67 262 1083.33 310 1104 362 c 128
 1124.67 414 1135 477.667 1135 553 c 0
 1135.67 719.667 1066.33 839.667 927 913 c 1
 860.333 945.667 788.667 961.667 712 961 c 0
 606.667 961 511.333 932.833 426 876.5 c 128
 340.667 820.167 276.333 745 233 651 c 1
 187.667 557 165 458.5 165 355.5 c 128
 165 252.5 186.167 164.167 228.5 90.5 c 128
 270.833 16.8333 330.333 -39.5 407 -78.5 c 128
 483.667 -117.5 569.667 -137 665 -137 c 2
 686 -137 l 1
 729.333 -136.334 776.5 -129.667 827.5 -117 c 128
 878.5 -104.333 923 -87.6667 961 -67 c 0
 1005 -44.3333 1032 -29 1042 -21 c 1
 1078 -75 l 1
 1069 -80 l 1
 1008.33 -138.667 937 -178.333 855 -199 c 128
 773 -219.667 705 -230 651 -230 c 2
 637 -230 l 2
 531 -230 430.167 -209.833 334.5 -169.5 c 128
 238.833 -129.167 162.667 -71.6667 106 3 c 1
 40 93 7.16667 202.5 7.5 331.5 c 128
 7.83333 460.5 39.6667 580.5 103 691.5 c 128
 166.333 802.5 253.833 890.333 365.5 955 c 128
 477.167 1019.67 601.333 1052 738 1052 c 2
 747 1052 l 1
 845 1049.33 933.833 1029 1013.5 991 c 128
 1093.17 953 1155.83 898.667 1201.5 828 c 128
 1247.17 757.333 1270.33 679.333 1271 594 c 1
 1271 583 l 2
 1271 497.667 1250.33 416.833 1209 340.5 c 128
 1167.67 264.167 1111.17 200 1039.5 148 c 128
 967.833 96 891 64 809 52 c 1
 805.667 50.6665 797 50.3331 783 51 c 1
 750 54 l 1
 730 58.6667 714.333 68.5 703 83.5 c 128
EndSplineSet
EndChar

StartChar: uni0041
Encoding: 65 65 36
Width: 1215
VWidth: 1655
GlyphClass: 2
Flags: HMW
LayerCount: 2
Fore
SplineSet
768 505 m 1
 680 1062 l 1
 676 1062 l 1
 644.871 911.201 561.825 654.999 520 536 c 1
 768 505 l 1
824 1271 m 1
 1032 132 l 1
 1210 81 l 1
 1187 0 l 1
 611 0 l 1
 634 72 l 1
 832 108 l 1
 780 432 l 1
 489 446 l 1
 456 310 311 -28 142 -28 c 3
 58.4938 -28 -8.89609 34.6883 -31 101 c 1
 361.839 252.842 539.512 765.229 644 1241 c 1
 824 1271 l 1
EndSplineSet
EndChar

StartChar: uni0042
Encoding: 66 66 37
Width: 1141
VWidth: 1655
GlyphClass: 2
Flags: HMW
LayerCount: 2
Fore
SplineSet
499 678 m 1
 595 674 l 1
 665 674 720.5 680.333 761.5 693 c 128
 802.5 705.667 839.833 730.167 873.5 766.5 c 128
 907.167 802.833 925.667 846.333 929 897 c 0
 929 901.68 929.667 905.347 931 908 c 1
 931 920 l 2
 931 994 905.5 1054 854.5 1100 c 128
 803.5 1146 739.333 1171.33 662 1176 c 1
 656.662 1177.33 646.828 1178 632.5 1178 c 128
 618.167 1178 594 1177 560 1175 c 1
 499 678 l 1
425 101 m 1
 478.333 94.3333 533 91 589 91 c 2
 621 91 l 1
 715 93 787.667 110.667 839 144 c 1
 906.333 191.333 940 249.333 940 318 c 0
 940 332 939.333 341.333 938 346 c 1
 931.333 398.667 907.167 445.5 865.5 486.5 c 128
 823.833 527.5 771.833 555.833 709.5 571.5 c 128
 647.166 587.167 573.333 595 488 595 c 1
 425 101 l 1
8 0 m 1
 30 75 l 1
 240 129 l 1
 369 1062 l 1
 146 1078 l 1
 165 1155 l 1
 422.333 1224.33 609.833 1259.33 727.5 1260 c 128
 845.167 1260.67 939.334 1235.33 1010 1184 c 1
 1080.67 1130 1116.33 1063.67 1117 985 c 0
 1117 942.333 1102.67 895.667 1074 845 c 1
 1015.33 751 934 691.667 830 667 c 1
 830 660 l 1
 852.667 656 883 647.333 921 634 c 0
 959 620 990.667 603 1016 583 c 1
 1054.67 554.333 1083.83 520.5 1103.5 481.5 c 128
 1123.17 442.5 1133 408.333 1133 379 c 0
 1132.33 349.667 1132 332.667 1132 328 c 1
 1125.32 264.667 1099.16 209 1053.5 161 c 128
 1007.83 113 953 77.3333 889 54 c 128
 825 30.6667 769.5 15.8333 722.5 9.5 c 128
 675.5 3.16667 611.333 0 530 0 c 2
 8 0 l 1
EndSplineSet
EndChar

StartChar: uni0043
Encoding: 67 67 38
Width: 952
VWidth: 1655
GlyphClass: 2
Flags: HMW
LayerCount: 2
Fore
SplineSet
724 927 m 2
 724 960.333 721.167 989.333 715.5 1014 c 128
 709.833 1038.67 696.667 1061 676 1081 c 1
 645.333 1118.33 600.333 1136.33 541 1135 c 1
 439 1129.67 361 1075 307 971 c 1
 255 877 228.667 743.667 228 571 c 0
 228 475 240.333 397.333 265 338 c 128
 289.667 278.667 321 231 359 195 c 0
 411 147 473 123.667 545 125 c 0
 633 125 713.333 163.667 786 241 c 1
 807.333 262.333 825.667 285.333 841 310 c 1
 883 248 l 1
 869.667 212.667 848.667 177.333 820 142 c 0
 758.666 69.3333 683.333 18.6667 594 -10 c 0
 552 -22.6667 510.167 -29.1667 468.5 -29.5 c 128
 426.833 -29.8333 383.666 -24 339 -12 c 1
 246.333 16.6667 169.667 70.8333 109 150.5 c 128
 48.3333 230.167 15.3333 331.667 10 455 c 1
 10 486 l 2
 9.99999 707.333 80.3333 900 221 1064 c 1
 333 1192.67 462 1256.33 608 1255 c 0
 708.667 1255 791 1226.67 855 1170 c 0
 881.67 1146.67 903.337 1119.33 920 1088 c 128
 936.667 1056.67 945 1021.33 945 982 c 2
 945 971 l 1
 942.333 931 929.333 895.333 906 864 c 128
 882.663 832.667 856.83 813.167 828.5 805.5 c 128
 800.167 797.833 778.667 794 764 794 c 1
 712 802 l 1
 718.667 831.333 722.667 865.333 724 904 c 1
 724 927 l 2
EndSplineSet
EndChar

StartChar: uni0044
Encoding: 68 68 39
Width: 1389
VWidth: 1655
GlyphClass: 2
Flags: HMW
LayerCount: 2
Fore
SplineSet
434 106 m 1
 817.334 106 1053.67 220.667 1143 450 c 1
 1167.67 515.333 1180 589.333 1180 672 c 128
 1180 754.667 1162.33 832 1127 904 c 1
 1101.67 956.667 1068 1001 1026 1037 c 128
 984 1073 925.167 1104.83 849.5 1132.5 c 128
 773.833 1160.17 713.333 1174.33 668 1175 c 128
 622.667 1175.67 587 1174.33 561 1171 c 1
 434 106 l 1
8 0 m 1
 28 77 l 1
 237 129 l 1
 364 1068 l 1
 147 1085 l 1
 168 1156 l 1
 336.667 1218.67 529 1250 745 1250 c 0
 782.333 1250 806.333 1249.67 817 1249 c 1
 997 1240.33 1131.33 1199.67 1220 1127 c 1
 1260 1094.33 1293 1055 1319 1009 c 0
 1362.34 931.667 1383.68 846 1383 752 c 0
 1383 729.333 1381.33 705.667 1378 681 c 1
 1360 507 1284 358 1150 234 c 0
 1024.67 118.667 868 46.6667 680 18 c 0
 601.333 6 486.667 0 336 0 c 2
 8 0 l 1
EndSplineSet
EndChar

StartChar: uni0045
Encoding: 69 69 40
Width: 1204
VWidth: 1655
GlyphClass: 2
Flags: HMW
LayerCount: 2
Fore
SplineSet
1058 0 m 1
 689.333 2 483.333 3 440 3 c 1
 8 -3 l 1
 31 80 l 1
 249 134 l 1
 374 1094 l 1
 147 1117 l 1
 167 1192 l 1
 245 1207.34 356.167 1221.18 500.5 1233.5 c 128
 644.833 1245.83 778 1252 900 1252 c 1
 1197 1246 l 1
 1117 835 l 1
 1031 848 l 1
 999 1111 l 1
 971 1117 l 1
 876.333 1135.67 753.333 1144.33 602 1143 c 2
 569 1143 l 1
 514 680 l 1
 969 714 l 1
 935 569 l 1
 502 578 l 1
 440 98 l 1
 657 108 l 2
 779.667 114.667 863.334 122.667 908 132 c 1
 930.668 168.667 957.335 222 988 292 c 128
 1018.67 362 1038.67 415 1048 451 c 1
 1135 440 l 1
 1135 434 l 2
 1135 345.333 1128.17 261.167 1114.5 181.5 c 128
 1100.83 101.833 1082 41.3333 1058 0 c 1
EndSplineSet
EndChar

StartChar: uni0046
Encoding: 70 70 41
Width: 1204
VWidth: 1655
GlyphClass: 2
Flags: HMW
LayerCount: 2
Fore
SplineSet
900 1252 m 1
 1197 1246 l 1
 1117 818 l 1
 1022 832 l 1
 994 1102 l 1
 962 1107 l 1
 869.333 1123 759 1134.67 631 1142 c 1
 569 1143 l 1
 514 637 l 1
 969 670 l 1
 935 519 l 1
 500 537 l 1
 446 109 l 1
 696 80 l 1
 676 -2 l 1
 8 -2 l 1
 31 80 l 1
 249 134 l 1
 374 1094 l 1
 147 1117 l 1
 167 1192 l 1
 245 1207.34 356 1221.18 500 1233.5 c 128
 644 1245.83 777.333 1252 900 1252 c 1
EndSplineSet
EndChar

StartChar: uni0047
Encoding: 71 71 42
Width: 1237
VWidth: 1655
GlyphClass: 2
Flags: HMW
LayerCount: 2
Fore
SplineSet
1107 843 m 1
 1019 858 l 1
 1008 1050 l 1
 986 1084 947.833 1111.5 893.5 1132.5 c 128
 839.167 1153.5 773 1164 695 1164 c 0
 575 1164 470.333 1123 381 1041 c 0
 335 997 299.5 937.167 274.5 861.5 c 128
 249.5 785.833 237 699.333 237 602 c 2
 237 540 l 1
 243.667 403.333 284.167 292 358.5 206 c 128
 432.833 120 532.667 77 658 77 c 0
 746 77 809.333 92.3333 848 123 c 1
 885 437 l 1
 653 474 l 1
 675 557 l 1
 1233 557 l 1
 1212 483 l 1
 1081 440 l 1
 1039 88 l 1
 916.333 8 744.667 -32.3333 524 -33 c 0
 418.667 -33 327.667 -11 251 33 c 0
 99.6667 118.333 19.3333 263.333 10 468 c 1
 10 492 l 1
 8.66667 498.667 8 506 8 514 c 0
 8 603.333 22.3333 688.833 51 770.5 c 128
 79.6667 852.167 118.667 923 168 983 c 0
 268 1104.33 392 1187.67 540 1233 c 0
 612.667 1255 685 1266 757 1266 c 0
 943.001 1266 1081.67 1232.67 1173 1166 c 1
 1107 843 l 1
EndSplineSet
EndChar

StartChar: uni0048
Encoding: 72 72 43
Width: 1566
VWidth: 1655
GlyphClass: 2
Flags: HMW
LayerCount: 2
Fore
SplineSet
1148 1113 m 1
 920 1122 l 1
 938 1197 l 1
 1095.33 1228.33 1251.67 1244.33 1407 1245 c 0
 1459 1245 1509.67 1243 1559 1239 c 1
 1541 1163 l 1
 1336 1109 l 1
 1220 129 l 1
 1431 81 l 1
 1410 0 l 1
 783 0 l 1
 802 78 l 1
 1024 113 l 1
 1085 600 l 1
 497 567 l 1
 440 106 l 1
 651 81 l 1
 627 0 l 1
 8 0 l 1
 26 78 l 1
 249 129 l 1
 372 1090 l 1
 146 1123 l 1
 165 1199 l 1
 273.667 1221.67 361.167 1235 427.5 1239 c 128
 493.833 1243 555.667 1245 613 1245 c 128
 670.333 1245 728 1243 786 1239 c 1
 766 1164 l 1
 567 1142 l 1
 512 680 l 1
 1097 701 l 1
 1148 1113 l 1
EndSplineSet
EndChar

StartChar: uni0049
Encoding: 73 73 44
Width: 792
VWidth: 1655
GlyphClass: 2
Flags: HMW
LayerCount: 2
Fore
SplineSet
634 0 m 1
 8 0 l 1
 26 78 l 1
 249 129 l 1
 372 1090 l 1
 146 1123 l 1
 165 1199 l 1
 312.333 1230.33 467 1246 629 1246 c 0
 671.667 1246 724 1243.67 786 1239 c 1
 766 1164 l 1
 567 1142 l 1
 440 106 l 1
 658 81 l 1
 634 0 l 1
EndSplineSet
EndChar

StartChar: uni004A
Encoding: 74 74 45
Width: 961
VWidth: 1655
GlyphClass: 2
Flags: HMW
LayerCount: 2
Fore
SplineSet
267 -365 m 0
 245.667 -371.667 225.667 -375.167 207 -375.5 c 128
 188.333 -375.833 177.333 -375.333 174 -374 c 1
 140 -370.667 109.5 -359 82.5 -339 c 128
 55.5 -319 35.6667 -292.333 23 -259 c 1
 14.3333 -239.667 10 -217 10 -191 c 128
 10 -165 15.3333 -139 26 -113 c 1
 88 -141.667 146 -158.333 200 -163 c 1
 212 -163 l 1
 215.333 -164.333 219 -165 223 -165 c 0
 295.667 -165 347.333 -139.667 378 -89 c 1
 394 -64.3333 405.667 -40.1667 413 -16.5 c 128
 420.334 7.16667 426.667 37.3333 432 74 c 128
 437.337 110.667 441.67 143.333 445 172 c 128
 448.34 200.667 450.674 222.667 452 238 c 0
 456 272 459.167 306.167 461.5 340.5 c 128
 463.835 374.833 472.668 457.667 488 589 c 2
 545 1087 l 1
 320 1117 l 1
 336 1194 l 1
 444 1220 557 1236.33 675 1243 c 1
 722.333 1246.33 769.667 1248 817 1248 c 128
 864.333 1248 911 1246.33 957 1243 c 1
 938 1166 l 1
 743 1142 l 1
 648 385 l 1
 622 198.333 591.5 59 556.5 -33 c 128
 521.5 -125 481.333 -197.833 436 -251.5 c 128
 390.667 -305.167 334.333 -343 267 -365 c 0
EndSplineSet
EndChar

StartChar: uni004B
Encoding: 75 75 46
Width: 1324
VWidth: 1655
GlyphClass: 2
Flags: HMW
LayerCount: 2
Fore
SplineSet
560 512 m 1
 529.333 560 505.667 591.667 489 607 c 1
 492 631 l 1
 544 669 585 704.667 615 738 c 2
 957 1127 l 1
 801 1171 l 1
 818 1248 l 1
 1317 1248 l 1
 1298 1171 l 1
 1113 1127 l 1
 683 657 l 1
 877 385 l 2
 953.667 277.667 1011.67 204.833 1051 166.5 c 128
 1090.33 128.167 1137.33 100.333 1192 83 c 2
 1226 72 l 1
 1207 2 l 1
 1159.67 -14 1115.33 -22.3333 1074 -23 c 0
 1000.67 -23 935.167 0.333332 877.5 47 c 128
 819.833 93.6666 762.667 165.667 706 263 c 1
 560 512 l 1
401 125 m 1
 585 81 l 1
 562 0 l 1
 8 0 l 1
 28 75 l 1
 207 129 l 1
 328 1122 l 1
 146 1171 l 1
 168 1248 l 1
 719 1248 l 1
 699 1171 l 1
 520 1127 l 1
 401 125 l 1
EndSplineSet
EndChar

StartChar: uni004C
Encoding: 76 76 47
Width: 1143
VWidth: 1655
GlyphClass: 2
Flags: HMW
LayerCount: 2
Fore
SplineSet
1058 0 m 1
 689.333 2 483.333 3 440 3 c 1
 8 -3 l 1
 31 80 l 1
 249 134 l 1
 374 1094 l 1
 147 1117 l 1
 167 1192 l 1
 285 1228 431 1246 605 1246 c 0
 643 1246 689.333 1244.33 744 1241 c 128
 798.667 1237.67 828.667 1236 834 1236 c 1
 820 1155 l 1
 573 1132 l 1
 440 106 l 1
 657 116 l 1
 755 121.333 833.667 129 893 139 c 1
 933.667 183 983.667 293.333 1043 470 c 1
 1135 456 l 1
 1135 448 1135.67 440.667 1137 434 c 1
 1137 408 l 2
 1137 335.333 1129.5 258.833 1114.5 178.5 c 128
 1099.5 98.1667 1080.67 38.6667 1058 0 c 1
EndSplineSet
EndChar

StartChar: uni004D
Encoding: 77 77 48
Width: 1700
VWidth: 1655
GlyphClass: 2
Flags: HMW
LayerCount: 2
Fore
SplineSet
1380 186 m 0
 1380 151.333 1390.67 134 1412 134 c 0
 1413.35 134 1420.69 136 1434 140 c 128
 1447.33 144 1464 156.5 1484 177.5 c 128
 1504 198.5 1531.33 232.333 1566 279 c 1
 1614 244 l 1
 1588 145.333 1530.67 68.3333 1442 13 c 1
 1397.33 -13.6667 1351.5 -27.5 1304.5 -28.5 c 128
 1257.5 -29.5 1224.33 -20 1205 0 c 128
 1185.67 20 1176 49.6667 1176 89 c 0
 1176 94.3333 1176.67 99 1178 103 c 1
 1178 114 l 1
 1180 158.667 1187.67 235 1201 343 c 2
 1283 999 l 1
 1207 814.333 1131.83 645.5 1057.5 492.5 c 128
 983.166 339.5 921.332 224 872 146 c 0
 866 137.333 845 106 809 52 c 1
 681 33 l 1
 440 999 l 1
 437 999 l 1
 418 486 l 2
 413.332 374 405.665 290.667 395 236 c 128
 384.333 181.333 362.666 128.667 330 78 c 0
 282.667 6 228.667 -30.3333 168 -31 c 0
 141.333 -31 116.333 -24.5 93 -11.5 c 128
 69.6667 1.5 51.3333 18.8333 38 40.5 c 128
 24.6667 62.1667 16.3333 80 13 94 c 1
 89 128 148.333 174.333 191 233 c 0
 269.667 345 316.667 555.333 332 864 c 1
 334 924.667 335.333 993.667 336 1071 c 1
 109 1125 l 1
 132 1201 l 1
 290.667 1231 437.667 1246.67 573 1248 c 1
 628 1055 l 1
 812 343 l 1
 1205 1068 l 1
 1298 1231 l 1
 1310.67 1233.67 1340.5 1236.83 1387.5 1240.5 c 128
 1434.5 1244.17 1483 1246 1533 1246 c 128
 1583 1246 1637.33 1242.67 1696 1236 c 1
 1673 1158 l 1
 1456 1101 l 1
 1385 287 l 1
 1383 252.333 1382 232.333 1382 227 c 2
 1382 207 l 1
 1380.67 201.667 1380 194.667 1380 186 c 0
EndSplineSet
EndChar

StartChar: uni004E
Encoding: 78 78 49
Width: 1507
VWidth: 1655
GlyphClass: 2
Flags: HMW
LayerCount: 2
Fore
SplineSet
1011 -31 m 1
 456 999 l 1
 453 999 l 1
 434 486 l 2
 429.332 380.667 420.165 298.5 406.5 239.5 c 128
 392.833 180.5 366.333 124 327 70 c 1
 274.333 2.66666 218 -31 158 -31 c 2
 151 -31 l 1
 92.3333 -25.6667 50.6667 1 26 49 c 1
 17.3333 69 11.3333 87 8 103 c 1
 88.6667 140.333 151.667 186.667 197 242 c 1
 291 356.667 341.667 564 349 864 c 1
 351 984.669 352.333 1053.67 353 1071 c 1
 127 1125 l 1
 149 1201 l 1
 241.667 1219.67 316.333 1231.17 373 1235.5 c 128
 429.667 1239.83 491.333 1243.33 558 1246 c 1
 646 1078 l 1
 1081 274 l 1
 1152 1106 l 1
 925 1122 l 1
 945 1197 l 1
 1050.33 1219.67 1133.67 1233.33 1195 1238 c 128
 1256.33 1242.67 1310.67 1245 1358 1245 c 128
 1405.33 1245 1453 1243 1501 1239 c 1
 1480 1163 l 1
 1275 1109 l 1
 1171 2 l 1
 1011 -31 l 1
EndSplineSet
EndChar

StartChar: uni004F
Encoding: 79 79 50
Width: 1079
VWidth: 1655
GlyphClass: 2
Flags: HMW
LayerCount: 2
Fore
SplineSet
251.5 888 m 128
 228.5 816.667 217 733.5 217 638.5 c 128
 217 543.5 230.333 455.833 257 375.5 c 128
 283.667 295.167 321.833 232.5 371.5 187.5 c 128
 421.167 142.5 477.333 120 540 120 c 0
 636.667 120 715.334 166.667 776 260 c 128
 836.667 353.333 867 475 867 625 c 0
 867 720.333 853.5 805.833 826.5 881.5 c 128
 799.5 957.167 759.333 1017.5 706 1062.5 c 128
 652.665 1107.5 592.332 1130 525 1130 c 128
 457.667 1130 401 1107.5 355 1062.5 c 128
 309 1017.5 274.5 959.333 251.5 888 c 128
1074 744 m 1
 1072 596.667 1037 457 969 325 c 1
 891.667 179.667 793.667 78.3333 675 21 c 0
 608.333 -11.6667 534 -28 452 -28 c 128
 370 -28 294.167 -3.66667 224.5 45 c 128
 154.833 93.6666 101.333 158.167 64 238.5 c 128
 26.6667 318.833 8 407.667 8 505 c 0
 8 641.667 34 768.667 86 886 c 128
 138 1003.33 211.667 1097.5 307 1168.5 c 128
 402.333 1239.5 510.333 1275 631 1275 c 0
 721.667 1275 802.5 1248.5 873.5 1195.5 c 128
 944.5 1142.5 995.667 1076.67 1027 998 c 128
 1058.33 919.333 1074 836 1074 748 c 2
 1074 744 l 1
EndSplineSet
EndChar

StartChar: uni0050
Encoding: 80 80 51
Width: 1166
VWidth: 1655
GlyphClass: 2
Flags: HMW
LayerCount: 2
Fore
SplineSet
540 534 m 1
 578.668 537.333 616.334 543.667 653 553 c 1
 752.333 575.667 829 614.667 883 670 c 128
 937 725.333 964 795.833 964 881.5 c 128
 964 967.168 934.333 1040.17 875 1100.5 c 128
 815.667 1160.83 734.333 1191 631 1191 c 0
 611 1191 591.667 1189.33 573 1186 c 1
 439 116 l 1
 667 84 l 1
 643 0 l 1
 8 0 l 1
 26 78 l 1
 242 132 l 1
 365 1066 l 1
 149 1089 l 1
 165 1158 l 1
 362.333 1226.67 549.667 1261.33 727 1262 c 0
 865.667 1262 972.167 1231.83 1046.5 1171.5 c 128
 1120.83 1111.17 1158 1025 1158 913 c 0
 1158 797.667 1105.67 696.667 1001 610 c 0
 949.667 568.667 885.167 534 807.5 506 c 128
 729.833 478 642.667 459.667 546 451 c 1
 540 534 l 1
EndSplineSet
EndChar

StartChar: uni0051
Encoding: 81 81 52
Width: 1091
VWidth: 1655
GlyphClass: 2
Flags: HMW
LayerCount: 2
Fore
SplineSet
627 1275 m 2
 648 1275 l 1
 791.333 1267.67 899 1204.33 971 1085 c 1
 1031.67 984.333 1062 868 1062 736 c 0
 1062 681.333 1055.33 621 1042 555 c 0
 1016 427.667 970 317 904 223 c 128
 838 129 753 59.3333 649 14 c 1
 657.667 -54.6667 688.667 -111 742 -155 c 0
 780 -186.333 822.333 -202 869 -202 c 2
 874 -202 l 2
 900 -202 930.667 -195.5 966 -182.5 c 128
 1001.33 -169.5 1034 -153.333 1064 -134 c 1
 1086 -216 l 1
 1010.67 -316.667 915.667 -373 801 -385 c 1
 786 -385 l 1
 781.333 -386.333 776.333 -386.667 771 -386 c 0
 695 -386 634.833 -361.833 590.5 -313.5 c 128
 546.167 -265.167 521 -200.667 515 -120 c 1
 515 -103 l 1
 513.667 -98.3333 513.167 -88.8333 513.5 -74.5 c 128
 513.833 -60.1667 515.667 -42.3333 519 -21 c 1
 499 -24.3333 474.667 -26 446 -26 c 128
 417.333 -26 388.666 -22 360 -14 c 1
 269.333 8 191.667 57.6667 127 135 c 0
 48.3333 231 9.33334 364 10 534 c 0
 10 770.667 86.6667 962.334 240 1109 c 0
 306 1171.67 380.333 1217.33 463 1246 c 1
 515 1265.33 569.667 1275 627 1275 c 2
334 1052 m 0
 250.667 965.333 209.667 831.667 211 651 c 0
 211 497.667 232.333 378.333 275 293 c 1
 310.333 224.333 359 174.667 421 144 c 1
 456.334 125.333 487.168 116 513.5 116 c 128
 539.833 116 555.333 116.667 560 118 c 1
 610 123.333 654.333 140 693 168 c 0
 761.667 218.667 809 294.333 835 395 c 1
 852.333 453.667 861 522.667 861 602 c 0
 861 606.667 860 633.667 858 683 c 1
 844.665 872.333 787.332 1004 686 1078 c 1
 639.333 1114.67 585.333 1132.67 524 1132 c 0
 449.333 1132.67 386 1106 334 1052 c 0
EndSplineSet
EndChar

StartChar: uni0052
Encoding: 82 82 53
Width: 1235
VWidth: 1655
GlyphClass: 2
Flags: HMW
LayerCount: 2
Fore
SplineSet
424 106 m 1
 608 72 l 1
 589 0 l 1
 8 0 l 1
 26 75 l 1
 240 127 l 1
 365 1065 l 1
 144 1078 l 1
 158 1155 l 1
 224.667 1177.67 313.167 1200.67 423.5 1224 c 128
 533.833 1247.33 614.833 1259 666.5 1259 c 128
 718.167 1259 747.667 1258.33 755 1257 c 1
 935 1244.33 1050.33 1174.66 1101 1048 c 1
 1113 1019.33 1118.67 992.333 1118 967 c 0
 1118 891 1095.33 823.667 1050 765 c 0
 1017.33 724.333 973.167 687.333 917.5 654 c 128
 861.833 620.667 807.667 594 755 574 c 1
 755 571 l 1
 902 325 l 1
 933.333 270.333 959.167 230.667 979.5 206 c 128
 999.833 181.333 1022.83 160.667 1048.5 144 c 128
 1074.17 127.333 1108.67 114.667 1152 106 c 1
 1231 91 l 1
 1224 31 l 1
 1168.67 -1.66667 1111.33 -18 1052 -18 c 0
 950 -18 867.333 24 804 108 c 0
 784.667 134 762.667 170.667 738 218 c 2
 613 453 l 1
 597 478.333 587 494 583 500 c 2
 546 546 l 1
 529 567 l 1
 540 597 l 1
 618 615 l 1
 732.667 637.667 812.333 679 857 739 c 0
 877 765 891.667 792.167 901 820.5 c 128
 910.333 848.833 915 878 915 908 c 0
 915 981.333 891 1044.83 843 1098.5 c 128
 795 1152.17 734 1179 660 1179 c 0
 625.333 1179 595 1175.33 569 1168 c 1
 424 106 l 1
EndSplineSet
EndChar

StartChar: uni0053
Encoding: 83 83 54
Width: 857
VWidth: 1655
GlyphClass: 2
Flags: HMW
LayerCount: 2
Fore
SplineSet
265 401 m 1
 245 345.667 235.667 297.333 237 256 c 0
 237 193.333 258.667 145.667 302 113 c 1
 324.667 97 347.333 87.5 370 84.5 c 128
 392.667 81.5 406.333 80 411 80 c 0
 451.667 80 490 91.3333 526 114 c 0
 582.667 150 611 199.167 611 261.5 c 128
 611 323.833 589.333 377.667 546 423 c 1
 530 441.667 504 465 468 493 c 1
 363.333 577 285.333 650 234 712 c 128
 182.667 774 157 838.667 157 906 c 0
 157 910.667 157.333 914.667 158 918 c 1
 158 928 l 1
 161.333 968.667 173 1007 193 1043 c 0
 227.667 1109 278.333 1163.33 345 1206 c 128
 411.667 1248.67 482.333 1272.67 557 1278 c 1
 581 1278 l 2
 686.333 1278 777.667 1244.67 855 1178 c 1
 790 832 l 1
 702 851 l 1
 695 1101 l 1
 663 1144.33 623.333 1170.33 576 1179 c 1
 563.333 1182.33 550 1184 536 1184 c 0
 490 1184 448.167 1169 410.5 1139 c 128
 372.833 1109 352.333 1068 349 1016 c 1
 349 1005 l 2
 349 956.333 361.667 914 387 878 c 128
 412.333 842 455.833 799.167 517.5 749.5 c 128
 579.167 699.833 628.5 657.667 665.5 623 c 128
 702.5 588.333 734.5 551.667 761.5 513 c 128
 788.5 474.333 805.333 428.667 812 376 c 1
 813.333 372.667 813.667 363.333 813 348 c 0
 813 261.333 781.667 185.333 719 120 c 1
 628.333 24 511.667 -24 369 -24 c 0
 269.667 -24 184.333 0.333332 113 49 c 0
 83 69.6667 59 94.5 41 123.5 c 128
 23 152.5 12.6667 180.333 10 207 c 1
 8.66667 210.333 8 218.833 8 232.5 c 128
 8 246.167 10.6667 264 16 286 c 1
 33.3333 338.667 68 375 120 395 c 1
 142.667 405.667 167.167 411 193.5 411 c 128
 219.833 411 243.667 407.667 265 401 c 1
EndSplineSet
EndChar

StartChar: uni0054
Encoding: 84 84 55
Width: 1100
VWidth: 1655
GlyphClass: 2
Flags: HMW
LayerCount: 2
Fore
SplineSet
434 1123 m 1
 349.333 1135 291.5 1140.83 260.5 1140.5 c 128
 229.5 1140.17 209 1139.33 199 1138 c 1
 103 818 l 1
 8 832 l 1
 8 1224 l 1
 189.333 1240 393.333 1249.33 620 1252 c 1
 731 1252 l 1
 1096 1246 l 1
 1015 818 l 1
 920 832 l 1
 890 1117 l 1
 796 1133 711.333 1141.67 636 1143 c 1
 512 109 l 1
 762 80 l 1
 744 -2 l 1
 75 -2 l 1
 98 80 l 1
 315 134 l 1
 434 1123 l 1
EndSplineSet
EndChar

StartChar: uni0055
Encoding: 85 85 56
Width: 1426
VWidth: 1655
GlyphClass: 2
Flags: HMW
LayerCount: 2
Fore
SplineSet
230 1087 m 1
 8 1123 l 1
 30 1201 l 1
 190.667 1230.33 354.667 1245 522 1245 c 1
 646 1243 l 1
 628 1166 l 1
 429 1138 l 1
 381 745 l 2
 381 743 380.333 735 379 721 c 128
 377.667 707 374.833 682.333 370.5 647 c 128
 366.167 611.667 363.333 584.5 362 565.5 c 128
 360.667 546.5 360 520.333 360 487 c 128
 360 453.667 361.333 426 364 404 c 0
 366.667 382 371.333 357 378 329 c 0
 392.667 273.667 424 226.667 472 188 c 1
 522 144.667 581.667 123 651 123 c 128
 720.333 123 778.5 138.5 825.5 169.5 c 128
 872.5 200.5 908.333 240.833 933 290.5 c 128
 957.667 340.167 978 421.333 994 534 c 1
 1068 1111 l 1
 843 1120 l 1
 861 1197 l 1
 1001.67 1227.67 1151 1243 1309 1243 c 0
 1317 1243 1354.33 1241.67 1421 1239 c 1
 1401 1163 l 1
 1194 1096 l 1
 1109 517 l 1
 1085.67 361.667 1051 248.667 1005 178 c 1
 980.333 140 953.667 109.167 925 85.5 c 128
 896.333 61.8333 861.333 39.6667 820 19 c 0
 746 -16.3333 669 -34 589 -34 c 2
 579 -34 l 1
 451 -28 351.333 11 280 83 c 0
 199.333 163.667 158.667 277.667 158 425 c 0
 158 477 166.667 569.334 184 702 c 1
 230 1087 l 1
EndSplineSet
EndChar

StartChar: uni0056
Encoding: 86 86 57
Width: 1077
VWidth: 1655
GlyphClass: 2
Flags: HMW
LayerCount: 2
Fore
SplineSet
719 1201 m 1
 761 1243 810 1264 866 1264 c 0
 946.669 1264 1006.34 1226 1045 1150 c 0
 1062.33 1116.67 1071 1074.67 1071 1024 c 0
 1071 1019.33 1070 998.667 1068 962 c 1
 1055.33 836 1015 697.667 947 547 c 128
 879 396.333 798.667 261.333 706 142 c 1
 657.333 82.6667 616.333 37 583 5 c 1
 439 -26 l 1
 230 1081 l 1
 8 1122 l 1
 28 1197 l 1
 162.667 1227.67 292.667 1244 418 1246 c 1
 605 188 l 1
 613 188 l 1
 649.667 226.667 685.667 273 721 327 c 1
 793.668 442.333 841.335 572 864 716 c 0
 868.667 743.333 871 777 871 817 c 0
 871 904.333 854.667 984.667 822 1058 c 1
 793.333 1118 759 1165.67 719 1201 c 1
EndSplineSet
EndChar

StartChar: uni0057
Encoding: 87 87 58
Width: 1544
VWidth: 1655
GlyphClass: 2
Flags: HMW
LayerCount: 2
Fore
SplineSet
835 -28 m 1
 806 621 l 1
 796 621 l 1
 737.333 455 667 300.667 585 158 c 0
 563.666 120.667 532.332 69.6667 491 5 c 1
 317 -26 l 1
 225 1081 l 1
 8 1122 l 1
 35 1197 l 1
 174.333 1227.67 306.667 1244 432 1246 c 1
 499 237 l 1
 509 237 l 1
 609 381.667 689.333 553.333 750 752 c 0
 773.333 829.333 795.667 911.667 817 999 c 1
 966 1034 l 1
 1018 195 l 1
 1026 195 l 1
 1161.33 339 1250 510.333 1292 709 c 1
 1304.67 775.667 1311 835.334 1311 888 c 0
 1311 996 1288.33 1102.33 1243 1207 c 1
 1286.33 1237.67 1333 1252.67 1383 1252 c 2
 1389 1252 l 1
 1468.34 1246.67 1515.67 1206 1531 1130 c 0
 1535.67 1110 1538 1080.17 1538 1040.5 c 128
 1538 1000.83 1531.33 951.333 1518 892 c 1
 1494 772.667 1443.67 647.667 1367 517 c 1
 1298.33 395 1215.33 276.667 1118 162 c 1
 1094.67 131.333 1047.67 78.3333 977 3 c 1
 835 -28 l 1
EndSplineSet
EndChar

StartChar: uni0058
Encoding: 88 88 59
Width: 1301
VWidth: 1655
GlyphClass: 2
Flags: HMW
LayerCount: 2
Fore
SplineSet
336 1071 m 1
 94 1122 l 1
 113 1197 l 1
 216.333 1219.67 293.167 1233 343.5 1237 c 128
 393.833 1241 442 1244 488 1246 c 1
 721 729 l 1
 735.667 769.667 750 803 764 829 c 1
 792 891 829.333 959.833 876 1035.5 c 128
 922.667 1111.17 963.667 1163.33 999 1192 c 0
 1049 1232 1099.17 1252 1149.5 1252 c 128
 1199.83 1252 1238.67 1232.67 1266 1194 c 1
 1282 1168 1290.67 1150 1292 1140 c 128
 1293.33 1130 1294 1113.83 1294 1091.5 c 128
 1294 1069.17 1286.33 1045 1271 1019 c 1
 1243.67 1025.67 1217 1029 1191 1029 c 1
 1145 1026 l 1
 1026.33 1010 924 933.667 838 797 c 1
 811.333 750.333 786.667 697.667 764 639 c 1
 892 357 l 2
 931.333 271.667 965.667 214 995 184 c 0
 1010.33 168.667 1027.33 161.167 1046 161.5 c 128
 1064.67 161.833 1081.67 169.333 1097 184 c 1
 1127.67 207.333 1160 245.333 1194 298 c 1
 1243 264 l 1
 1231 218.667 1215.67 181 1197 151 c 0
 1149 75 1090.67 24 1022 -2 c 1
 996 -10.6667 972.333 -14.6667 951 -14 c 0
 902.333 -14 860.333 3.66667 825 39 c 0
 807 57 793.5 73.3333 784.5 88 c 128
 775.5 102.667 754.333 146.667 721 220 c 1
 583 529 l 1
 548.333 435 497.333 329 430 211 c 1
 380 126.333 333.667 67.6667 291 35 c 1
 251.667 4.33333 210.333 -10.6667 167 -10 c 1
 142 -8 l 1
 106.667 -2.66667 77.6666 13 55 39 c 0
 24.3333 73 8.83333 107.333 8.5 142 c 128
 8.16667 176.667 13.3333 205.333 24 228 c 1
 44 226 65.3333 225 88 225 c 1
 150 228 l 1
 281.333 242 383.333 314.667 456 446 c 0
 478.667 486.667 506 545.667 538 623 c 1
 336 1071 l 1
EndSplineSet
EndChar

StartChar: uni0059
Encoding: 89 89 60
Width: 1079
VWidth: 1655
GlyphClass: 2
Flags: HMW
LayerCount: 2
Fore
SplineSet
608 680 m 1
 578.667 583.333 557 476.333 543 359 c 2
 514 106 l 1
 727 81 l 1
 706 0 l 1
 80 0 l 1
 99 83 l 1
 320 129 l 1
 359 423 l 2
 365.667 470.333 369 519 369 569 c 0
 369 688.333 346.667 796.333 302 893 c 1
 241.333 1019.67 143.333 1092.33 8 1111 c 1
 17.3333 1160.34 39.1667 1197.17 73.5 1221.5 c 128
 107.833 1245.83 147 1259.33 191 1262 c 1
 202 1262 l 2
 310 1262 391.333 1203.33 446 1086 c 0
 482.667 1006 504.667 914.667 512 812 c 1
 514 749.333 514.667 712.667 514 702 c 2
 514 664 l 1
 530 664 l 1
 553.333 763.333 587.333 862.667 632 962 c 1
 715.333 1153.33 815.667 1249 933 1249 c 2
 951 1249 l 1
 988.333 1245.67 1018 1230.67 1040 1204 c 128
 1062 1177.33 1073 1148.66 1073 1118 c 0
 1073 1105.33 1071.67 1095 1069 1087 c 1
 1030.33 1085.67 985.831 1077.67 935.5 1063 c 128
 885.167 1048.33 839.667 1025.66 799 995 c 1
 751.667 957 714.667 915 688 869 c 128
 661.333 823 634.667 760 608 680 c 1
EndSplineSet
EndChar

StartChar: uni005A
Encoding: 90 90 61
Width: 1091
VWidth: 1655
GlyphClass: 2
Flags: HMW
LayerCount: 2
Fore
SplineSet
162 1248 m 1
 1085 1248 l 1
 1076 1171 l 1
 230 94 l 1
 440 103 l 1
 590.667 111.667 712.667 123.667 806 139 c 1
 856 257 890 361.667 908 453 c 1
 999 440 l 1
 999 428 999.667 417.667 1001 409 c 1
 1001 378 l 1
 999.667 241.333 989.667 129.333 971 42 c 1
 961 0 l 1
 8 0 l 1
 13 103 l 1
 848 1152 l 1
 323 1135 l 1
 248 874 l 1
 146 900 l 1
 162 1248 l 1
EndSplineSet
EndChar

StartChar: uni005B
Encoding: 91 91 62
Width: 573
VWidth: 1655
GlyphClass: 2
Flags: HMW
LayerCount: 2
Fore
SplineSet
369 -378 m 1
 8 -380 l 1
 211 1266 l 1
 566 1266 l 1
 566 1175 l 1
 349 1154 l 1
 174 -263 l 1
 392 -282 l 1
 369 -378 l 1
EndSplineSet
EndChar

StartChar: uni005C
Encoding: 92 92 63
Width: 409
VWidth: 1655
GlyphClass: 2
Flags: HMW
LayerCount: 2
Fore
SplineSet
141 1275 m 1
 404 -380 l 1
 275 -372 l 1
 8 1283 l 1
 141 1275 l 1
EndSplineSet
EndChar

StartChar: uni005D
Encoding: 93 93 64
Width: 574
VWidth: 1655
GlyphClass: 2
Flags: HMW
LayerCount: 2
Fore
SplineSet
8 -378 m 1
 10 -282 l 1
 230 -263 l 1
 404 1154 l 1
 191 1175 l 1
 214 1266 l 1
 569 1266 l 1
 369 -380 l 1
 8 -378 l 1
EndSplineSet
EndChar

StartChar: uni005E
Encoding: 94 94 65
Width: 734
VWidth: 1655
GlyphClass: 2
Flags: HMW
LayerCount: 2
Fore
SplineSet
567 1224 m 1
 809 808 l 1
 747 771 l 1
 514 1052 l 1
 505 1052 l 1
 227 776 l 1
 181 809 l 1
 514 1212 l 1
 567 1224 l 1
EndSplineSet
EndChar

StartChar: uni005F
Encoding: 95 95 66
Width: 873
VWidth: 1655
GlyphClass: 2
Flags: HMW
LayerCount: 2
Fore
SplineSet
33 -28 m 1
 867 -28 l 1
 843 -134 l 1
 8 -134 l 1
 33 -28 l 1
EndSplineSet
EndChar

StartChar: uni0060
Encoding: 96 96 67
Width: 619
VWidth: 1655
GlyphClass: 2
Flags: HMW
LayerCount: 2
Fore
SplineSet
160 1626 m 1
 274 1663 l 1
 402 1336 l 1
 346 1303 l 1
 160 1626 l 1
EndSplineSet
EndChar

StartChar: uni0061
Encoding: 97 97 68
Width: 840
VWidth: 1655
GlyphClass: 2
Flags: HMW
LayerCount: 2
Fore
SplineSet
587 918 m 1
 706 881 l 1
 634 491 l 1
 604 253 l 1
 599.333 214.333 597 186 597 168 c 0
 597 133.333 611.667 116 641 116 c 0
 659 116 683.167 132.667 713.5 166 c 128
 743.833 199.333 770.667 235.667 794 275 c 1
 835 240 l 1
 798.333 146.667 758 78.1667 714 34.5 c 128
 670 -9.16667 613 -31 543 -31 c 0
 509.667 -31 484.167 -18.8333 466.5 5.5 c 128
 448.833 29.8333 440 65.6667 440 113 c 0
 440 161 452 219 476 287 c 1
 463 287 l 1
 427.667 203 381.667 130.667 325 70 c 128
 268.333 9.33333 212.333 -21 157 -21 c 128
 101.667 -21 63 -0.5 41 40.5 c 128
 19 81.5 8 143.167 8 225.5 c 128
 8 307.833 27.1667 401.167 65.5 505.5 c 128
 103.833 609.833 154.833 700.833 218.5 778.5 c 128
 282.167 856.167 345.667 895 409 895 c 128
 472.334 895 520.334 870 553 820 c 1
 562 820 l 1
 576 909 l 1
 587 918 l 1
162 288 m 0
 162 228.667 166.167 187.833 174.5 165.5 c 128
 182.833 143.167 200.333 132 227 132 c 0
 275.667 132 331.333 183 394 285 c 128
 456.667 387 501 512 527 660 c 1
 517.666 688 498.166 713.333 468.5 736 c 128
 438.833 758.667 408 770 376 770 c 128
 344 770 313.167 754.167 283.5 722.5 c 128
 253.833 690.833 230.667 648.333 214 595 c 1
 179.333 491 162 388.667 162 288 c 0
EndSplineSet
EndChar

StartChar: uni0062
Encoding: 98 98 69
Width: 734
VWidth: 1655
GlyphClass: 2
Flags: HMW
LayerCount: 2
Fore
SplineSet
437 762 m 0
 391.667 762 343.667 714.167 293 618.5 c 128
 242.333 522.833 208.333 399.667 191 249 c 1
 178 153 l 1
 209.333 108.333 263.667 86.6667 341 88 c 0
 399 88 450 120 494 184 c 128
 538 248 560 355 560 505 c 0
 560 581 549.667 642.833 529 690.5 c 128
 508.333 738.167 477.666 762 437 762 c 0
313 1245 m 1
 264 845 l 1
 214 592 l 1
 223 592 l 1
 243 676.667 279.167 748 331.5 806 c 128
 383.834 864 442.167 893 506.5 893 c 128
 570.833 893 623.667 859.333 665 792 c 128
 706.333 724.666 727 638.833 727 534.5 c 128
 727 430.167 706.833 335.5 666.5 250.5 c 128
 626.167 165.5 569.167 98.5 495.5 49.5 c 128
 421.833 0.5 336.5 -24 239.5 -24 c 128
 142.5 -24 66.6667 0.333332 12 49 c 1
 144 1142 l 1
 8 1170 l 1
 19 1243 l 1
 298 1266 l 1
 313 1245 l 1
EndSplineSet
EndChar

StartChar: uni0063
Encoding: 99 99 70
Width: 602
VWidth: 1655
GlyphClass: 2
Flags: HMW
LayerCount: 2
Fore
SplineSet
456 592 m 1
 456 601.333 452.667 625 446 663 c 0
 433.333 731.667 413.333 774 386 790 c 0
 376.667 794.667 366 796.667 354 796 c 0
 294 796 248 759.333 216 686 c 128
 184 612.667 168 514.667 168 392 c 0
 168 328 173 276.5 183 237.5 c 128
 193 198.5 212 165.5 240 138.5 c 128
 268 111.5 305.667 98 353 98 c 2
 355 98 l 2
 387 98 418.833 109.667 450.5 133 c 128
 482.167 156.333 508.667 187.667 530 227 c 1
 566 195 l 1
 553.333 136.333 516.667 84 456 38 c 128
 395.333 -8 331.667 -31 265 -31 c 0
 181 -31 117.167 2 73.5 68 c 128
 29.8333 134 8 222 8 332 c 0
 8 405.334 20 477.167 44 547.5 c 128
 68 617.833 99.1667 677.833 137.5 727.5 c 128
 175.833 777.167 219.667 817.167 269 847.5 c 128
 318.333 877.833 369.167 893 421.5 893 c 128
 473.834 893 515.834 877.667 547.5 847 c 128
 579.167 816.333 595 778.167 595 732.5 c 128
 595 686.833 584 653.5 562 632.5 c 128
 540 611.5 504.667 598 456 592 c 1
EndSplineSet
EndChar

StartChar: uni0064
Encoding: 100 100 71
Width: 836
VWidth: 1655
GlyphClass: 2
Flags: HMW
LayerCount: 2
Fore
SplineSet
168 287 m 2
 168 224.333 171.333 179 178 151 c 128
 184.667 123 199.667 109 223 109 c 0
 263.667 109 304.833 135.167 346.5 187.5 c 128
 388.167 239.833 424.5 309.833 455.5 397.5 c 128
 486.5 485.167 507 578.667 517 678 c 1
 486.333 743.333 442.333 775.667 385 775 c 0
 343.667 775 305.667 751.667 271 705 c 128
 236.333 658.333 210.5 599.667 193.5 529 c 128
 176.5 458.333 168 383.666 168 305 c 2
 168 287 l 2
608 284 m 1
 601.333 242 598.167 209 598.5 185 c 128
 598.833 161 602.333 144.667 609 136 c 128
 615.671 127.333 626.838 123 642.5 123 c 128
 658.167 123 681.667 138.667 713 170 c 0
 745 200.667 770.667 234 790 270 c 1
 830 242 l 1
 778 64 679.333 -24.6667 534 -24 c 0
 478 -24 450 16.6667 450 98 c 0
 450 146 458.667 199.667 476 259 c 1
 463 263 l 1
 430.333 172.333 388.833 101.5 338.5 50.5 c 128
 288.167 -0.5 233.833 -26 175.5 -26 c 128
 117.167 -26 74.6667 -3.83333 48 40.5 c 128
 21.3333 84.8333 8 146.5 8 225.5 c 128
 8 304.5 26.3333 394.167 63 494.5 c 128
 99.6666 594.833 151.167 684.5 217.5 763.5 c 128
 283.833 842.5 356 882 434 882 c 0
 486 882 517 871.667 527 851 c 1
 541 855 l 1
 561 1142 l 1
 427 1170 l 1
 437 1243 l 1
 712 1269 l 1
 731 1245 l 1
 608 284 l 1
EndSplineSet
EndChar

StartChar: uni0065
Encoding: 101 101 72
Width: 599
VWidth: 1655
GlyphClass: 2
Flags: HMW
LayerCount: 2
Fore
SplineSet
547.5 849.5 m 128
 577.167 817.833 592 776.667 592 726 c 0
 592 630 542.667 547 444 477 c 0
 362.667 419 270.667 373.667 168 341 c 1
 171.333 182.333 225.333 103 330 103 c 0
 407.333 103 476 150.667 536 246 c 1
 573 214 l 1
 549.667 146.667 508.833 89 450.5 41 c 128
 392.167 -7 325.167 -31 249.5 -31 c 128
 173.833 -31 114.667 -2 72 56 c 128
 29.3333 114 8 192.833 8 292.5 c 128
 8 392.167 27.5 488.167 66.5 580.5 c 128
 105.5 672.833 157.333 748.667 222 808 c 128
 286.667 867.333 354.333 897 425 897 c 0
 477 897 517.834 881.167 547.5 849.5 c 128
440 698 m 0
 440 760 413.333 790.667 360 790 c 0
 248 790 184 664.667 168 414 c 1
 349.333 480.667 440 575.333 440 698 c 0
EndSplineSet
EndChar

StartChar: uni0066
Encoding: 102 102 73
Width: 515
VWidth: 1655
GlyphClass: 2
Flags: HMW
LayerCount: 2
Fore
SplineSet
-168 -132 m 1
 -102 -196 -35 -228 33 -228 c 0
 54.3333 -228 70.3333 -224.667 81 -218 c 1
 103 -208.667 117.667 -186 125 -150 c 1
 140.333 -55.3333 150.167 28.8333 154.5 102.5 c 128
 158.833 176.167 161.833 228.667 163.5 260 c 128
 165.169 291.333 166.336 309 167 313 c 2
 199 775 l 1
 91 766 l 1
 103 871 l 1
 211 855 l 1
 217.667 896.333 221 919.667 221 925 c 0
 237 999.667 266 1068 308 1130 c 1
 355.333 1192.67 412.333 1238 479 1266 c 1
 515 1280 548.333 1287 579 1287 c 2
 587 1287 l 1
 625.667 1285 656.667 1273.33 680 1252 c 0
 714 1221.33 731 1185 731 1143 c 0
 731 1126.33 728.667 1113.33 724 1104 c 1
 712.666 1068.67 690.333 1040.33 657 1019 c 1
 600.333 1085 560.833 1123.67 538.5 1135 c 128
 516.166 1146.33 495.166 1152 475.5 1152 c 128
 455.832 1152 438.666 1145.17 424 1131.5 c 128
 409.333 1117.83 400.333 1105.5 397 1094.5 c 128
 393.667 1083.5 389.833 1067.5 385.5 1046.5 c 128
 381.167 1025.5 376.667 992.333 372 947 c 128
 367.333 901.665 365 869.332 365 850 c 1
 595 871 l 1
 576 760 l 1
 359 771 l 1
 317 178 l 1
 308.333 68.6667 295 -18.5 277 -83.5 c 128
 259 -148.5 236 -198.333 208 -233 c 0
 154 -301 92.3333 -345 23 -365 c 0
 -11 -375.667 -42.6667 -381 -72 -381 c 2
 -83 -381 l 1
 -153.667 -375 -198.667 -346.667 -218 -296 c 1
 -223.333 -280 -226.333 -265.667 -227 -253 c 2
 -227 -242 l 1
 -225.667 -226 -219.667 -207.667 -209 -187 c 128
 -198.333 -166.333 -184.667 -148 -168 -132 c 1
EndSplineSet
EndChar

StartChar: uni0067
Encoding: 103 103 74
Width: 769
VWidth: 1655
GlyphClass: 2
Flags: HMW
LayerCount: 2
Fore
SplineSet
248 23 m 1
 185.333 -0.333334 142.333 -27.8333 119 -59.5 c 128
 95.6667 -91.1667 84 -124 84 -158 c 0
 84 -171.333 88 -187 96 -205 c 0
 111.333 -239 135 -263.667 167 -279 c 1
 219 -305 281 -317.667 353 -317 c 2
 381 -317 l 2
 427.667 -317 467 -304.667 499 -280 c 1
 529.667 -254 544.667 -219.667 544 -177 c 128
 543.333 -134.333 520.667 -99.6667 476 -73 c 1
 443.333 -54.3333 411.666 -39.5 381 -28.5 c 128
 350.333 -17.5 331 -10.5 323 -7.5 c 128
 315 -4.5 303.333 0.333333 288 7 c 2
 248 23 l 1
235 205 m 0
 235 197.667 241 192 253 188 c 2
 300 170 l 2
 428 121.333 496.333 95 505 91 c 0
 595.667 51 656.667 2 688 -56 c 1
 702 -78.6667 709 -105.667 709 -137 c 0
 709 -139 708 -150 706 -170 c 1
 694 -231.333 651.167 -282.167 577.5 -322.5 c 128
 503.833 -362.833 422 -384.667 332 -388 c 1
 308 -388 l 2
 251.333 -388 197.833 -381.833 147.5 -369.5 c 128
 97.1666 -357.167 59.1666 -344.333 33.5 -331 c 128
 7.83333 -317.667 -16.6667 -297.834 -40 -271.5 c 128
 -63.3333 -245.167 -75 -212.333 -75 -173 c 128
 -75 -133.667 -63 -100.167 -39 -72.5 c 128
 -15 -44.8333 25 -18 81 8 c 0
 90.3333 13.3333 123 27 179 49 c 1
 140.333 67 116.167 82.3333 106.5 95 c 128
 96.8333 107.667 92 119.5 92 130.5 c 128
 92 141.5 92.8333 150.5 94.5 157.5 c 128
 96.1667 164.5 103.5 177.5 116.5 196.5 c 128
 129.5 215.5 147.333 235 170 255 c 128
 192.667 275 211 290 225 300 c 1
 210.333 308 194.667 320 178 336 c 1
 133.333 384 109.333 443.667 106 515 c 1
 106 525 l 2
 106 572.333 116.167 620.667 136.5 670 c 128
 156.833 719.333 184.667 763.333 220 802 c 1
 278.667 864 340 895 404 895 c 128
 468 895 519 871.333 557 824 c 1
 617 872 668.667 895.667 712 895 c 1
 731 893 l 1
 750.333 889.667 766.167 880.5 778.5 865.5 c 128
 790.833 850.5 797 834.333 797 817 c 2
 797 812 l 1
 795.667 810 795.333 808 796 806 c 0
 789.333 764.667 763.333 730 718 702 c 1
 680.665 734 654.332 755.167 639 765.5 c 128
 623.667 775.833 605.667 781 585 781 c 1
 607.671 735.667 619.338 683 620 623 c 0
 620 531 590 451.667 530 385 c 0
 506.667 360.333 478.667 338 446 318 c 0
 398 290 352.667 276.333 310 277 c 0
 296 277 288 277.667 286 279 c 1
 262 259 245.667 237.333 237 214 c 1
 237 211 l 1
 235.667 209 235 207 235 205 c 0
282 754 m 1
 259.333 704 247.667 650.333 247 593 c 128
 246.333 535.666 247.667 495.166 251 471.5 c 128
 254.333 447.833 262.333 424.333 275 401 c 1
 297 366.333 319.667 349 343 349 c 128
 366.333 349 389 356.667 411 372 c 1
 462.333 416 488 487 488 585 c 0
 488 623 482.333 661 471 699 c 0
 448.333 779 412 818.667 362 818 c 0
 342.667 818 326.333 812 313 800 c 128
 299.667 788 289.333 772.667 282 754 c 1
EndSplineSet
EndChar

StartChar: uni0068
Encoding: 104 104 75
Width: 883
VWidth: 1655
GlyphClass: 2
Flags: HMW
LayerCount: 2
Fore
SplineSet
178 1142 m 1
 42 1170 l 1
 52 1243 l 1
 339 1266 l 1
 355 1245 l 1
 293 825 l 1
 230 564 l 1
 242 561 l 1
 272.667 653 317.167 730.833 375.5 794.5 c 128
 433.833 858.167 489.333 890 542 890 c 128
 594.668 890 634.335 876.333 661 849 c 128
 687.667 821.665 701 785.832 701 741.5 c 128
 701 697.167 698.333 652.667 693 608 c 2
 648 256 l 2
 644.667 226.666 643 202.333 643 183 c 0
 643 143 654.333 123 677 123 c 128
 699.669 123 726.836 134.333 758.5 157 c 128
 790.167 179.667 816 209.333 836 246 c 1
 877 217 l 1
 846.333 137 807.167 77 759.5 37 c 128
 711.833 -3 650.667 -23 576 -23 c 0
 510.667 -23 478.333 19 479 103 c 0
 479 138.333 485.667 203.333 499 298 c 1
 520 481 l 2
 529.333 557 534.333 609.167 535 637.5 c 128
 535.667 665.833 532 686 524 698 c 128
 516 710 502.333 716 483 716 c 0
 431 716 384.5 687.667 343.5 631 c 128
 302.5 574.333 267 479.333 237 346 c 1
 233.667 210 218.5 114.5 191.5 59.5 c 128
 164.5 4.5 123 -23 67 -23 c 0
 65.6667 -23 51 -21.6667 23 -19 c 1
 8 8 l 1
 88 434 l 1
 178 1142 l 1
EndSplineSet
EndChar

StartChar: uni0069
Encoding: 105 105 76
Width: 585
VWidth: 1655
GlyphClass: 2
Flags: HMW
LayerCount: 2
Fore
SplineSet
411.5 1278 m 128
 428.5 1258 437 1232.83 437 1202.5 c 128
 437 1172.17 425.833 1144.33 403.5 1119 c 128
 381.167 1093.67 356 1081 328 1081 c 128
 300 1081 277.833 1090.17 261.5 1108.5 c 128
 245.167 1126.84 237 1150.67 237 1180 c 128
 237 1209.33 248.333 1238 271 1266 c 128
 293.667 1294 318.5 1308 345.5 1308 c 128
 372.5 1308 394.5 1298 411.5 1278 c 128
348 254 m 1
 344.667 224.666 343 200.333 343 181 c 0
 343 142.333 354.333 123 377 123 c 128
 399.667 123 427 134.333 459 157 c 128
 491 179.667 517 209.333 537 246 c 1
 579 217 l 1
 519 57 423 -23 291 -23 c 0
 249.667 -23 220.5 -10.3333 203.5 15 c 128
 186.5 40.3333 178 71.5 178 108.5 c 128
 178 145.5 182.333 208 191 296 c 1
 227 611 l 2
 229 634.333 230 656 230 676 c 0
 230 728 218.167 754 194.5 754 c 128
 170.833 754 124.667 702.333 56 599 c 1
 8 631 l 1
 37.3333 707 79.8333 771.833 135.5 825.5 c 128
 191.167 879.167 246.667 906 302 906 c 0
 364 906 394.333 859.333 393 766 c 0
 393 758 387.333 692.333 376 569 c 1
 348 254 l 1
EndSplineSet
EndChar

StartChar: uni006A
Encoding: 106 106 77
Width: 591
VWidth: 1655
GlyphClass: 2
Flags: HMW
LayerCount: 2
Fore
SplineSet
-13 -132 m 1
 53 -196 119.333 -228 186 -228 c 0
 208.667 -228 225.667 -224.667 237 -218 c 1
 261.667 -207.333 276.167 -182.333 280.5 -143 c 128
 284.833 -103.667 297 21.3333 317 232 c 1
 353 634 l 2
 353.667 643.333 354 659 354 681 c 0
 354 727.667 346.667 750.667 332 750 c 1
 330.667 751.333 325.667 752 317 752 c 0
 305 752 289.333 742 270 722 c 1
 227 667 l 1
 201 629 185.667 605 181 595 c 1
 130 631 l 1
 140 658.333 154.333 686.667 173 716 c 0
 216.333 785.333 268 839 328 877 c 1
 358 894.333 377.833 904 387.5 906 c 128
 397.167 908 410.167 909 426.5 909 c 128
 442.833 909 459.333 903.667 476 893 c 0
 506.667 873 521.333 835.333 520 780 c 2
 520 765 l 2
 520 740.333 516.667 692.333 510 621 c 1
 471 160 l 2
 462.333 59.3333 449.5 -22.5 432.5 -85.5 c 128
 415.5 -148.5 393.333 -196.833 366 -230.5 c 128
 338.667 -264.167 310.667 -291.667 282 -313 c 1
 213.333 -358.333 147.333 -381 84 -381 c 2
 73 -381 l 1
 2.33333 -375 -43 -346.667 -63 -296 c 1
 -68.3333 -280 -71.3333 -265.667 -72 -253 c 2
 -72 -242 l 1
 -70.6667 -226 -64.6667 -207.667 -54 -187 c 128
 -43.3333 -166.333 -29.6667 -148 -13 -132 c 1
539 1291 m 128
 554.333 1279.67 565.833 1265.67 573.5 1249 c 128
 581.167 1232.33 585 1215.5 585 1198.5 c 128
 585 1181.5 579.833 1162.5 569.5 1141.5 c 128
 559.167 1120.5 544.5 1103.5 525.5 1090.5 c 128
 506.5 1077.5 487 1071 467 1071 c 0
 426.333 1071 399 1087.33 385 1120 c 0
 376.333 1140.67 372 1159.33 372 1176 c 128
 372 1192.67 377.667 1212.33 389 1235 c 128
 400.334 1257.67 416.167 1275.5 436.5 1288.5 c 128
 456.834 1301.5 475.168 1308 491.5 1308 c 128
 507.833 1308 523.667 1302.33 539 1291 c 128
EndSplineSet
EndChar

StartChar: uni006B
Encoding: 107 107 78
Width: 797
VWidth: 1655
GlyphClass: 2
Flags: HMW
LayerCount: 2
Fore
SplineSet
298 411 m 1
 458.667 438.333 538.667 515 538 641 c 0
 538 695 517.667 721.667 477 721 c 0
 426.333 721 381.833 692.667 343.5 636 c 128
 305.167 579.333 270.667 482.667 240 346 c 1
 236.667 212.667 223.167 117.333 199.5 60 c 128
 175.833 2.66667 137.333 -26 84 -26 c 0
 66.6667 -26 43.3333 -21.6667 14 -13 c 1
 8 0 l 1
 91 440 l 1
 181 1142 l 1
 46 1170 l 1
 56 1243 l 1
 343 1266 l 1
 359 1245 l 1
 298 832 l 1
 233 571 l 1
 246 566 l 1
 276.667 658.667 321.167 737 379.5 801 c 128
 437.833 865 493.333 897 546 897 c 128
 598.667 897 638.167 883.167 664.5 855.5 c 128
 690.833 827.833 704 791.5 704 746.5 c 128
 704 701.5 696.667 659.833 682 621.5 c 128
 667.333 583.166 647.667 549.332 623 520 c 0
 573.667 462 516 420.333 450 395 c 1
 493 282 l 2
 533.667 176.667 569 123.667 599 123 c 0
 651.667 123 701.334 164 748 246 c 1
 790 216 l 1
 767.333 147.333 733.333 92 688 50 c 128
 642.667 8 590.667 -13 532 -13 c 0
 493.333 -13 460.333 5.5 433 42.5 c 128
 405.667 79.5 378.333 136 351 212 c 2
 287 395 l 1
 298 411 l 1
EndSplineSet
EndChar

StartChar: uni006C
Encoding: 108 108 79
Width: 440
VWidth: 1655
GlyphClass: 2
Flags: HMW
LayerCount: 2
Fore
SplineSet
116 885 m 1
 144 1142 l 1
 8 1170 l 1
 19 1243 l 1
 298 1266 l 1
 313 1245 l 1
 240 623 l 1
 200 253 l 2
 198 229.667 197 208 197 188 c 0
 197 143.333 208.333 121 231 121 c 128
 253.667 121 280.833 132.667 312.5 156 c 128
 344.167 179.333 370.667 209.333 392 246 c 1
 434 216 l 1
 374 56 272.333 -24 129 -24 c 0
 60.3333 -24 26 24 26 120 c 0
 26 158 31.3333 216.333 42 295 c 1
 116 885 l 1
EndSplineSet
EndChar

StartChar: uni006D
Encoding: 109 109 80
Width: 1406
VWidth: 1655
GlyphClass: 2
Flags: HMW
LayerCount: 2
Fore
SplineSet
786 618 m 1
 796 613 l 1
 868.668 797.667 960.334 890 1071 890 c 0
 1116.33 890 1152.5 875.833 1179.5 847.5 c 128
 1206.5 819.167 1220 778.667 1220 726 c 128
 1220 673.333 1217.67 633 1213 605 c 1
 1170 253 l 2
 1166.67 223.667 1164.67 199 1164 179 c 0
 1164 139 1175.5 119.167 1198.5 119.5 c 128
 1221.5 119.833 1249 131.333 1281 154 c 128
 1313 176.667 1339 206 1359 242 c 1
 1401 214 l 1
 1341 54 1239.67 -26 1097 -26 c 0
 1031.67 -26 999 15.6667 999 99 c 0
 999 130.333 1006 195 1020 293 c 1
 1043 477 l 2
 1052.33 553 1057.33 604.333 1058 631 c 0
 1058 687 1039.67 715.333 1003 716 c 0
 951.667 716 906.5 687.5 867.5 630.5 c 128
 828.5 573.5 794 477.667 764 343 c 1
 760.667 206.333 746.667 109.5 722 52.5 c 128
 697.333 -4.5 656.333 -33 599 -33 c 0
 597 -33 583 -32 557 -30 c 1
 541 -2 l 1
 620 378 l 1
 636 486 644 563 644 609 c 128
 644 655 639.333 683.667 630 695 c 128
 620.667 706.333 605.667 712 585 712 c 0
 536.333 712 492.667 684.167 454 628.5 c 128
 415.333 572.833 380.333 478 349 344 c 1
 345.667 207.333 331.167 112 305.5 58 c 128
 279.833 4 238.333 -23 181 -23 c 0
 179.667 -23 165 -21.6667 137 -19 c 1
 123 8 l 1
 205 378 l 1
 227 611 l 2
 229 639 230 664 230 686 c 0
 230 736 217.667 760.667 193 760 c 0
 180.333 760 159.5 743.333 130.5 710 c 128
 101.5 676.667 76.6667 641.667 56 605 c 1
 8 641 l 1
 35.3333 713.667 77.1667 777.167 133.5 831.5 c 128
 189.833 885.833 248 913 308 913 c 0
 360 913 385.667 879 385 811 c 0
 385 780.333 380.667 744.667 372 704 c 0
 362.667 663.333 356.667 634 354 616 c 0
 348 584 344.667 566 344 562 c 1
 355 560 l 1
 385 651.333 429.667 728.833 489 792.5 c 128
 548.333 856.167 604.333 888 657 888 c 128
 709.667 888 747 878 769 858 c 128
 791 838 802 800.667 802 746 c 128
 802 691.333 796.667 648.667 786 618 c 1
EndSplineSet
EndChar

StartChar: uni006E
Encoding: 110 110 81
Width: 999
VWidth: 1655
GlyphClass: 2
Flags: HMW
LayerCount: 2
Fore
SplineSet
349 344 m 1
 345.667 207.333 331.167 111.167 305.5 55.5 c 128
 279.833 -0.166668 237.667 -28 179 -28 c 0
 177 -28 163 -26.6667 137 -24 c 1
 123 3 l 1
 205 388 l 1
 227 620 l 2
 229 648 230 673.333 230 696 c 0
 230 744.667 217.667 768.667 193 768 c 0
 180.333 768 159.5 751.5 130.5 718.5 c 128
 101.5 685.5 76.6667 650.333 56 613 c 1
 8 651 l 1
 35.3333 723.667 77.1667 787.167 133.5 841.5 c 128
 189.833 895.833 248 923 308 923 c 0
 360 923 385.667 888 385 818 c 0
 385 788 380.667 753 372 713 c 0
 362.667 672.333 356.667 643.667 354 627 c 0
 346.667 591.667 343.333 573.667 344 573 c 1
 355 567 l 1
 385 658.333 429.667 736.167 489 800.5 c 128
 548.333 864.833 604.333 897 657 897 c 128
 709.667 897 749.167 883.5 775.5 856.5 c 128
 801.833 829.5 815 794.167 815 750.5 c 128
 815 706.833 812 661.667 806 615 c 1
 762 253 l 2
 758.667 223.667 757 199.667 757 181 c 0
 757 141 768.333 121 791 121 c 128
 813.667 121 841 132.667 873 156 c 128
 905 179.333 931 209.333 951 246 c 1
 994 216 l 1
 934 56 832.667 -24 690 -24 c 0
 624.667 -24 592 17.6667 592 101 c 0
 592 111.667 599 176.333 613 295 c 2
 636 488 l 2
 645.333 571.333 650.333 625 651 649 c 0
 651 697.667 632.333 721.667 595 721 c 0
 489.667 721 407.667 595.333 349 344 c 1
EndSplineSet
EndChar

StartChar: uni006F
Encoding: 111 111 82
Width: 673
VWidth: 1655
GlyphClass: 2
Flags: HMW
LayerCount: 2
Fore
SplineSet
79.5 79.5 m 128
 31.8333 149.833 8 236.833 8 340.5 c 128
 8 444.167 25.5 537.333 60.5 620 c 128
 95.5 702.667 143.333 769.167 204 819.5 c 128
 264.667 869.833 331.667 895 405 895 c 128
 478.334 895 540.334 861.333 591 794 c 128
 641.667 726.667 667 644 667 546 c 128
 667 448 651.667 357.167 621 273.5 c 128
 590.333 189.833 544.833 119 484.5 61 c 128
 424.167 3 353.5 -26 272.5 -26 c 128
 191.5 -26 127.167 9.16667 79.5 79.5 c 128
230 733 m 0
 176 672.333 149 581.333 149 460 c 0
 149 325.333 179.667 220.667 241 146 c 0
 271 108.667 304.5 90.1666 341.5 90.5 c 128
 378.5 90.8333 411.333 107 440 139 c 0
 496 204.333 524 299.333 524 424 c 0
 524 557.333 494.333 659.333 435 730 c 0
 405 765.333 371 783.167 333 783.5 c 128
 295 783.833 260.667 767 230 733 c 0
EndSplineSet
EndChar

StartChar: uni0070
Encoding: 112 112 83
Width: 896
VWidth: 1655
GlyphClass: 2
Flags: HMW
LayerCount: 2
Fore
SplineSet
225 205 m 1
 272 602 l 2
 276.667 640.667 279 667 279 681 c 0
 279 729.667 266 754 240 754 c 0
 228 754 207.333 737 178 703 c 128
 148.667 669 123.667 633 103 595 c 1
 57 632 l 1
 84.3333 708 125.667 774.167 181 830.5 c 128
 236.333 886.833 293.667 915 353 915 c 0
 407 915 434 879.667 434 809 c 0
 434 777.667 427.833 732.167 415.5 672.5 c 128
 403.167 612.833 396.167 578.667 394.5 570 c 128
 392.833 561.333 392 556.333 392 555 c 1
 402 553 l 1
 438.667 647 482.667 724.5 534 785.5 c 128
 585.333 846.5 638.833 877 694.5 877 c 128
 750.167 877 796.667 846.167 834 784.5 c 128
 871.333 722.833 890 641.333 890 540 c 128
 890 438.667 875.333 349.833 846 273.5 c 128
 816.667 197.167 776 139 724 99 c 0
 626.667 23 518 -15.3333 398 -16 c 2
 395 -16 l 1
 388 58 l 1
 429.334 62.6667 462.167 68.5 486.5 75.5 c 128
 510.833 82.5 539 95.6667 571 115 c 128
 603 134.333 628.667 159.333 648 190 c 0
 693.333 263.333 716 374.667 716 524 c 0
 716 592.668 709.333 642.335 696 673 c 128
 682.667 703.667 661 719 631 719 c 0
 579 719 527.167 670 475.5 572 c 128
 423.833 474 387 341.333 365 174 c 1
 302 -275 l 1
 486 -296 l 1
 468 -367 l 1
 8 -367 l 1
 30 -296 l 1
 158 -256 l 1
 225 205 l 1
EndSplineSet
EndChar

StartChar: uni0071
Encoding: 113 113 84
Width: 708
VWidth: 1655
GlyphClass: 2
Flags: HMW
LayerCount: 2
Fore
SplineSet
408 80 m 1
 386 53.3333 352.833 29 308.5 7 c 128
 264.167 -15 217.833 -26 169.5 -26 c 128
 121.167 -26 82.1666 -2.5 52.5 44.5 c 128
 22.8333 91.5 8 157.667 8 243 c 128
 8 328.333 26.6667 423.333 64 528 c 128
 101.333 632.667 152.167 720.334 216.5 791 c 128
 280.833 861.667 349 897 421 897 c 0
 469.667 897 506 874.667 530 830 c 1
 540 830 l 1
 550 923 l 1
 576 923 l 1
 690 890 l 1
 546 -275 l 1
 702 -290 l 1
 686 -360 l 1
 197 -360 l 1
 216 -287 l 1
 395 -246 l 1
 477 317 l 1
 514 675 l 1
 500.667 698.333 479.667 721 451 743 c 128
 422.333 765 392.666 776 362 776 c 128
 331.333 776 302.166 761.5 274.5 732.5 c 128
 246.833 703.5 225.667 663.667 211 613 c 0
 183 518.333 168.667 415.667 168 305 c 0
 168 247.667 176.333 199 193 159 c 128
 209.667 119 235.833 99 271.5 99 c 128
 307.167 99 347.667 107.667 393 125 c 1
 408 80 l 1
EndSplineSet
EndChar

StartChar: uni0072
Encoding: 114 114 85
Width: 741
VWidth: 1655
GlyphClass: 2
Flags: HMW
LayerCount: 2
Fore
SplineSet
352.5 360.5 m 128
 345.5 325.5 340.333 281.833 337 229.5 c 128
 333.667 177.167 329.667 136 325 106 c 1
 310.333 48 289.666 10.3333 263 -7 c 1
 243.666 -21 227.833 -29 215.5 -31 c 128
 203.167 -33 190.667 -34 178 -34 c 128
 165.333 -34 151.667 -30.6667 137 -24 c 1
 123 3 l 1
 205 388 l 1
 227 595 l 1
 229 623 230 649 230 673 c 128
 230 697 229.167 711.833 227.5 717.5 c 128
 225.833 723.178 222.333 728.844 217 734.5 c 128
 211.667 740.178 205.667 743.345 199 744 c 0
 190.333 746 179.5 742.667 166.5 734 c 128
 153.5 725.333 131.667 700.667 101 660 c 1
 75 622 60 598.333 56 589 c 1
 8 625 l 1
 40.6667 715 97.3333 791.667 178 855 c 1
 204 872.333 224.667 884 240 890 c 1
 287 899 l 1
 335 899 366.333 877.333 381 834 c 0
 385.667 821.333 388 805 388 785 c 2
 388 768 l 1
 386 742.667 382.667 717.667 378 693 c 2
 348 546 l 1
 360 543 l 1
 376 598.333 399.5 653.333 430.5 708 c 128
 461.5 762.667 492.667 803 524 829 c 1
 558 853.667 588.667 866 616 866 c 2
 627 866 l 1
 657.667 864 682.667 851.667 702 829 c 0
 721.333 807 732 778.667 734 744 c 1
 734 733 l 2
 734 686.333 718.667 645.667 688 611 c 0
 673.333 594.333 653.333 581 628 571 c 1
 608 607 l 1
 596.667 632.333 583.5 650.667 568.5 662 c 128
 553.5 673.333 540.833 679 530.5 679 c 128
 520.167 679 509.667 675.667 499 669 c 0
 479 655.667 461 633 445 601 c 128
 429 569 411.333 529.667 392 483 c 128
 372.667 436.333 359.5 395.5 352.5 360.5 c 128
EndSplineSet
EndChar

StartChar: uni0073
Encoding: 115 115 86
Width: 593
VWidth: 1655
GlyphClass: 2
Flags: HMW
LayerCount: 2
Fore
SplineSet
308 339 m 1
 221.333 409.667 165.5 465.333 140.5 506 c 128
 115.5 546.667 103 584.667 103 620 c 0
 103 696.667 132.667 762 192 816 c 128
 251.333 870 320 897 398 897 c 0
 453.333 897 498.333 885.667 533 863 c 128
 567.667 840.333 585 811 585 775 c 0
 585 717 553 674.667 489 648 c 1
 463 700 435.167 739.333 405.5 766 c 128
 375.833 792.667 349.333 806 326 806 c 128
 302.667 806 280.833 796.333 260.5 777 c 128
 240.167 757.667 230 734 230 706 c 0
 230 661.333 269.667 605 349 537 c 0
 356 531 356 531 377 513 c 128
 391 501 401 492.333 407 487 c 128
 413 481.667 422 473.5 434 462.5 c 128
 446 451.5 455.5 442.333 462.5 435 c 128
 469.5 427.667 478 418.667 488 408 c 0
 542 348.667 568.667 292.5 568 239.5 c 128
 567.333 186.5 551 139.5 519 98.5 c 128
 487 57.5 444.167 25 390.5 1 c 128
 336.833 -23 280 -35 220 -35 c 128
 160 -35 109.667 -21.3333 69 6 c 128
 28.3333 33.3333 8 64.3333 8 99 c 128
 8 133.667 18.8333 163.667 40.5 189 c 128
 62.1667 214.333 89.6667 229 123 233 c 1
 137 187.667 159.667 147 191 111 c 128
 222.333 75 256.333 57 293 57 c 128
 329.667 57 360.167 67 384.5 87 c 128
 408.833 107 421 135 421 171 c 0
 419.667 219.667 382 275.667 308 339 c 1
EndSplineSet
EndChar

StartChar: uni0074
Encoding: 116 116 87
Width: 516
VWidth: 1655
GlyphClass: 2
Flags: HMW
LayerCount: 2
Fore
SplineSet
233 151 m 0
 263.667 151 291.667 166.167 317 196.5 c 128
 342.333 226.833 383.333 292.333 440 393 c 1
 489 355 l 1
 458.333 237.667 413.666 145.333 355 78 c 128
 296.333 10.6667 229.667 -23 155 -23 c 0
 112.333 -23 82.3333 -12.6667 65 8 c 128
 47.6667 28.6667 39 60.3333 39 103 c 0
 39 145 46.3333 228.667 61 354 c 1
 120 766 l 1
 8 759 l 1
 33 864 l 1
 130 855 l 1
 150 1062 l 1
 302 1081 l 1
 313 1068 l 1
 280 855 l 1
 512 871 l 1
 486 754 l 1
 269 766 l 1
 225 392 l 1
 213 280 207 215 207 197 c 128
 207 179 209 166.833 213 160.5 c 128
 217 154.167 223.667 151 233 151 c 0
EndSplineSet
EndChar

StartChar: uni0075
Encoding: 117 117 88
Width: 976
VWidth: 1655
GlyphClass: 2
Flags: HMW
LayerCount: 2
Fore
SplineSet
620 527 m 1
 622 667.667 634.333 764.834 657 818.5 c 128
 679.668 872.167 719.335 899 776 899 c 0
 791.333 899 805.333 897.667 818 895 c 1
 834 867 l 1
 764 484 l 1
 747 284 l 2
 742.333 233.333 740.167 197.833 740.5 177.5 c 128
 740.833 157.167 743.833 143 749.5 135 c 128
 755.17 127 765.836 123 781.5 123 c 128
 797.167 123 820.667 138.5 852 169.5 c 128
 883.333 200.5 908.667 234 928 270 c 1
 969 242 l 1
 917 64 818.667 -24.6667 674 -24 c 0
 615.333 -24 585.667 16.6667 585 98 c 0
 585 139.333 594.333 194.333 613 263 c 1
 602 265 l 1
 568.666 173.667 527.333 102.333 478 51 c 128
 428.667 -0.333332 377.333 -26 324 -26 c 128
 270.667 -26 230.833 -12.1667 204.5 15.5 c 128
 178.167 43.1667 165 81.1667 165 129.5 c 128
 165 177.833 168 220 174 256 c 1
 227 602 l 1
 231.667 636.669 233.667 661.336 233 676 c 0
 233 716.669 221.667 737.336 199 738 c 0
 167.667 738 120 689.333 56 592 c 1
 8 623 l 1
 37.3333 699 79.8333 764 135.5 818 c 128
 191.167 872 246.667 899 302 899 c 0
 366 899 397.667 856 397 770 c 0
 397 739.333 388.667 669.667 372 561 c 1
 344 385 l 2
 335.331 331.667 331.164 284.833 331.5 244.5 c 128
 331.833 204.167 335.833 178.333 343.5 167 c 128
 351.167 155.667 365 150 385 150 c 0
 433 150 476.333 179 515 237 c 1
 554.333 295.667 589.333 392.333 620 527 c 1
EndSplineSet
EndChar

StartChar: uni0076
Encoding: 118 118 89
Width: 801
VWidth: 1655
GlyphClass: 2
Flags: HMW
LayerCount: 2
Fore
SplineSet
354 400 m 1
 350.667 367.333 349 326.833 349 278.5 c 128
 349 230.167 358.833 186.833 378.5 148.5 c 128
 398.167 110.167 427.167 91 465.5 91 c 128
 503.833 91 540 114.5 574 161.5 c 128
 608 208.5 633.167 267.333 649.5 338 c 128
 665.833 408.667 674 477.667 674 545 c 0
 674 667.667 632 767.667 548 845 c 1
 578.667 879 615.667 895.833 659 895.5 c 128
 702.333 895.167 736 875.167 760 835.5 c 128
 784 795.833 796 746.667 796 688 c 0
 796 576 779.333 466.833 746 360.5 c 128
 712.667 254.167 663.667 164 599 90 c 128
 534.333 16 460.667 -21 378 -21 c 0
 252 -21 189 70.3333 189 253 c 0
 189 277 191 309 195 349 c 1
 227 592 l 1
 230.333 622.668 232 648.335 232 669 c 0
 232 713.667 221.5 735.667 200.5 735 c 128
 179.5 734.333 136 689 70 599 c 0
 63.3333 591 58.6667 584.333 56 579 c 1
 8 611 l 1
 38.6667 686.333 83 751.167 141 805.5 c 128
 199 859.833 255.333 887 310 887 c 0
 364.667 887.667 392 840 392 744 c 0
 392 718.667 383 631 365 481 c 1
 354 400 l 1
EndSplineSet
EndChar

StartChar: uni0077
Encoding: 119 119 90
Width: 1149
VWidth: 1655
GlyphClass: 2
Flags: HMW
LayerCount: 2
Fore
SplineSet
221 618 m 1
 233 672.667 239.167 710 239.5 730 c 128
 239.833 750 232.333 760 217 760 c 0
 194.333 760 138.333 709 49 607 c 1
 8 637 l 1
 50 713 103.667 778 169 832 c 128
 234.333 886 294.333 913 349 913 c 0
 399 913 424 886 424 832 c 0
 424 794 414.5 743 395.5 679 c 128
 376.5 615 366.333 580.667 365 576 c 2
 317 385 l 2
 305 339 299.333 293.667 300 249 c 0
 300 161 333.667 116.667 401 116 c 0
 451 116 492.833 142.5 526.5 195.5 c 128
 560.167 248.5 584.334 344.667 599 484 c 1
 597 524.667 595.667 576.334 595 639 c 0
 595 771.667 639 838 727 838 c 0
 743 838 759 837 775 835 c 1
 786 817 l 1
 727 456 l 1
 731 284 l 2
 732.333 229.333 743 186 763 154 c 128
 783 122 806 106 832 106 c 0
 869.333 106 902.333 128.333 931 173 c 0
 990.333 260.333 1020 380.667 1020 534 c 0
 1020 590.667 1010.17 648 990.5 706 c 128
 970.833 764 947.333 814.667 920 858 c 1
 956.669 886 992.335 900 1027 900 c 128
 1061.67 900 1089.5 879.167 1110.5 837.5 c 128
 1131.5 795.833 1142 742 1142 676 c 128
 1142 610 1132.83 535.167 1114.5 451.5 c 128
 1096.17 367.833 1070.17 289.5 1036.5 216.5 c 128
 1002.83 143.5 959.167 85.1667 905.5 41.5 c 128
 851.833 -2.16667 793.667 -24 731 -24 c 0
 637 -24 590 40 590 168 c 0
 590 173.333 590.667 177.667 592 181 c 1
 592 193 l 1
 579 195 l 1
 556.333 125.667 520.167 71.5 470.5 32.5 c 128
 420.833 -6.5 363.333 -26 298 -26 c 0
 190 -26 136 42 136 178 c 0
 136 224.667 143.333 282.333 158 351 c 1
 221 618 l 1
EndSplineSet
EndChar

StartChar: uni0078
Encoding: 120 120 91
Width: 869
VWidth: 1655
GlyphClass: 2
Flags: HMW
LayerCount: 2
Fore
SplineSet
444 130 m 1
 400 302 l 1
 298.667 80 201.667 -32 109 -34 c 0
 75.6667 -34 50.5 -24 33.5 -4 c 128
 16.5 16 8 40.6667 8 70 c 0
 8 127.333 24 169.667 56 197 c 1
 85.3334 171 119.333 158 158 158 c 0
 230.667 158 299.667 239 365 401 c 1
 353 439 340 484.333 326 537 c 0
 299.333 633.667 280.166 690.167 268.5 706.5 c 128
 256.833 722.833 244.667 731 232 731 c 0
 210 731 174.333 684.667 125 592 c 1
 78 629 l 1
 140 797.667 223.333 882 328 882 c 0
 362.667 882 391 860.667 413 818 c 0
 429 787.333 445.667 739.667 463 675 c 0
 479.667 609.667 489.333 572 492 562 c 1
 536 652.667 582.333 726.834 631 784.5 c 128
 679.667 842.167 721.334 871 756 871 c 128
 790.668 871 817.335 862.833 836 846.5 c 128
 854.667 830.167 864 810 864 786 c 0
 864 732.667 848.667 689.667 818 657 c 1
 798.667 674.333 765.667 683 719 683 c 0
 647.666 683 581.333 613.333 520 474 c 1
 610 188 l 1
 626 138 643 113 661 113 c 128
 679 113 699.833 123.833 723.5 145.5 c 128
 747.167 167.167 770 197.667 792 237 c 1
 835 207 l 1
 778.333 53.6667 691.333 -23 574 -23 c 0
 518 -23 474.667 28 444 130 c 1
EndSplineSet
EndChar

StartChar: uni0079
Encoding: 121 121 92
Width: 836
VWidth: 1655
GlyphClass: 2
Flags: HMW
LayerCount: 2
Fore
SplineSet
57 592 m 1
 8 629 l 1
 32.6667 700.333 70.8333 763.667 122.5 819 c 128
 174.167 874.333 224.167 902 272.5 902 c 128
 320.833 902 357.333 885.333 382 852 c 128
 406.667 818.667 424 765.667 434 693 c 2
 495 205 l 1
 500 162 l 1
 509 162 l 1
 585 276 630.5 353.5 645.5 394.5 c 128
 660.5 435.5 669.333 467.5 672 490.5 c 128
 674.667 513.5 676 545 676 585 c 128
 676 625 662.333 671.167 635 723.5 c 128
 607.666 775.833 576.332 817.333 541 848 c 1
 553.667 864 572.167 877.667 596.5 889 c 128
 620.833 900.333 644.333 906 667 906 c 0
 711.668 906 750.335 886 783 846 c 128
 815.667 806 832 759.667 832 707 c 0
 832 616.333 807.5 523.5 758.5 428.5 c 128
 709.5 333.5 623 206 499 46 c 1
 490.333 -32.6667 469.5 -104.667 436.5 -170 c 128
 403.5 -235.333 362 -286.833 312 -324.5 c 128
 262 -362.167 213.167 -381 165.5 -381 c 128
 117.833 -381 80 -370.5 52 -349.5 c 128
 24 -328.5 10 -302 10 -270 c 2
 10 -265 l 1
 12.6667 -235.667 18.3333 -212.333 27 -195 c 128
 35.6667 -177.667 51.6667 -159.667 75 -141 c 1
 126.333 -189 176.667 -212.833 226 -212.5 c 128
 275.333 -212.167 311.5 -198 334.5 -170 c 128
 357.5 -142 369 -93.3333 369 -24 c 0
 369 12.6667 365.667 57 359 109 c 2
 295 610 l 2
 289.667 652 278.167 685.5 260.5 710.5 c 128
 242.833 735.5 223.833 748 203.5 748 c 128
 183.167 748 159.5 732.833 132.5 702.5 c 128
 105.5 672.165 80.3333 635.332 57 592 c 1
EndSplineSet
EndChar

StartChar: uni007A
Encoding: 122 122 93
Width: 722
VWidth: 1655
GlyphClass: 2
Flags: HMW
LayerCount: 2
Fore
SplineSet
545 858 m 1
 613.667 858 672.334 866.333 721 883 c 1
 739 855 l 1
 421 414 l 1
 221 113 l 1
 226.333 114.333 241.5 114.5 266.5 113.5 c 128
 291.5 112.5 316.667 107.167 342 97.5 c 128
 367.333 87.8333 391.333 78.3333 414 69 c 0
 437.333 60.3333 456 56 470 56 c 2
 477 56 l 2
 484.333 56 493 58.1667 503 62.5 c 128
 513 66.8333 520.333 73 525 81 c 1
 534.333 93.6667 539.167 109.5 539.5 128.5 c 128
 539.833 147.5 536.5 175.5 529.5 212.5 c 128
 522.5 249.5 515 279.667 507 303 c 1
 539 319 568 327 594 327 c 0
 595.333 327 604.667 325.5 622 322.5 c 128
 639.333 319.5 653.833 312.667 665.5 302 c 128
 677.167 291.333 685 280.333 689 269 c 128
 693 257.667 695 243.667 695 227 c 0
 695 155 664.667 93.3333 604 42 c 0
 564 8 514.333 -10.3333 455 -13 c 1
 444 -13 l 1
 440.667 -14.3333 432.667 -14.8333 420 -14.5 c 128
 407.333 -14.1667 371.666 -10 313 -2 c 0
 237 10 177.333 16 134 16 c 128
 90.6667 16 46 10 0 -2 c 1
 -19 26 l 1
 251 395 l 1
 509 765 l 1
 498.333 763 485.5 762 470.5 762 c 128
 455.5 762 436.5 765.833 413.5 773.5 c 128
 390.5 781.167 367 790 343 800 c 128
 319 810 298.667 815 282 815 c 0
 239.333 815 216 776.333 212 699 c 1
 212 680 l 2
 212 647.333 215 615 221 583 c 1
 205 577.667 187 574.667 167 574 c 0
 111.667 574 74 596.333 54 641 c 0
 47.3333 655.667 44 669 44 681 c 128
 44 693 44.6667 700 46 702 c 1
 54 744.668 84.3333 783.335 137 818 c 128
 189.667 852.667 245.667 872.334 305 877 c 1
 320 877 l 2
 368.667 877 423 871 483 859 c 1
 545 858 l 1
EndSplineSet
EndChar

StartChar: uni007B
Encoding: 123 123 94
Width: 647
VWidth: 1655
GlyphClass: 2
Flags: HMW
LayerCount: 2
Fore
SplineSet
448 -280 m 1
 444 -381 l 1
 339 -381 l 2
 267.667 -381 217 -361 187 -321 c 128
 157 -281 142 -220.333 142 -139 c 0
 142 -107.667 146.167 -53.1667 154.5 24.5 c 128
 162.833 102.167 167 160.333 167 199 c 0
 167 311.667 131.333 373.667 60 385 c 2
 8 393 l 1
 21 492 l 1
 72 500 l 2
 116.667 507.333 153 531.333 181 572 c 128
 209 612.667 227.667 662.333 237 721 c 0
 259.667 873.667 281.667 993.334 303 1080 c 0
 317.667 1136 345.167 1181 385.5 1215 c 128
 425.833 1249 477.333 1266 540 1266 c 2
 641 1266 l 1
 620 1164 l 1
 538 1158 l 2
 484.667 1153.33 451 1075.66 437 925 c 0
 432.327 880.333 429.16 853 427.5 843 c 128
 425.833 833 423.833 817.667 421.5 797 c 128
 419.167 776.333 417 761.333 415 752 c 128
 413 742.667 410.167 729.167 406.5 711.5 c 128
 402.827 693.833 399.161 679.667 395.5 669 c 128
 391.833 658.333 387 645.333 381 630 c 0
 346.333 532 288.333 471.333 207 448 c 1
 205 442 l 1
 293 414.667 337.333 331 338 191 c 0
 338 155 333.333 95 324 11 c 128
 314.667 -73 310 -129.333 310 -158 c 0
 310 -232 331.333 -271 374 -275 c 2
 448 -280 l 1
EndSplineSet
EndChar

StartChar: uni007C
Encoding: 124 124 95
Width: 557
VWidth: 1655
GlyphClass: 2
Flags: HMW
LayerCount: 2
Fore
SplineSet
286 -355 m 1
 173 -343 l 1
 365 1229 l 1
 477 1218 l 1
 286 -355 l 1
EndSplineSet
EndChar

StartChar: uni007D
Encoding: 125 125 96
Width: 652
VWidth: 1655
GlyphClass: 2
Flags: HMW
LayerCount: 2
Fore
SplineSet
317 686 m 2
 317 706 l 2
 317 753.333 322.167 815.833 332.5 893.5 c 128
 342.833 971.167 348 1024.33 348 1053 c 0
 348 1120.33 329.667 1155.33 293 1158 c 2
 211 1164 l 1
 216 1266 l 1
 317 1266 l 2
 387 1266 437.333 1245.5 468 1204.5 c 128
 498.667 1163.5 514 1104 514 1026 c 0
 514 985.333 509.833 926.833 501.5 850.5 c 128
 493.167 774.167 489 721.667 489 693 c 0
 489 577.666 525.667 513.333 599 500 c 2
 646 492 l 1
 634 393 l 1
 581 385 l 2
 537.667 377.667 502.5 354 475.5 314 c 128
 448.5 274 431 224.333 423 165 c 0
 399.667 11 376.667 -109 354 -195 c 0
 338.667 -251.667 310.167 -296.833 268.5 -330.5 c 128
 226.833 -364.167 174.333 -381 111 -381 c 2
 8 -381 l 1
 30 -280 l 1
 104 -275 l 1
 162.667 -270.333 200.667 -192 218 -40 c 1
 235.333 106.667 251.667 199.667 267 239 c 128
 282.334 278.334 297.667 310.667 313 336 c 0
 347.667 390 393.333 425.333 450 442 c 1
 450 448 l 1
 361.333 472.667 317 552 317 686 c 2
EndSplineSet
EndChar

StartChar: uni007E
Encoding: 126 126 97
Width: 831
VWidth: 1655
GlyphClass: 2
Flags: HMW
LayerCount: 2
Fore
SplineSet
8 416 m 1
 10 422.667 13.3333 430.667 18 440 c 0
 50 514 91 565.667 141 595 c 0
 163.667 609 187 616 211 616 c 2
 217 616 l 1
 219 614.667 221.667 614.333 225 615 c 2
 667 571 l 1
 672 571 l 2
 692.667 571 717.667 586 747 616 c 2
 762 631 l 1
 827 631 l 1
 820.333 611.667 809 588.667 793 562 c 128
 777 535.333 761.167 513.167 745.5 495.5 c 128
 729.833 477.833 710.5 462 687.5 448 c 128
 664.5 434 641.333 427 618 427 c 2
 602 427 l 1
 158 472 l 1
 153 472 l 2
 129 472 103 455 75 421 c 1
 61 402 l 1
 8 416 l 1
EndSplineSet
EndChar

StartChar: uni00A1
Encoding: 161 161 99
Width: 495
VWidth: 1655
GlyphClass: 2
Flags: HMW
LayerCount: 2
Fore
SplineSet
362 -296 m 1
 330.667 -318 294.667 -328.833 254 -328.5 c 128
 213.333 -328.168 179.833 -316.335 153.5 -293 c 128
 127.167 -269.667 110.333 -235.667 103 -191 c 1
 98.3326 -171.667 96.6659 -149 98 -123 c 0
 98 -47.6667 115.667 81 151 263 c 1
 227 623 l 1
 298 636 l 1
 287 467 l 2
 281.667 381 279 275.333 279 150 c 2
 279 88 l 1
 283.667 -60.6667 311.333 -188.667 362 -296 c 1
233.5 755 m 128
 222.5 760.333 211.833 769.5 201.5 782.5 c 128
 191.166 795.5 184.833 807.333 182.5 818 c 128
 180.167 828.673 179 836.34 179 841 c 128
 179 845.67 181.667 861.337 187 888 c 128
 192.333 914.668 206.667 939.334 230 962 c 128
 253.333 984.667 280 996 310 996 c 1
 336.667 994 357.667 985 373 969 c 128
 388.333 953 397.333 936.333 400 919 c 128
 402.667 901.667 404 892 404 890 c 128
 404 888 401.833 875.667 397.5 853 c 128
 393.167 830.333 379.667 807.5 357 784.5 c 128
 334.333 761.5 310.833 749.5 286.5 748.5 c 128
 262.167 747.5 244.5 749.667 233.5 755 c 128
EndSplineSet
EndChar

StartChar: uni00A2
Encoding: 162 162 100
Width: 602
VWidth: 1655
GlyphClass: 2
Flags: HMW
LayerCount: 2
Fore
SplineSet
377 791 m 1
 369.667 794.333 362 796 354 796 c 0
 294 796 248.333 759.5 217 686.5 c 128
 185.667 613.5 170 524.5 170 419.5 c 128
 170 314.5 180.667 237.667 202 189 c 1
 377 791 l 1
499 879 m 1
 529.667 866.333 553.334 847.167 570 821.5 c 128
 586.667 795.833 595 763.167 595 723.5 c 128
 595 683.833 584 653.5 562 632.5 c 128
 540 611.5 504.667 598 456 592 c 1
 456 602 450.667 635.667 440 693 c 1
 434.667 711.667 429.333 727 424 739 c 1
 248 129 l 1
 271.333 108.333 306.333 98.3333 353 99 c 2
 355 99 l 2
 387 99 418.833 110.5 450.5 133.5 c 128
 482.167 156.5 508.667 187.667 530 227 c 1
 566 195 l 1
 553.333 136.333 516.667 84 456 38 c 128
 395.333 -8 331.667 -31 265 -31 c 0
 247.667 -31 237 -30.6667 233 -30 c 1
 200 -146 l 1
 70 -155 l 1
 120 18 l 1
 46 78 8.66667 182.667 8 332 c 0
 8 422 25 508.333 59 591 c 128
 93 673.667 138.167 741.167 194.5 793.5 c 128
 250.833 845.833 310 877.333 372 888 c 1
 421 1057 l 1
 553 1065 l 1
 499 879 l 1
EndSplineSet
EndChar

StartChar: uni00A3
Encoding: 163 163 101
Width: 1042
VWidth: 1655
GlyphClass: 2
Flags: HMW
LayerCount: 2
Fore
SplineSet
959 877 m 1
 879 890 l 1
 861 1099 l 1
 834.333 1114.33 807.667 1122 781 1122 c 0
 701.666 1122 646.333 1092 615 1032 c 1
 581 971.333 551.667 857.333 527 690 c 1
 520 643 l 1
 739 655 l 1
 716 557 l 1
 509 543 l 1
 502 505 l 1
 474.667 309 437.333 173.333 390 98 c 1
 843 94 l 1
 1001 341 l 1
 1083 323 l 1
 1006 0 l 1
 37 0 l 1
 56 73 l 1
 221 118 l 1
 250.333 182.667 277.667 293.667 303 451 c 1
 313 537 l 1
 137 527 l 1
 163 627 l 1
 330 636 l 1
 349 770 l 1
 371.667 918 423.5 1030.67 504.5 1108 c 128
 585.5 1185.33 685.333 1224 804 1224 c 0
 894 1224 969 1211.33 1029 1186 c 1
 959 877 l 1
EndSplineSet
EndChar

StartChar: uni00A4
Encoding: 164 164 102
Width: 761
VWidth: 1655
GlyphClass: 2
Flags: HMW
LayerCount: 2
Fore
SplineSet
604 512 m 0
 604 556.667 591.667 592 567 618 c 128
 542.333 644 508 657 464 657 c 128
 420 657 382.333 641 351 609 c 0
 312.333 569.667 293 522.667 293 468 c 128
 293 413.333 304.833 373 328.5 347 c 128
 352.167 321 385.667 308 429 308 c 0
 472.333 307.334 510.333 322.667 543 354 c 0
 583.667 392.667 604 445.333 604 512 c 0
709 514 m 0
 709 442 688 382 646 334 c 1
 729 251 l 1
 632 170 l 1
 566 259 l 1
 510 227.667 459.167 212 413.5 212 c 128
 367.833 212 324 225.667 282 253 c 1
 195 165 l 1
 123 249 l 1
 214 325 l 1
 196.667 358.333 188 403.333 188 460 c 128
 188 516.667 206.667 568.334 244 615 c 1
 168 699 l 1
 261 780 l 1
 323 695 l 1
 376.334 733.667 430.667 752.667 486 752 c 0
 540.668 752 588.334 736 629 704 c 1
 718 781 l 1
 780 696 l 1
 688 623 l 1
 702 593 709 556.667 709 514 c 0
EndSplineSet
EndChar

StartChar: uni00A5
Encoding: 165 165 103
Width: 1056
VWidth: 1655
GlyphClass: 2
Flags: HMW
LayerCount: 2
Fore
SplineSet
349 484 m 1
 42 484 l 1
 65 583 l 1
 332 583 l 1
 151 1133 l 1
 23 1176 l 1
 44 1252 l 1
 509 1252 l 1
 486 1176 l 1
 348 1137 l 1
 505 641 l 1
 786 1133 l 1
 632 1176 l 1
 653 1252 l 1
 1052 1252 l 1
 1032 1176 l 1
 904 1137 l 1
 579 583 l 1
 881 583 l 1
 858 484 l 1
 540 484 l 1
 520 339 l 1
 848 339 l 1
 825 242 l 1
 510 242 l 1
 493 113 l 1
 653 78 l 1
 634 0 l 1
 129 0 l 1
 149 72 l 1
 307 120 l 1
 320 242 l 1
 8 242 l 1
 33 339 l 1
 332 339 l 1
 349 484 l 1
EndSplineSet
EndChar

StartChar: uni00A6
Encoding: 166 166 104
Width: 557
VWidth: 1655
GlyphClass: 2
Flags: HMW
LayerCount: 2
Fore
SplineSet
173 -343 m 1
 267 423 l 1
 374 411 l 1
 280 -355 l 1
 173 -343 l 1
279 529 m 1
 365 1229 l 1
 472 1218 l 1
 380 517 l 1
 279 529 l 1
EndSplineSet
EndChar

StartChar: uni00A7
Encoding: 167 167 105
Width: 877
VWidth: 1655
GlyphClass: 2
Flags: HMW
LayerCount: 2
Fore
SplineSet
790 832 m 1
 702 851 l 1
 695 1101 l 1
 663 1144.33 623.333 1170.33 576 1179 c 1
 563.333 1182.33 550 1184 536 1184 c 0
 490 1184 448.167 1169 410.5 1139 c 128
 372.833 1109 352.333 1068 349 1016 c 1
 349 1005 l 2
 349 956.333 361.667 914 387 878 c 128
 412.333 842 455.833 799.167 517.5 749.5 c 128
 579.167 699.833 628.5 657.667 665.5 623 c 128
 702.5 588.333 734.5 551.667 761.5 513 c 128
 788.5 474.333 805.333 428.667 812 376 c 1
 813.333 371.333 813.833 353.333 813.5 322 c 128
 813.167 290.667 804.667 258.333 788 225 c 1
 468 493 l 1
 363.333 577 285.333 650 234 712 c 128
 182.667 774 157 838.667 157 906 c 0
 157 910.667 157.333 914.667 158 918 c 1
 158 928 l 1
 161.333 968.667 173 1007 193 1043 c 0
 227.667 1109 278.333 1163.33 345 1206 c 128
 411.667 1248.67 482.333 1272.67 557 1278 c 1
 581 1278 l 2
 686.333 1278 777.667 1244.67 855 1178 c 1
 790 832 l 1
199 46 m 1
 179 -7.33334 169.333 -55.6667 170 -99 c 0
 170 -166.333 192.333 -213.667 237 -241 c 1
 265.667 -264.333 301.667 -276.167 345 -276.5 c 128
 388.333 -276.833 427.333 -266 462 -244 c 128
 496.667 -222 521.333 -190.667 536 -150 c 1
 544 -131.333 547.333 -110 546 -86 c 0
 546 -28.6667 525 22.3333 483 67 c 1
 471.667 80.3333 429.667 116.5 357 175.5 c 128
 284.333 234.5 224.667 291.333 178 346 c 1
 146 386 123.833 421.5 111.5 452.5 c 128
 99.1667 483.5 93 508.667 93 528 c 128
 93 547.333 93.3333 558.333 94 561 c 1
 94 574 l 1
 97.3333 606.667 106.333 640.667 121 676 c 1
 429.667 414 586 281 590 277 c 0
 639.333 232.333 676.333 190.5 701 151.5 c 128
 725.669 112.5 740.336 68.3333 745 19 c 1
 746.333 14.3333 747 4 747 -12 c 0
 747 -95.3333 715.667 -170.333 653 -237 c 0
 607 -285.667 552 -321.667 488 -345 c 128
 424 -368.333 363 -380 305 -380 c 0
 201 -380 115.667 -355.667 49 -307 c 1
 20.3333 -288.333 -3.83333 -263 -23.5 -231 c 128
 -43.1667 -199 -54.3333 -171.667 -57 -149 c 1
 -58.3333 -145.667 -58.8333 -137 -58.5 -123 c 128
 -58.1667 -109 -55.6667 -92 -51 -72 c 1
 -34.3333 -20 0.666668 17 54 39 c 1
 76.6667 49.6667 101.167 55.1667 127.5 55.5 c 128
 153.833 55.8333 177.667 52.6667 199 46 c 1
EndSplineSet
EndChar

StartChar: uni00A8
Encoding: 168 168 106
Width: 671
VWidth: 1655
GlyphClass: 2
Flags: HMW
LayerCount: 2
Fore
SplineSet
526 1490 m 128
 542.667 1475.33 551 1456.83 551 1434.5 c 128
 551 1412.17 542.667 1393.5 526 1378.5 c 128
 509.333 1363.5 489.5 1356 466.5 1356 c 128
 443.5 1356 423.833 1363.5 407.5 1378.5 c 128
 391.167 1393.5 383 1412.33 383 1435 c 128
 383 1457.67 391.167 1476.17 407.5 1490.5 c 128
 423.833 1504.83 443.5 1512 466.5 1512 c 128
 489.5 1512 509.333 1504.67 526 1490 c 128
263.5 1490 m 128
 279.833 1475.32 288 1456.66 288 1434 c 128
 288 1411.32 279.833 1392.66 263.5 1378 c 128
 247.167 1363.33 227.5 1356 204.5 1356 c 128
 181.5 1356 161.833 1363.5 145.5 1378.5 c 128
 129.167 1393.5 121 1412.33 121 1435 c 128
 121 1457.67 129.167 1476.17 145.5 1490.5 c 128
 161.833 1504.83 181.5 1512 204.5 1512 c 128
 227.5 1512 247.167 1504.67 263.5 1490 c 128
EndSplineSet
EndChar

StartChar: uni00A9
Encoding: 169 169 107
Width: 1268
VWidth: 1655
GlyphClass: 2
Flags: HMW
LayerCount: 2
Fore
SplineSet
490 421 m 128
 539.333 365.667 605 338 687 338 c 128
 769 338 839 361.333 897 408 c 1
 905.667 399.333 915 383.333 925 360 c 1
 847.667 286 753 249 641 249 c 0
 573 249 511.333 263.833 456 293.5 c 128
 400.667 323.167 356.167 366.833 322.5 424.5 c 128
 288.833 482.167 272 548.333 272 623 c 0
 272 770.333 330 886.333 446 971 c 1
 510 1015.67 586 1037.83 674 1037.5 c 128
 762 1037.17 833 1016.33 887 975 c 1
 871 780 l 1
 818 786 l 1
 796 916 l 1
 768 950.67 717.5 967.837 644.5 967.5 c 128
 571.5 967.167 515.167 940.167 475.5 886.5 c 128
 435.833 832.833 416 755.667 416 655 c 128
 416 554.333 440.667 476.333 490 421 c 128
620 -28 m 128
 532 -28 449.833 -11.3333 373.5 22 c 128
 297.167 55.3333 232.333 100.667 179 158 c 128
 125.667 215.333 83.8333 284.167 53.5 364.5 c 128
 23.1667 444.833 8 530.667 8 622 c 128
 8 713.333 24.8333 800.167 58.5 882.5 c 128
 92.1667 964.833 137.5 1035.17 194.5 1093.5 c 128
 251.5 1151.83 317.833 1198.33 393.5 1233 c 128
 469.167 1267.67 552 1285 642 1285 c 128
 732 1285 817.5 1267.5 898.5 1232.5 c 128
 979.5 1197.5 1047 1149 1101 1087 c 1
 1209 958.333 1262.67 804.333 1262 625 c 0
 1262 539 1245.17 455.833 1211.5 375.5 c 128
 1177.83 295.167 1132.83 225.667 1076.5 167 c 128
 1020.17 108.333 952 61.1667 872 25.5 c 128
 792 -10.1667 708 -28 620 -28 c 128
194.5 907.5 m 128
 150.833 823.167 129 729.667 129 627 c 128
 129 524.333 150.333 430.833 193 346.5 c 128
 235.667 262.167 294.833 196.333 370.5 149 c 128
 446.167 101.667 525.5 78 608.5 78 c 128
 691.5 78 764.667 91.5 828 118.5 c 128
 891.333 145.5 946 182.833 992 230.5 c 128
 1038 278.167 1074.5 335.333 1101.5 402 c 128
 1128.5 468.667 1142 539.667 1142 615 c 0
 1142 767 1101.33 898 1020 1008 c 0
 979.333 1063.33 924.833 1106.5 856.5 1137.5 c 128
 788.166 1168.5 710.333 1184 623 1184 c 128
 535.667 1184 453.333 1159 376 1109 c 128
 298.667 1059 238.167 991.833 194.5 907.5 c 128
EndSplineSet
EndChar

StartChar: uni00AA
Encoding: 170 170 108
Width: 395
VWidth: 1655
GlyphClass: 2
Flags: HMW
LayerCount: 2
Fore
SplineSet
88 338 m 1
 419 338 l 1
 402 282 l 1
 72 282 l 1
 88 338 l 1
315 564 m 1
 270.333 557.333 239.167 548.333 221.5 537 c 128
 203.833 525.667 193.667 509.333 191 488 c 1
 191 481 l 1
 189.667 479.667 189 478 189 476 c 0
 189 452.667 202.167 440.833 228.5 440.5 c 128
 254.833 440.167 279.667 454.333 303 483 c 1
 315 564 l 1
307 448 m 1
 307 458 l 1
 302 458 l 1
 293.333 442 277.666 428 255 416 c 128
 232.333 404 210 398 188 398 c 0
 142.667 398 120 417.333 120 456 c 0
 120 522.667 186 568 318 592 c 1
 323 618 l 1
 325 641.333 326.333 653.667 327 655 c 0
 327 699.667 309.667 721.667 275 721 c 0
 259 721 247.5 716.167 240.5 706.5 c 128
 233.5 696.833 226 676.667 218 646 c 1
 185.333 646 169.167 656.667 169.5 678 c 128
 169.833 699.333 186 718.333 218 735 c 128
 250 751.667 281.667 760 313 760 c 0
 367 760 394.333 733.333 395 680 c 0
 395 678.667 394 665 392 639 c 1
 369 497 l 1
 367.667 493.667 367 487 367 477 c 0
 367 458.333 379.333 448 404 446 c 1
 424 442 l 1
 413 408 l 1
 404.333 406.667 395.333 405 386 403 c 0
 370.667 400.321 357.833 399.154 347.5 399.5 c 128
 337.167 399.833 327.5 404 318.5 412 c 128
 309.5 420 305 427.667 305 435 c 128
 305 442.337 305.667 446.67 307 448 c 1
EndSplineSet
EndChar

StartChar: uni00AB
Encoding: 171 171 109
Width: 706
VWidth: 1655
GlyphClass: 2
Flags: HMW
LayerCount: 2
Fore
SplineSet
392 460 m 1
 709 804 l 1
 744 745 l 1
 536 451 l 1
 651 137 l 1
 589 77 l 1
 392 440 l 1
 392 460 l 1
149 460 m 1
 467 804 l 1
 502 745 l 1
 293 451 l 1
 408 137 l 1
 346 77 l 1
 149 440 l 1
 149 460 l 1
EndSplineSet
EndChar

StartChar: uni00AC
Encoding: 172 172 110
Width: 936
VWidth: 1655
GlyphClass: 2
Flags: HMW
LayerCount: 2
Fore
SplineSet
144 651 m 1
 874 651 l 1
 827 343 l 1
 720 325 l 1
 755 546 l 1
 116 546 l 1
 144 651 l 1
EndSplineSet
EndChar

StartChar: uni00AD
Encoding: 173 173 111
Width: 557
VWidth: 1655
GlyphClass: 2
Flags: HMW
LayerCount: 2
Fore
SplineSet
86 512 m 1
 486 569 l 1
 477 456 l 1
 78 398 l 1
 86 512 l 1
EndSplineSet
EndChar

StartChar: uni00AE
Encoding: 174 174 112
Width: 457
VWidth: 1655
GlyphClass: 2
Flags: HMW
LayerCount: 2
Fore
SplineSet
611 1094 m 1
 611 1085 l 2
 611 1006.33 586 942.5 536 893.5 c 128
 486 844.5 428.5 820 363.5 820 c 128
 298.5 820 249.667 836.833 217 870.5 c 128
 184.333 904.167 166.333 946 163 996 c 1
 163 1010 l 2
 163 1091.33 187.167 1157 235.5 1207 c 128
 283.833 1257 340.5 1282 405.5 1282 c 128
 470.5 1282 520.334 1264.17 555 1228.5 c 128
 589.669 1192.83 608.336 1148 611 1094 c 1
574 1090 m 1
 571.333 1138 555.833 1176.67 527.5 1206 c 128
 499.167 1235.33 457.833 1250 403.5 1250 c 128
 349.167 1250 302.333 1228.83 263 1186.5 c 128
 223.667 1144.17 204 1088 204 1018 c 2
 204 1006 l 1
 205.333 961.333 219.5 924.667 246.5 896 c 128
 273.5 867.333 314 853 368 853 c 128
 422 853 469.833 873.667 511.5 915 c 128
 553.167 956.333 574 1011.67 574 1081 c 2
 574 1090 l 1
354 1064 m 1
 388 1064 l 2
 398.667 1064 408.167 1069.5 416.5 1080.5 c 128
 424.833 1091.5 429 1104.67 429 1120 c 0
 429 1148 413 1161.67 381 1161 c 1
 367 1159 l 1
 354 1064 l 1
455 1171 m 128
 469.667 1162.33 477.333 1145.83 478 1121.5 c 128
 478.667 1097.17 458.667 1076 418 1058 c 1
 450 1005 l 1
 465.333 975 484.333 957 507 951 c 1
 500 933 l 1
 489.331 931 480.665 929.667 474 929 c 0
 447.333 929 425.333 947 408 983 c 1
 383 1039 l 1
 353 1039 l 1
 343 961 l 1
 376 951 l 1
 372 933 l 1
 259 933 l 1
 263 951 l 1
 298 959 l 1
 320 1154 l 1
 288 1159 l 1
 291 1178 l 1
 329.667 1182.67 363 1184.83 391 1184.5 c 128
 419 1184.17 440.333 1179.67 455 1171 c 128
EndSplineSet
EndChar

StartChar: uni00AF
Encoding: 175 175 113
Width: 686
VWidth: 1655
GlyphClass: 2
Flags: HMW
LayerCount: 2
Fore
SplineSet
134 1450 m 1
 566 1450 l 1
 553 1351 l 1
 121 1351 l 1
 134 1450 l 1
EndSplineSet
EndChar

StartChar: uni00B0
Encoding: 176 176 114
Width: 339
VWidth: 1655
GlyphClass: 2
Flags: HMW
LayerCount: 2
Fore
SplineSet
290.5 1243 m 128
 318.167 1213 332 1173.83 332 1125.5 c 128
 332 1077.17 316.333 1036 285 1002 c 128
 253.667 968 214 951 166 951 c 128
 118 951 79.6667 966 51 996 c 128
 22.3333 1026 8 1065.33 8 1114 c 128
 8 1162.67 24.6667 1203.83 58 1237.5 c 128
 91.3333 1271.17 131.5 1288 178.5 1288 c 128
 225.5 1288 262.833 1273 290.5 1243 c 128
102 1209.5 m 128
 87.3333 1188.5 80 1160.83 80 1126.5 c 128
 80 1092.17 88.3333 1062.33 105 1037 c 128
 121.667 1011.67 144.667 999 174 999 c 0
 232.667 999 262.333 1037 263 1113 c 0
 263 1149.67 254 1180.17 236 1204.5 c 128
 218 1228.83 194.833 1241 166.5 1241 c 128
 138.167 1241 116.667 1230.5 102 1209.5 c 128
EndSplineSet
EndChar

StartChar: uni00B1
Encoding: 177 177 115
Width: 500
VWidth: 1655
GlyphClass: 2
Flags: HMW
LayerCount: 2
Fore
SplineSet
349 411 m 1
 325 207 l 1
 217 218 l 1
 240 411 l 1
 51 411 l 1
 77 514 l 1
 253 514 l 1
 277 712 l 1
 383 699 l 1
 362 514 l 1
 548 514 l 1
 524 411 l 1
 349 411 l 1
72 165 m 1
 481 165 l 1
 456 63 l 1
 46 63 l 1
 72 165 l 1
EndSplineSet
EndChar

StartChar: uni00B2
Encoding: 178 178 116
Width: 252
VWidth: 1655
GlyphClass: 2
Flags: HMW
LayerCount: 2
Fore
SplineSet
263 1171 m 1
 238.333 1174.33 225.667 1183 225 1197 c 0
 225 1199 225.667 1200.67 227 1202 c 1
 227 1207 l 0
 229 1223 241.5 1238.33 264.5 1253 c 128
 287.5 1267.67 308.667 1275 328 1275 c 128
 347.333 1275 363.333 1269 376 1257 c 128
 388.667 1245 395 1229.33 395 1210 c 2
 395 1205 l 1
 393.667 1203 393 1200.33 393 1197 c 1
 387 1166.33 370.333 1138.33 343 1113 c 1
 333 1103 314.333 1087.33 287 1066 c 2
 242 1032 l 1
 372 1032 l 1
 357 990 l 1
 184 990 l 1
 188 1020 l 1
 287 1106 l 1
 317.667 1129.33 334 1155.33 336 1184 c 1
 337.333 1188 338 1194 338 1202 c 0
 338 1228.67 327 1242.33 305 1243 c 0
 285 1243 271 1219 263 1171 c 1
EndSplineSet
EndChar

StartChar: uni00B3
Encoding: 179 179 117
Width: 588
VWidth: 1655
GlyphClass: 2
Flags: HMW
LayerCount: 2
Fore
SplineSet
235 994 m 2
 235 963.333 246.667 948 270 948 c 0
 286.667 948 300.667 953.833 312 965.5 c 128
 323.333 977.17 329.5 988.337 330.5 999 c 128
 331.5 1009.67 332.667 1016 334 1018 c 1
 334 1024 l 2
 334 1040.67 329.333 1054.67 320 1066 c 128
 310.667 1077.33 298 1083 282 1083 c 2
 265 1083 l 1
 259.667 1081.67 253.333 1081 246 1081 c 1
 246 1109 l 1
 278.667 1115.67 303.667 1127 321 1143 c 128
 338.335 1159 347.668 1175.33 349 1192 c 0
 349 1194 349.667 1196.33 351 1199 c 1
 351 1203 l 2
 351 1229 338.833 1242.17 314.5 1242.5 c 128
 290.167 1242.83 273.667 1220.33 265 1175 c 1
 241.667 1177 230 1185 230 1199 c 0
 230 1220.33 242 1238.33 266 1253 c 128
 290 1267.67 312.5 1275 333.5 1275 c 128
 354.5 1275 371 1269.5 383 1258.5 c 128
 395 1247.5 401 1233.67 401 1217 c 2
 401 1212 l 1
 399.667 1210 399.333 1207.67 400 1205 c 0
 394.667 1163.67 370.667 1132.33 328 1111 c 1
 328 1107 l 1
 368 1095.67 388 1071.33 388 1034 c 2
 388 1027 l 1
 386.667 1025 386 1022.33 386 1019 c 0
 381.333 992.333 367.833 969.167 345.5 949.5 c 128
 323.167 929.833 298 920 270 920 c 0
 216.667 920 190.333 935.667 191 967 c 0
 191 978.333 195.5 987.667 204.5 995 c 128
 213.5 1002.33 223.667 1006.67 235 1008 c 1
 235 994 l 2
EndSplineSet
EndChar

StartChar: uni00B4
Encoding: 180 180 118
Width: 606
VWidth: 1655
GlyphClass: 2
Flags: HMW
LayerCount: 2
Fore
SplineSet
455 1633 m 1
 275 1322 l 1
 225 1352 l 1
 344 1671 l 1
 455 1633 l 1
EndSplineSet
EndChar

StartChar: uni00B5
Encoding: 181 181 119
Width: 847
VWidth: 1655
GlyphClass: 2
Flags: HMW
LayerCount: 2
Fore
SplineSet
514 127 m 1
 496 90.3333 464.333 56.8333 419 26.5 c 128
 373.667 -3.83333 323.833 -19 269.5 -19 c 128
 215.167 -19 178.667 -5 160 23 c 1
 151 23 l 1
 151 -7.66667 149.333 -48.3333 146 -99 c 1
 130 -380 l 1
 8 -354 l 1
 16.6667 -306 34.5 -203 61.5 -45 c 128
 88.5 113 113.667 289.333 137 484 c 2
 167 721 l 1
 35 755 l 1
 44 830 l 1
 311 851 l 1
 336 827 l 1
 270 308 l 2
 266.667 280.667 265 257 265 237 c 0
 265 156.333 293.667 115.333 351 114 c 0
 413 114 470.667 141 524 195 c 1
 583 731 l 1
 453 754 l 1
 461 827 l 1
 738 851 l 1
 760 829 l 1
 701 362 l 1
 691.656 279.333 686.823 220.667 686.5 186 c 128
 686.167 151.333 689.5 128.167 696.5 116.5 c 128
 703.5 104.833 715 97.3333 731 94 c 2
 796 83 l 1
 780 14 l 1
 736 -6 690.667 -15.3333 644 -14 c 0
 563.333 -14 522.667 25 522 103 c 0
 522 107.667 522.667 111.333 524 114 c 1
 524 127 l 1
 514 127 l 1
EndSplineSet
EndChar

StartChar: uni00B6
Encoding: 182 182 120
Width: 1209
VWidth: 1655
GlyphClass: 2
Flags: HMW
LayerCount: 2
Fore
SplineSet
783 1156 m 1
 764.333 1157.33 729.333 1158 678 1158 c 0
 467.333 1158 349 1066.33 323 883 c 0
 321 867.667 320 850.667 320 832 c 0
 320 752 343.5 689.833 390.5 645.5 c 128
 437.5 601.167 507 579 599 579 c 1
 706 585 l 1
 712 583 l 1
 783 1156 l 1
1354 1248 m 1
 1336 1171 l 1
 1159 1132 l 1
 1036 113 l 1
 1213 81 l 1
 1194 0 l 1
 467 0 l 1
 483 75 l 1
 657 121 l 1
 701 488 l 1
 659 484.667 615 483 569 483 c 0
 261.667 483.667 108 586 108 790 c 0
 108 890.668 134.667 975.334 188 1044 c 128
 241.333 1112.67 304.333 1164 377 1198 c 128
 449.667 1232 526.667 1249 608 1249 c 2
 1354 1248 l 1
971 1138 m 1
 948 1132 l 1
 822 113 l 1
 843 109 l 1
 883 121 l 1
 1006 1130 l 1
 971 1138 l 1
EndSplineSet
EndChar

StartChar: uni00B7
Encoding: 183 183 121
Width: 254
VWidth: 1655
GlyphClass: 2
Flags: HMW
LayerCount: 2
Fore
SplineSet
43.5 418.5 m 128
 19.8333 443.5 8 473 8 507 c 128
 8 541 19.6667 568.333 43 589 c 128
 66.3333 609.667 94.6667 620 128 620 c 128
 161.333 620 189.833 608.833 213.5 586.5 c 128
 237.167 564.167 249 536.667 249 504 c 128
 249 471.332 237 442.666 213 418 c 128
 189 393.333 160.667 381 128 381 c 128
 95.3333 381 67.1667 393.5 43.5 418.5 c 128
EndSplineSet
EndChar

StartChar: uni00B8
Encoding: 184 184 122
Width: 376
VWidth: 1655
GlyphClass: 2
Flags: HMW
LayerCount: 2
Fore
SplineSet
209 -75 m 1
 267.667 -125.667 296.667 -174.333 296 -221 c 0
 296 -289.667 231 -343 101 -381 c 1
 81 -323 l 1
 137 -303 165 -276 165 -242 c 0
 165 -215.333 141.333 -179.333 94 -134 c 1
 189 3 l 1
 263 3 l 1
 209 -75 l 1
EndSplineSet
EndChar

StartChar: uni00B9
Encoding: 185 185 123
Width: 215
VWidth: 1655
GlyphClass: 2
Flags: HMW
LayerCount: 2
Fore
SplineSet
330 1264 m 1
 293 1022 l 1
 344 1013 l 1
 336 989 l 1
 186 989 l 1
 193 1011 l 1
 244 1024 l 1
 275 1218 l 1
 230 1218 l 1
 235 1241 l 1
 322 1264 l 1
 330 1264 l 1
EndSplineSet
EndChar

StartChar: uni00BA
Encoding: 186 186 124
Width: 395
VWidth: 1655
GlyphClass: 2
Flags: HMW
LayerCount: 2
Fore
SplineSet
88 338 m 1
 419 338 l 1
 402 282 l 1
 72 282 l 1
 88 338 l 1
200 589 m 0
 198 573.667 197 553.667 197 529 c 128
 197 504.333 203.333 482 216 462 c 128
 228.667 442 245.667 432 267 432 c 0
 317.667 432 350 475.333 364 562 c 1
 366 590 367 605.333 367 608 c 0
 367 680 344 716.667 298 718 c 0
 247.333 716.667 214.667 673.667 200 589 c 0
440 623 m 0
 440 548.333 417 489 371 445 c 0
 335.667 411 296.5 393.833 253.5 393.5 c 128
 210.5 393.167 178 405 156 429 c 128
 134 453 123 485.667 123 527 c 0
 123 530.333 123.667 545 125 571 c 1
 134.333 627.668 157.333 672.835 194 706.5 c 128
 230.667 740.167 272 757 318 757 c 0
 399.333 757 440 712.333 440 623 c 0
EndSplineSet
EndChar

StartChar: uni00BB
Encoding: 187 187 125
Width: 706
VWidth: 1655
GlyphClass: 2
Flags: HMW
LayerCount: 2
Fore
SplineSet
458 460 m 1
 455 440 l 1
 141 77 l 1
 99 137 l 1
 313 451 l 1
 199 745 l 1
 251 804 l 1
 458 460 l 1
701 460 m 1
 698 440 l 1
 383 77 l 1
 341 137 l 1
 557 451 l 1
 442 745 l 1
 493 804 l 1
 701 460 l 1
EndSplineSet
EndChar

StartChar: uni00BC
Encoding: 188 188 126
Width: 1736
VWidth: 0
GlyphClass: 2
Flags: HMW
LayerCount: 2
Fore
SplineSet
735.764 270 m 1
 1219.73 737 l 1
 1274.99 726 l 1
 1255.5 640.84 1236.87 542.173 1219.11 430 c 2
 1194.08 272 l 1
 1342.08 272 l 1
 1317.72 175 l 1
 1178.72 175 l 1
 1164.15 83 l 1
 1282.29 65 l 1
 1266 0 l 1
 852 0 l 1
 865.187 58 l 1
 1006.46 85 l 1
 1021.19 178 l 1
 734.192 178 l 1
 735.764 270 l 1
843.08 272 m 1
 1033.08 272 l 1
 1070.46 508 l 1
 843.08 272 l 1
32.1025 531 m 1
 47.8223 605 l 1
 204.782 630 l 1
 282.707 1122 l 1
 137.707 1122 l 1
 153.903 1199 l 1
 463.188 1245 l 1
 482.188 1245 l 1
 384.307 627 l 1
 534.248 614 l 1
 515.103 531 l 1
 32.1025 531 l 1
157.416 -10 m 1
 659.13 588 l 1
 1148.65 1210 l 1
 1324.17 1207 l 1
 1317.58 1178 l 1
 823.605 591 l 1
 353.932 -32 l 1
 157.416 -10 l 1
EndSplineSet
EndChar

StartChar: uni00BD
Encoding: 189 189 127
Width: 1736
VWidth: 0
GlyphClass: 2
Flags: HMW
LayerCount: 2
Fore
SplineSet
809.264 109 m 1
 983.745 232 l 2
 1017.29 256.28 1043.1 275.407 1061.17 289.38 c 128
 1079.23 303.354 1099.39 320.673 1121.65 341.338 c 128
 1143.92 362.002 1160.4 380.754 1171.09 397.594 c 128
 1181.78 414.433 1190.95 434.061 1198.6 456.478 c 128
 1206.24 478.895 1210.06 502.639 1210.06 527.712 c 0
 1210.06 591.904 1179.98 624 1119.83 624 c 0
 1096.09 624 1073.9 618.486 1053.25 607.458 c 128
 1032.6 596.431 1017.06 582.611 1006.65 566 c 1
 964.214 437 l 1
 897.006 442 l 1
 908.932 612 l 1
 933.9 648.141 974.856 676.51 1031.8 697.106 c 128
 1088.74 717.702 1144.91 728 1200.3 728 c 0
 1269.12 728 1322.04 714.759 1359.06 688.278 c 128
 1396.08 661.797 1414.59 624.163 1414.59 575.378 c 0
 1414.59 550.075 1410.64 525.214 1402.74 500.795 c 128
 1394.84 476.376 1385.07 454.221 1373.43 434.328 c 128
 1361.78 414.435 1345.5 393.715 1324.58 372.168 c 128
 1303.66 350.621 1284.12 332.093 1265.96 316.584 c 128
 1247.8 301.075 1224.05 283.334 1194.7 263.363 c 128
 1165.35 243.391 1140.63 227.193 1120.55 214.77 c 128
 1100.47 202.347 1074.1 186.424 1041.45 167 c 2
 967.481 123 l 1
 1237.48 123 l 1
 1340.71 276 l 1
 1394.39 255 l 1
 1335.32 2 l 1
 784.316 2 l 1
 809.264 109 l 1
32.1025 531 m 1
 47.8223 605 l 1
 204.782 630 l 1
 282.707 1122 l 1
 137.707 1122 l 1
 153.903 1199 l 1
 463.188 1245 l 1
 482.188 1245 l 1
 384.307 627 l 1
 534.248 614 l 1
 515.103 531 l 1
 32.1025 531 l 1
137.416 -10 m 1
 639.13 588 l 1
 1128.65 1210 l 1
 1304.17 1207 l 1
 1297.58 1178 l 1
 803.605 591 l 1
 333.932 -32 l 1
 137.416 -10 l 1
EndSplineSet
EndChar

StartChar: uni00BE
Encoding: 190 190 128
Width: 1736
VWidth: 0
GlyphClass: 2
Flags: HMW
LayerCount: 2
Fore
SplineSet
55.4775 546 m 5
 116.996 745 l 5
 190.729 737 l 5
 177.348 602 l 5
 185.171 590.799 197.45 581.334 214.187 573.603 c 132
 230.924 565.868 249.532 562 270.012 562 c 4
 318.341 562 359.474 576.266 393.41 604.799 c 132
 427.346 633.332 444.314 670.447 444.314 716.143 c 4
 444.314 749.165 427.374 776.73 393.495 798.838 c 132
 359.615 820.946 315.042 832 259.775 832 c 5
 253.12 891 l 5
 268.861 895.687 283.451 900.424 296.888 905.212 c 132
 310.325 909.999 328.164 917.965 350.405 929.108 c 132
 372.646 940.251 391.393 952.048 406.647 964.497 c 132
 421.9 976.951 435.362 992.975 447.033 1012.57 c 132
 458.703 1032.18 464.538 1053.04 464.538 1075.15 c 4
 464.538 1102.32 456.93 1125.26 441.715 1143.95 c 132
 426.5 1162.65 404.138 1172 374.627 1172 c 4
 335.504 1172 306.676 1164.67 288.143 1150 c 5
 239.275 993 l 5
 164.226 999 l 5
 179.31 1170 l 5
 199.037 1192.86 235.431 1213.91 288.491 1233.15 c 132
 341.551 1252.38 393.014 1262 442.881 1262 c 4
 507.34 1262 559.496 1249.93 599.349 1225.79 c 132
 639.201 1201.66 659.127 1167.52 659.127 1123.37 c 4
 659.127 1094.3 653.137 1067.59 641.156 1043.25 c 132
 629.175 1018.91 612.731 998.278 591.824 981.354 c 132
 570.917 964.431 548.679 950.223 525.11 938.73 c 132
 501.541 927.237 475.881 917.661 448.13 910 c 5
 447.021 903 l 5
 510.329 896.342 558.054 879.916 590.196 853.722 c 132
 622.338 827.529 638.409 792.866 638.409 749.734 c 4
 638.409 697.511 619.642 650.274 582.107 608.024 c 132
 544.572 565.774 496.57 533.541 438.101 511.325 c 132
 379.632 489.108 317.834 478 252.708 478 c 4
 203.584 478 160.052 484.232 122.113 496.697 c 132
 84.1743 509.162 61.9625 525.596 55.4775 546 c 5
171.416 -10 m 5
 673.13 588 l 5
 1162.65 1210 l 5
 1338.17 1207 l 5
 1331.58 1178 l 5
 837.605 591 l 5
 367.932 -32 l 5
 171.416 -10 l 5
735.764 270 m 5
 1219.73 737 l 5
 1274.99 726 l 5
 1255.5 640.84 1236.87 542.173 1219.11 430 c 6
 1194.08 272 l 5
 1342.08 272 l 5
 1317.72 175 l 5
 1178.72 175 l 5
 1164.15 83 l 5
 1282.29 65 l 5
 1266 0 l 5
 852 0 l 5
 865.187 58 l 5
 1006.46 85 l 5
 1021.19 178 l 5
 734.192 178 l 5
 735.764 270 l 5
843.08 272 m 5
 1033.08 272 l 5
 1070.46 508 l 5
 843.08 272 l 5
EndSplineSet
EndChar

StartChar: uni00BF
Encoding: 191 191 129
Width: 495
VWidth: 1655
GlyphClass: 2
Flags: HMW
LayerCount: 2
Fore
SplineSet
280 778 m 1
 270.667 790.673 264.833 802.339 262.5 813 c 128
 260.167 823.673 259 831.34 259 836 c 128
 259 840.667 261.667 856.667 267 884 c 128
 272.333 911.333 286.5 936.167 309.5 958.5 c 128
 332.5 980.833 359.333 992 390 992 c 1
 416.667 990 437.5 980.833 452.5 964.5 c 128
 467.5 948.163 476.5 931.33 479.5 914 c 128
 482.5 896.667 484 887 484 885 c 128
 484 883 481.667 870.667 477 848 c 128
 472.332 825.333 458.666 802.5 436 779.5 c 128
 413.333 756.5 390 744.667 366 744 c 128
 342 743.333 324.833 745.333 314.5 750 c 128
 304.167 754.667 292.667 764 280 778 c 1
404 453 m 1
 409 401 l 1
 409 361 397.5 325.5 374.5 294.5 c 128
 351.5 263.5 328.167 240.333 304.5 225 c 128
 280.833 209.667 250.333 194.5 213 179.5 c 128
 175.667 164.5 148 151.5 130 140.5 c 128
 112 129.5 93.5 113 74.5 91 c 128
 55.5 69 44 43.3333 40 14 c 1
 40 7 l 1
 38.6665 3.66667 38.3332 0.333333 39 -3 c 0
 39 -56.3333 63 -100.667 111 -136 c 1
 131 -148.667 152.667 -156.667 176 -160 c 1
 186 -160 l 1
 188 -161.333 193 -162 201 -162 c 128
 209 -162 226 -158.333 252 -151 c 0
 311.333 -135 354 -114.333 380 -89 c 1
 390.667 -93.6667 401 -101.667 411 -113 c 1
 428.333 -133 437 -151.667 437 -169 c 128
 437 -186.333 436.333 -196.667 435 -200 c 1
 427.667 -248 396.333 -285 341 -311 c 0
 309 -326.333 275.333 -334 240 -334 c 2
 218 -334 l 1
 159.333 -330.667 107.833 -311.833 63.5 -277.5 c 128
 19.1667 -243.167 -13.6667 -199.333 -35 -146 c 128
 -56.3333 -92.6667 -67 -44.3333 -67 -1 c 128
 -67 42.3333 -64.6667 73.6667 -60 93 c 0
 -47.3333 155.667 -14 210.667 40 258 c 1
 70.6667 283.333 93.3333 299 108 305 c 0
 131.333 314.333 145.333 319.833 150 321.5 c 128
 154.667 323.167 160.167 325.333 166.5 328 c 128
 172.833 330.667 176.833 332.167 178.5 332.5 c 128
 180.167 332.833 183.834 334.333 189.5 337 c 128
 195.167 339.667 199.167 341.667 201.5 343 c 128
 205 345 205 345 212 349 c 128
 216.667 351.667 220.334 353.833 223 355.5 c 128
 225.667 357.167 229 359.333 233 362 c 0
 242.333 370 252.333 380 263 392 c 0
 281 412 290 442.667 290 484 c 2
 290 505 l 1
 288.667 511.667 288 517 288 521 c 128
 288 525 286.667 541.667 284 571 c 1
 360 587 l 1
 384 528.333 398.667 483.667 404 453 c 1
EndSplineSet
EndChar

StartChar: uni00C0
Encoding: 192 192 130
Width: 1215
VWidth: 1655
GlyphClass: 2
Flags: HMW
LayerCount: 2
Fore
SplineSet
768 505 m 1
 680 1062 l 1
 676 1062 l 1
 579 724 l 1
 549.667 626.667 530 564 520 536 c 1
 768 505 l 1
822 1271 m 1
 1032 132 l 1
 1210 81 l 1
 1187 0 l 1
 611 0 l 1
 634 72 l 1
 832 108 l 1
 781 430 l 1
 489 446 l 1
 439.667 310.667 398.667 214.167 366 156.5 c 128
 333.333 98.8333 302.833 56.3333 274.5 29 c 128
 246.167 1.66667 212.333 -16 173 -24 c 1
 155.666 -26 145.333 -27.3333 142 -28 c 0
 104 -28 68.8333 -16.1667 36.5 7.5 c 128
 4.16667 31.1667 -18.3333 62.3333 -31 101 c 1
 19 119.667 63.6667 142 103 168 c 1
 171.667 213.333 235.667 273.667 295 349 c 0
 372.333 450.333 445.333 596 514 786 c 1
 569.333 946.667 612.667 1098.33 644 1241 c 1
 822 1271 l 1
543 1655 m 1
 657 1693 l 1
 786 1365 l 1
 729 1332 l 1
 543 1655 l 1
EndSplineSet
EndChar

StartChar: uni00C1
Encoding: 193 193 131
Width: 1215
VWidth: 1655
GlyphClass: 2
Flags: HMW
LayerCount: 2
Fore
SplineSet
768 505 m 1
 680 1062 l 1
 676 1062 l 1
 579 724 l 1
 549.667 626.667 530 564 520 536 c 1
 768 505 l 1
822 1271 m 1
 1032 132 l 1
 1210 81 l 1
 1187 0 l 1
 611 0 l 1
 634 72 l 1
 832 108 l 1
 781 430 l 1
 489 446 l 1
 439.667 310.667 398.667 214.167 366 156.5 c 128
 333.333 98.8333 302.833 56.3333 274.5 29 c 128
 246.167 1.66667 212.333 -16 173 -24 c 1
 155.666 -26 145.333 -27.3333 142 -28 c 0
 104 -28 68.8333 -16.1667 36.5 7.5 c 128
 4.16667 31.1667 -18.3333 62.3333 -31 101 c 1
 19 119.667 63.6667 142 103 168 c 1
 171.667 213.333 235.667 273.667 295 349 c 0
 372.333 450.333 445.333 596 514 786 c 1
 569.333 946.667 612.667 1098.33 644 1241 c 1
 822 1271 l 1
964 1661 m 1
 785 1351 l 1
 734 1382 l 1
 855 1701 l 1
 964 1661 l 1
EndSplineSet
EndChar

StartChar: uni00C2
Encoding: 194 194 132
Width: 1215
VWidth: 1655
GlyphClass: 2
Flags: HMW
LayerCount: 2
Fore
SplineSet
768 505 m 1
 680 1062 l 1
 676 1062 l 1
 579 724 l 1
 549.667 626.667 530 564 520 536 c 1
 768 505 l 1
822 1271 m 1
 1032 132 l 1
 1210 81 l 1
 1187 0 l 1
 611 0 l 1
 634 72 l 1
 832 108 l 1
 781 430 l 1
 489 446 l 1
 439.667 310.667 398.667 214.167 366 156.5 c 128
 333.333 98.8333 302.833 56.3333 274.5 29 c 128
 246.167 1.66667 212.333 -16 173 -24 c 1
 155.666 -26 145.333 -27.3333 142 -28 c 0
 104 -28 68.8333 -16.1667 36.5 7.5 c 128
 4.16667 31.1667 -18.3333 62.3333 -31 101 c 1
 19 119.667 63.6667 142 103 168 c 1
 171.667 213.333 235.667 273.667 295 349 c 0
 372.333 450.333 445.333 596 514 786 c 1
 569.333 946.667 612.667 1098.33 644 1241 c 1
 822 1271 l 1
765 1577 m 1
 940 1396 l 1
 892 1361 l 1
 731 1468 l 1
 721 1468 l 1
 583 1359 l 1
 546 1388 l 1
 712 1564 l 1
 765 1577 l 1
EndSplineSet
EndChar

StartChar: uni00C3
Encoding: 195 195 133
Width: 1215
VWidth: 1655
GlyphClass: 2
Flags: HMW
LayerCount: 2
Fore
SplineSet
768 505 m 1
 680 1062 l 1
 676 1062 l 1
 579 724 l 1
 549.667 626.667 530 564 520 536 c 1
 768 505 l 1
822 1271 m 1
 1032 132 l 1
 1210 81 l 1
 1187 0 l 1
 611 0 l 1
 634 72 l 1
 832 108 l 1
 781 430 l 1
 489 446 l 1
 439.667 310.667 398.667 214.167 366 156.5 c 128
 333.333 98.8333 302.833 56.3333 274.5 29 c 128
 246.167 1.66667 212.333 -16 173 -24 c 1
 155.666 -26 145.333 -27.3333 142 -28 c 0
 104 -28 68.8333 -16.1667 36.5 7.5 c 128
 4.16667 31.1667 -18.3333 62.3333 -31 101 c 1
 19 119.667 63.6667 142 103 168 c 1
 171.667 213.333 235.667 273.667 295 349 c 0
 372.333 450.333 445.333 596 514 786 c 1
 569.333 946.667 612.667 1098.33 644 1241 c 1
 822 1271 l 1
611 1419 m 2
 594.333 1419 575 1403.33 553 1372 c 1
 515 1380 l 1
 517 1386.67 520 1396.83 524 1410.5 c 128
 528 1424.17 536.667 1441.33 550 1462 c 0
 574.668 1501.33 603.334 1521.33 636 1522 c 2
 643 1522 l 1
 645 1520.67 647 1520 649 1520 c 2
 867 1490 l 1
 871 1490 l 2
 885 1490 903 1503.67 925 1531 c 1
 973 1529 l 1
 941.667 1435 899 1388 845 1388 c 2
 834 1388 l 1
 615 1419 l 1
 611 1419 l 2
EndSplineSet
EndChar

StartChar: uni00C4
Encoding: 196 196 134
Width: 1215
VWidth: 1655
GlyphClass: 2
Flags: HMW
LayerCount: 2
Fore
SplineSet
768 505 m 1
 680 1062 l 1
 676 1062 l 1
 579 724 l 1
 549.667 626.667 530 564 520 536 c 1
 768 505 l 1
822 1271 m 1
 1032 132 l 1
 1210 81 l 1
 1187 0 l 1
 611 0 l 1
 634 72 l 1
 832 108 l 1
 781 430 l 1
 489 446 l 1
 439.667 310.667 398.667 214.167 366 156.5 c 128
 333.333 98.8333 302.833 56.3333 274.5 29 c 128
 246.167 1.66667 212.333 -16 173 -24 c 1
 155.666 -26 145.333 -27.3333 142 -28 c 0
 104 -28 68.8333 -16.1667 36.5 7.5 c 128
 4.16667 31.1667 -18.3333 62.3333 -31 101 c 1
 19 119.667 63.6667 142 103 168 c 1
 171.667 213.333 235.667 273.667 295 349 c 0
 372.333 450.333 445.333 596 514 786 c 1
 569.333 946.667 612.667 1098.33 644 1241 c 1
 822 1271 l 1
934 1519 m 128
 950.667 1504.33 959 1486 959 1464 c 128
 959 1442 950.667 1423.33 934 1408 c 128
 917.333 1392.67 897.333 1385 874 1385 c 128
 850.667 1385 831 1392.67 815 1408 c 128
 799 1423.34 791 1442.18 791 1464.5 c 128
 791 1486.84 799 1505.18 815 1519.5 c 128
 831 1533.83 850.667 1541 874 1541 c 128
 897.333 1541 917.333 1533.67 934 1519 c 128
671.5 1519 m 128
 687.833 1504.33 696 1485.83 696 1463.5 c 128
 696 1441.17 687.833 1422.5 671.5 1407.5 c 128
 655.167 1392.5 635.5 1385 612.5 1385 c 128
 589.5 1385 569.833 1392.67 553.5 1408 c 128
 537.167 1423.34 529 1442.18 529 1464.5 c 128
 529 1486.84 537.167 1505.18 553.5 1519.5 c 128
 569.833 1533.83 589.5 1541 612.5 1541 c 128
 635.5 1541 655.167 1533.67 671.5 1519 c 128
EndSplineSet
EndChar

StartChar: uni00C5
Encoding: 197 197 135
Width: 1215
VWidth: 1655
GlyphClass: 2
Flags: HMW
LayerCount: 2
Fore
SplineSet
768 505 m 1
 680 1062 l 1
 676 1062 l 1
 579 724 l 1
 549.667 626.667 530 564 520 536 c 1
 768 505 l 1
822 1271 m 1
 1032 132 l 1
 1210 81 l 1
 1187 0 l 1
 611 0 l 1
 634 72 l 1
 832 108 l 1
 781 430 l 1
 489 446 l 1
 439.667 310.667 398.667 214.167 366 156.5 c 128
 333.333 98.8333 302.833 56.3333 274.5 29 c 128
 246.167 1.66667 212.333 -16 173 -24 c 1
 155.666 -26 145.333 -27.3333 142 -28 c 0
 104 -28 68.8333 -16.1667 36.5 7.5 c 128
 4.16667 31.1667 -18.3333 62.3333 -31 101 c 1
 19 119.667 63.6667 142 103 168 c 1
 171.667 213.333 235.667 273.667 295 349 c 0
 372.333 450.333 445.333 596 514 786 c 1
 569.333 946.667 612.667 1098.33 644 1241 c 1
 822 1271 l 1
678 1615.5 m 128
 662.667 1594.5 655 1567.5 655 1534.5 c 128
 655 1501.5 663.667 1472.5 681 1447.5 c 128
 698.333 1422.5 720.667 1410 748 1410 c 0
 804 1410.67 832.667 1448.33 834 1523 c 0
 834 1557.67 825.167 1587 807.5 1611 c 128
 789.833 1635 767.667 1647 741 1647 c 128
 714.333 1647 693.333 1636.5 678 1615.5 c 128
861.5 1649.5 m 128
 889.833 1619.83 904 1581.67 904 1535 c 128
 904 1488.33 888.167 1448 856.5 1414 c 128
 824.833 1380 785.833 1363 739.5 1363 c 128
 693.166 1363 655.833 1378 627.5 1408 c 128
 599.167 1438 585 1476.33 585 1523 c 128
 585 1569.67 601.333 1609.83 634 1643.5 c 128
 666.667 1677.17 705.667 1694 751 1694 c 128
 796.333 1694 833.167 1679.17 861.5 1649.5 c 128
EndSplineSet
EndChar

StartChar: uni00C6
Encoding: 198 198 136
Width: 1533
VWidth: 1655
GlyphClass: 2
Flags: HMW
LayerCount: 2
Fore
SplineSet
719 507 m 1
 699 1064 l 1
 693 1064 l 1
 599 726 l 1
 583 670.667 562.667 606.667 538 534 c 1
 719 507 l 1
1414 430 m 1
 1418.67 412.667 1421 375 1421 317 c 0
 1421 187 1401 81.3333 1361 0 c 1
 1334 0 l 2
 1303.32 -3.05176e-05 1277.66 0.666636 1257 2 c 1
 1032 2 l 2
 978.667 2 940 2.33333 916 3 c 1
 744 3 l 1
 491 -3 l 1
 514 80 l 1
 731 134 l 1
 721 432 l 1
 509 444 l 1
 457.667 307.333 414.667 208 380 146 c 1
 346.667 91.3333 316.833 51.1667 290.5 25.5 c 128
 264.167 -0.166667 237 -15.5 209 -20.5 c 128
 181 -25.5 165.333 -28 162 -28 c 0
 124.667 -28 89.6667 -16 57 8 c 128
 24.3333 32 1.33333 63 -12 101 c 1
 38 119.667 83 142 123 168 c 1
 189 210 252.333 270.333 313 349 c 1
 422.333 494.333 524.667 733.333 620 1066 c 1
 636 1119.34 650 1177.67 662 1241 c 1
 1405 1280 l 1
 1365 862 l 1
 1278 869 l 1
 1222 1125 l 1
 1192 1128 l 1
 1119.33 1134.67 1023.33 1139.33 904 1142 c 1
 872 1143 l 1
 892 681 l 1
 1259 698 l 1
 1220 557 l 1
 897 578 l 1
 925 101 l 1
 1010 108 l 2
 1124 119.333 1191.33 127.333 1212 132 c 1
 1232 157.333 1254.5 203.333 1279.5 270 c 128
 1304.5 336.667 1320.33 391.333 1327 434 c 1
 1414 430 l 1
EndSplineSet
EndChar

StartChar: uni00C7
Encoding: 199 199 137
Width: 952
VWidth: 1655
GlyphClass: 2
Flags: HMW
LayerCount: 2
Fore
SplineSet
529 -75 m 1
 587.667 -125.667 616.667 -174.333 616 -221 c 0
 616 -289.667 551 -343 421 -381 c 1
 401 -323 l 1
 457 -303 485.333 -276 486 -242 c 0
 486 -215.333 462 -179.333 414 -134 c 1
 488 -30 l 1
 465 -30 l 2
 426.333 -30 384.333 -24 339 -12 c 1
 246.333 16.6667 169.667 70.8333 109 150.5 c 128
 48.3333 230.167 15.3333 331.667 10 455 c 1
 10 471 l 1
 8.66667 476.333 8 482 8 488 c 0
 8 706.667 79 898.667 221 1064 c 1
 331.667 1191.34 461.667 1254.67 611 1254 c 0
 759 1254 862.333 1197.67 921 1085 c 1
 938.333 1055 946.667 1020.67 946 982 c 2
 946 971 l 1
 945.333 932.333 932.833 897 908.5 865 c 128
 884.167 833 857.667 813.167 829 805.5 c 128
 800.333 797.833 777.667 794 761 794 c 128
 744.333 794 728 796.667 712 802 c 1
 720.667 846.667 725 884.834 725 916.5 c 128
 725 948.167 722.667 977.667 718 1005 c 0
 708 1057.67 673.667 1097 615 1123 c 1
 592.333 1131.67 562.667 1135.33 526 1134 c 128
 489.333 1132.67 449.833 1117 407.5 1087 c 128
 365.167 1057 331.667 1018.33 307 971 c 0
 264.333 894.333 238.667 784.333 230 641 c 0
 228 603.667 227 582.667 227 578 c 0
 227 405.333 271 278 359 196 c 0
 411 148 471.667 124.333 541 125 c 0
 583 125 623.333 133 662 149 c 128
 700.668 165 736.335 189.667 769 223 c 128
 801.667 256.333 825.667 285.333 841 310 c 1
 883 248 l 1
 869.667 212.667 848.667 177.333 820 142 c 0
 758.666 69.3333 683.333 18.6667 594 -10 c 0
 583.333 -13.3333 575 -15.3333 569 -16 c 1
 529 -75 l 1
EndSplineSet
EndChar

StartChar: uni00C8
Encoding: 200 200 138
Width: 1204
VWidth: 1655
GlyphClass: 2
Flags: HMW
LayerCount: 2
Fore
SplineSet
1058 0 m 1
 689.333 2 483.333 3 440 3 c 1
 8 -3 l 1
 31 80 l 1
 249 134 l 1
 374 1094 l 1
 147 1117 l 1
 167 1194 l 1
 240.333 1208.67 349.167 1221.67 493.5 1233 c 128
 637.833 1244.33 773.333 1250 900 1250 c 2
 973 1250 l 1
 1197 1246 l 1
 1117 835 l 1
 1031 848 l 1
 999 1111 l 1
 971 1117 l 1
 869.667 1135.67 746.667 1144.33 602 1143 c 2
 569 1143 l 1
 514 680 l 1
 969 712 l 1
 935 569 l 1
 502 578 l 1
 440 99 l 1
 657 108 l 1
 779.667 114.667 863.334 122.667 908 132 c 1
 930.668 168.667 957.335 222 988 292 c 128
 1018.67 362 1038.67 415 1048 451 c 1
 1135 440 l 1
 1135 434 l 2
 1135 345.333 1128.17 261.167 1114.5 181.5 c 128
 1100.83 101.833 1082 41.3333 1058 0 c 1
599 1655 m 1
 712 1693 l 1
 841 1365 l 1
 785 1332 l 1
 599 1655 l 1
EndSplineSet
EndChar

StartChar: uni00C9
Encoding: 201 201 139
Width: 1204
VWidth: 1655
GlyphClass: 2
Flags: HMW
LayerCount: 2
Fore
SplineSet
1058 0 m 1
 689.333 2 483.333 3 440 3 c 1
 8 -3 l 1
 31 80 l 1
 249 134 l 1
 374 1094 l 1
 147 1117 l 1
 167 1194 l 1
 240.333 1208.67 349.167 1221.67 493.5 1233 c 128
 637.833 1244.33 773.333 1250 900 1250 c 2
 973 1250 l 1
 1197 1246 l 1
 1117 835 l 1
 1031 848 l 1
 999 1111 l 1
 971 1117 l 1
 869.667 1135.67 746.667 1144.33 602 1143 c 2
 569 1143 l 1
 514 680 l 1
 969 712 l 1
 935 569 l 1
 502 578 l 1
 440 99 l 1
 657 108 l 1
 779.667 114.667 863.334 122.667 908 132 c 1
 930.668 168.667 957.335 222 988 292 c 128
 1018.67 362 1038.67 415 1048 451 c 1
 1135 440 l 1
 1135 434 l 2
 1135 345.333 1128.17 261.167 1114.5 181.5 c 128
 1100.83 101.833 1082 41.3333 1058 0 c 1
1019 1661 m 1
 839 1351 l 1
 790 1382 l 1
 909 1701 l 1
 1019 1661 l 1
EndSplineSet
EndChar

StartChar: uni00CA
Encoding: 202 202 140
Width: 1204
VWidth: 1655
GlyphClass: 2
Flags: HMW
LayerCount: 2
Fore
SplineSet
1058 0 m 1
 689.333 2 483.333 3 440 3 c 1
 8 -3 l 1
 31 80 l 1
 249 134 l 1
 374 1094 l 1
 147 1117 l 1
 167 1194 l 1
 240.333 1208.67 349.167 1221.67 493.5 1233 c 128
 637.833 1244.33 773.333 1250 900 1250 c 2
 973 1250 l 1
 1197 1246 l 1
 1117 835 l 1
 1031 848 l 1
 999 1111 l 1
 971 1117 l 1
 869.667 1135.67 746.667 1144.33 602 1143 c 2
 569 1143 l 1
 514 680 l 1
 969 712 l 1
 935 569 l 1
 502 578 l 1
 440 99 l 1
 657 108 l 1
 779.667 114.667 863.334 122.667 908 132 c 1
 930.668 168.667 957.335 222 988 292 c 128
 1018.67 362 1038.67 415 1048 451 c 1
 1135 440 l 1
 1135 434 l 2
 1135 345.333 1128.17 261.167 1114.5 181.5 c 128
 1100.83 101.833 1082 41.3333 1058 0 c 1
820 1577 m 1
 995 1396 l 1
 946 1361 l 1
 786 1468 l 1
 776 1468 l 1
 639 1359 l 1
 602 1388 l 1
 766 1564 l 1
 820 1577 l 1
EndSplineSet
EndChar

StartChar: uni00CB
Encoding: 203 203 141
Width: 1204
VWidth: 1655
GlyphClass: 2
Flags: HMW
LayerCount: 2
Fore
SplineSet
1058 0 m 1
 689.333 2 483.333 3 440 3 c 1
 8 -3 l 1
 31 80 l 1
 249 134 l 1
 374 1094 l 1
 147 1117 l 1
 167 1194 l 1
 240.333 1208.67 349.167 1221.67 493.5 1233 c 128
 637.833 1244.33 773.333 1250 900 1250 c 2
 973 1250 l 1
 1197 1246 l 1
 1117 835 l 1
 1031 848 l 1
 999 1111 l 1
 971 1117 l 1
 869.667 1135.67 746.667 1144.33 602 1143 c 2
 569 1143 l 1
 514 680 l 1
 969 712 l 1
 935 569 l 1
 502 578 l 1
 440 99 l 1
 657 108 l 1
 779.667 114.667 863.334 122.667 908 132 c 1
 930.668 168.667 957.335 222 988 292 c 128
 1018.67 362 1038.67 415 1048 451 c 1
 1135 440 l 1
 1135 434 l 2
 1135 345.333 1128.17 261.167 1114.5 181.5 c 128
 1100.83 101.833 1082 41.3333 1058 0 c 1
989 1519 m 128
 1006.33 1504.33 1015 1486 1015 1464 c 128
 1015 1442 1006.33 1423.33 989 1408 c 128
 971.667 1392.67 951.667 1385 929 1385 c 128
 906.333 1385 886.833 1392.67 870.5 1408 c 128
 854.167 1423.34 846 1442.18 846 1464.5 c 128
 846 1486.84 854.167 1505.18 870.5 1519.5 c 128
 886.833 1533.83 906.333 1541 929 1541 c 128
 951.667 1541 971.667 1533.67 989 1519 c 128
725.5 1519 m 128
 741.833 1504.33 750 1485.83 750 1463.5 c 128
 750 1441.17 741.833 1422.5 725.5 1407.5 c 128
 709.167 1392.5 689.5 1385 666.5 1385 c 128
 643.5 1385 623.833 1392.67 607.5 1408 c 128
 591.167 1423.34 583 1442.18 583 1464.5 c 128
 583 1486.84 591.167 1505.18 607.5 1519.5 c 128
 623.833 1533.83 643.5 1541 666.5 1541 c 128
 689.5 1541 709.167 1533.67 725.5 1519 c 128
EndSplineSet
EndChar

StartChar: uni00CC
Encoding: 204 204 142
Width: 792
VWidth: 1655
GlyphClass: 2
Flags: HMW
LayerCount: 2
Fore
SplineSet
634 0 m 1
 8 0 l 1
 26 78 l 1
 249 129 l 1
 372 1090 l 1
 146 1123 l 1
 165 1199 l 1
 312.333 1230.33 467 1246 629 1246 c 0
 670.333 1246 722.333 1243.67 785 1239 c 1
 766 1164 l 1
 567 1142 l 1
 440 106 l 1
 658 81 l 1
 634 0 l 1
310 1650 m 1
 424 1687 l 1
 553 1361 l 1
 497 1327 l 1
 310 1650 l 1
EndSplineSet
EndChar

StartChar: uni00CD
Encoding: 205 205 143
Width: 792
VWidth: 1655
GlyphClass: 2
Flags: HMW
LayerCount: 2
Fore
SplineSet
634 0 m 1
 8 0 l 1
 26 78 l 1
 249 129 l 1
 372 1090 l 1
 146 1123 l 1
 165 1199 l 1
 312.333 1230.33 467 1246 629 1246 c 0
 670.333 1246 722.333 1243.67 785 1239 c 1
 766 1164 l 1
 567 1142 l 1
 440 106 l 1
 658 81 l 1
 634 0 l 1
731 1657 m 1
 551 1345 l 1
 502 1377 l 1
 621 1696 l 1
 731 1657 l 1
EndSplineSet
EndChar

StartChar: uni00CE
Encoding: 206 206 144
Width: 792
VWidth: 1655
GlyphClass: 2
Flags: HMW
LayerCount: 2
Fore
SplineSet
634 0 m 1
 8 0 l 1
 26 78 l 1
 249 129 l 1
 372 1090 l 1
 146 1123 l 1
 165 1199 l 1
 312.333 1230.33 467 1246 629 1246 c 0
 670.333 1246 722.333 1243.67 785 1239 c 1
 766 1164 l 1
 567 1142 l 1
 440 106 l 1
 658 81 l 1
 634 0 l 1
532 1572 m 1
 707 1391 l 1
 658 1356 l 1
 499 1463 l 1
 489 1463 l 1
 351 1354 l 1
 313 1383 l 1
 479 1559 l 1
 532 1572 l 1
EndSplineSet
EndChar

StartChar: uni00CF
Encoding: 207 207 145
Width: 792
VWidth: 1655
GlyphClass: 2
Flags: HMW
LayerCount: 2
Fore
SplineSet
634 0 m 1
 8 0 l 1
 26 78 l 1
 249 129 l 1
 372 1090 l 1
 146 1123 l 1
 165 1199 l 1
 312.333 1230.33 467 1246 629 1246 c 0
 671.667 1246 724 1243.67 786 1239 c 1
 766 1164 l 1
 567 1142 l 1
 440 106 l 1
 658 81 l 1
 634 0 l 1
700.5 1514 m 128
 717.5 1499.33 726 1481 726 1459 c 128
 726 1437 717.5 1418.33 700.5 1403 c 128
 683.5 1387.67 663.667 1380 641 1380 c 128
 618.333 1380 598.833 1387.67 582.5 1403 c 128
 566.167 1418.34 558 1437.18 558 1459.5 c 128
 558 1481.84 566.167 1500.18 582.5 1514.5 c 128
 598.833 1528.83 618.333 1536 641 1536 c 128
 663.667 1536 683.5 1528.67 700.5 1514 c 128
438 1514 m 128
 454.667 1499.33 463 1480.83 463 1458.5 c 128
 463 1436.17 454.667 1417.5 438 1402.5 c 128
 421.333 1387.5 401.5 1380 378.5 1380 c 128
 355.5 1380 336 1387.67 320 1403 c 128
 304 1418.34 296 1437.18 296 1459.5 c 128
 296 1481.84 304 1500.18 320 1514.5 c 128
 336 1528.83 355.5 1536 378.5 1536 c 128
 401.5 1536 421.333 1528.67 438 1514 c 128
EndSplineSet
EndChar

StartChar: uni00D0
Encoding: 208 208 146
Width: 1299
VWidth: 1655
GlyphClass: 2
Flags: HMW
LayerCount: 2
Fore
SplineSet
488 551 m 1
 434 106 l 1
 444 106 l 1
 447.335 104.667 459.168 104 479.5 104 c 128
 499.833 104 538.333 107 595 113 c 0
 734.333 125.667 851.167 160.833 945.5 218.5 c 128
 1039.84 276.167 1105.67 353.333 1143 450 c 1
 1167.67 515.333 1180 589.333 1180 672 c 0
 1180 754.667 1162.33 832 1127 904 c 1
 1101.67 956.667 1068 1001 1026 1037 c 128
 984 1073 925.167 1104.83 849.5 1132.5 c 128
 773.833 1160.17 713.333 1174.33 668 1175 c 128
 622.667 1175.67 587 1174.33 561 1171 c 1
 499 649 l 1
 750 660 l 1
 722 561 l 1
 488 551 l 1
8 0 m 1
 28 77 l 1
 237 129 l 1
 293 541 l 1
 127 536 l 1
 153 634 l 1
 307 641 l 1
 364 1068 l 1
 147 1085 l 1
 168 1158 l 1
 333.333 1220 524.333 1250.67 741 1250 c 0
 781 1250 806.333 1249.67 817 1249 c 1
 997 1240.33 1131.33 1199.67 1220 1127 c 1
 1260 1094.33 1293 1055 1319 1009 c 0
 1362.34 931.667 1383.68 846 1383 752 c 0
 1383 727.333 1381.33 703.667 1378 681 c 1
 1360 507 1284 358 1150 234 c 0
 1024.67 118.667 868 46.6667 680 18 c 0
 601.333 6 486.667 0 336 0 c 2
 8 0 l 1
EndSplineSet
EndChar

StartChar: uni00D1
Encoding: 209 209 147
Width: 1507
VWidth: 1655
GlyphClass: 2
Flags: HMW
LayerCount: 2
Fore
SplineSet
1011 -31 m 1
 456 999 l 1
 453 999 l 1
 434 486 l 2
 429.332 380.667 420.165 298.5 406.5 239.5 c 128
 392.833 180.5 366.333 124 327 70 c 1
 274.333 2.66666 218 -31 158 -31 c 2
 151 -31 l 1
 92.3333 -25.6667 50.6667 1 26 49 c 1
 17.3333 69 11.3333 87 8 103 c 1
 87.3334 139.667 150.333 186 197 242 c 1
 291 359.334 341.667 566.667 349 864 c 1
 351 984.669 352.333 1053.67 353 1071 c 1
 127 1125 l 1
 149 1201 l 1
 241.667 1219.67 316.333 1231.17 373 1235.5 c 128
 429.667 1239.83 491.333 1243.33 558 1246 c 1
 646 1078 l 1
 1081 274 l 1
 1152 1106 l 1
 925 1122 l 1
 945 1197 l 1
 1048.33 1219.67 1131.17 1233.33 1193.5 1238 c 128
 1255.83 1242.67 1310.67 1245 1358 1245 c 128
 1405.33 1245 1453 1243 1501 1239 c 1
 1480 1163 l 1
 1275 1109 l 1
 1171 2 l 1
 1011 -31 l 1
698 1419 m 2
 681.333 1419 661.667 1403.33 639 1372 c 1
 602 1380 l 1
 604 1386.67 606.833 1396.83 610.5 1410.5 c 128
 614.167 1424.17 622.667 1441.33 636 1462 c 0
 660.667 1501.33 689 1521.33 721 1522 c 2
 727 1522 l 1
 728.333 1520.67 730.667 1520 734 1520 c 2
 952 1490 l 1
 956 1490 l 2
 970 1490 988.333 1503.67 1011 1531 c 1
 1058 1529 l 1
 1026.67 1435 983.667 1388 929 1388 c 2
 920 1388 l 1
 701 1419 l 1
 698 1419 l 2
EndSplineSet
EndChar

StartChar: uni00D2
Encoding: 210 210 148
Width: 1079
VWidth: 1655
GlyphClass: 2
Flags: HMW
LayerCount: 2
Fore
SplineSet
216 651 m 0
 216 495 246 367.5 306 268.5 c 128
 366 169.5 444.167 120 540.5 120 c 128
 636.833 120 715.333 166.667 776 260 c 128
 836.667 353.333 867 475 867 625 c 0
 867 720.333 853.5 805.833 826.5 881.5 c 128
 799.5 957.167 759.333 1017.5 706 1062.5 c 128
 652.665 1107.5 592.332 1130 525 1130 c 128
 457.667 1130 400.667 1108 354 1064 c 1
 261.333 975.333 215.333 837.667 216 651 c 0
1074 744 m 1
 1072 596.667 1037 457 969 325 c 1
 891.667 179.667 793.667 78.3333 675 21 c 0
 608.333 -11.6667 534 -28 452 -28 c 128
 370 -28 294.167 -3.66667 224.5 45 c 128
 154.833 93.6666 101.333 158.167 64 238.5 c 128
 26.6667 318.833 8 407.667 8 505 c 0
 8 641.667 34 768.667 86 886 c 128
 138 1003.33 211.667 1097.5 307 1168.5 c 128
 402.333 1239.5 510.333 1275 631 1275 c 0
 721.667 1275 802.5 1248.5 873.5 1195.5 c 128
 944.5 1142.5 995.667 1076.67 1027 998 c 128
 1058.33 919.333 1074 836 1074 748 c 2
 1074 744 l 1
414 1655 m 1
 527 1693 l 1
 657 1365 l 1
 600 1332 l 1
 414 1655 l 1
EndSplineSet
EndChar

StartChar: uni00D3
Encoding: 211 211 149
Width: 1079
VWidth: 1655
GlyphClass: 2
Flags: HMW
LayerCount: 2
Fore
SplineSet
216 651 m 0
 216 495 246 367.5 306 268.5 c 128
 366 169.5 444.167 120 540.5 120 c 128
 636.833 120 715.333 166.667 776 260 c 128
 836.667 353.333 867 475 867 625 c 0
 867 720.333 853.5 805.833 826.5 881.5 c 128
 799.5 957.167 759.333 1017.5 706 1062.5 c 128
 652.665 1107.5 592.332 1130 525 1130 c 128
 457.667 1130 400.667 1108 354 1064 c 1
 261.333 975.333 215.333 837.667 216 651 c 0
1074 744 m 1
 1072 596.667 1037 457 969 325 c 1
 891.667 179.667 793.667 78.3333 675 21 c 0
 608.333 -11.6667 534 -28 452 -28 c 128
 370 -28 294.167 -3.66667 224.5 45 c 128
 154.833 93.6666 101.333 158.167 64 238.5 c 128
 26.6667 318.833 8 407.667 8 505 c 0
 8 641.667 34 768.667 86 886 c 128
 138 1003.33 211.667 1097.5 307 1168.5 c 128
 402.333 1239.5 510.333 1275 631 1275 c 0
 721.667 1275 802.5 1248.5 873.5 1195.5 c 128
 944.5 1142.5 995.667 1076.67 1027 998 c 128
 1058.33 919.333 1074 836 1074 748 c 2
 1074 744 l 1
835 1661 m 1
 655 1351 l 1
 605 1382 l 1
 724 1701 l 1
 835 1661 l 1
EndSplineSet
EndChar

StartChar: uni00D4
Encoding: 212 212 150
Width: 1079
VWidth: 1655
GlyphClass: 2
Flags: HMW
LayerCount: 2
Fore
SplineSet
216 651 m 0
 216 495 246 367.5 306 268.5 c 128
 366 169.5 444.167 120 540.5 120 c 128
 636.833 120 715.333 166.667 776 260 c 128
 836.667 353.333 867 475 867 625 c 0
 867 720.333 853.5 805.833 826.5 881.5 c 128
 799.5 957.167 759.333 1017.5 706 1062.5 c 128
 652.665 1107.5 592.332 1130 525 1130 c 128
 457.667 1130 400.667 1108 354 1064 c 1
 261.333 975.333 215.333 837.667 216 651 c 0
1074 744 m 1
 1072 596.667 1037 457 969 325 c 1
 891.667 179.667 793.667 78.3333 675 21 c 0
 608.333 -11.6667 534 -28 452 -28 c 128
 370 -28 294.167 -3.66667 224.5 45 c 128
 154.833 93.6666 101.333 158.167 64 238.5 c 128
 26.6667 318.833 8 407.667 8 505 c 0
 8 641.667 34 768.667 86 886 c 128
 138 1003.33 211.667 1097.5 307 1168.5 c 128
 402.333 1239.5 510.333 1275 631 1275 c 0
 721.667 1275 802.5 1248.5 873.5 1195.5 c 128
 944.5 1142.5 995.667 1076.67 1027 998 c 128
 1058.33 919.333 1074 836 1074 748 c 2
 1074 744 l 1
636 1577 m 1
 811 1396 l 1
 762 1361 l 1
 602 1468 l 1
 592 1468 l 1
 455 1359 l 1
 418 1388 l 1
 583 1564 l 1
 636 1577 l 1
EndSplineSet
EndChar

StartChar: uni00D5
Encoding: 213 213 151
Width: 1079
VWidth: 1655
GlyphClass: 2
Flags: HMW
LayerCount: 2
Fore
SplineSet
216 651 m 0
 216 495 246 367.5 306 268.5 c 128
 366 169.5 444.167 120 540.5 120 c 128
 636.833 120 715.333 166.667 776 260 c 128
 836.667 353.333 867 475 867 625 c 0
 867 720.333 853.5 805.833 826.5 881.5 c 128
 799.5 957.167 759.333 1017.5 706 1062.5 c 128
 652.665 1107.5 592.332 1130 525 1130 c 128
 457.667 1130 400.667 1108 354 1064 c 1
 261.333 975.333 215.333 837.667 216 651 c 0
1074 744 m 1
 1072 596.667 1037 457 969 325 c 1
 891.667 179.667 793.667 78.3333 675 21 c 0
 608.333 -11.6667 534 -28 452 -28 c 128
 370 -28 294.167 -3.66667 224.5 45 c 128
 154.833 93.6666 101.333 158.167 64 238.5 c 128
 26.6667 318.833 8 407.667 8 505 c 0
 8 641.667 34 768.667 86 886 c 128
 138 1003.33 211.667 1097.5 307 1168.5 c 128
 402.333 1239.5 510.333 1275 631 1275 c 0
 721.667 1275 802.5 1248.5 873.5 1195.5 c 128
 944.5 1142.5 995.667 1076.67 1027 998 c 128
 1058.33 919.333 1074 836 1074 748 c 2
 1074 744 l 1
483 1419 m 2
 466.332 1419 446.666 1403.33 424 1372 c 1
 386 1380 l 1
 388 1386.67 391 1396.83 395 1410.5 c 128
 399 1424.17 407.667 1441.33 421 1462 c 0
 445.667 1501.33 474.333 1521.33 507 1522 c 2
 514 1522 l 1
 516 1520.67 517.667 1520 519 1520 c 2
 738 1490 l 1
 741 1490 l 2
 755 1490 773.333 1503.67 796 1531 c 1
 843 1529 l 1
 811.665 1435 769.332 1388 716 1388 c 2
 704 1388 l 1
 486 1419 l 1
 483 1419 l 2
EndSplineSet
EndChar

StartChar: uni00D6
Encoding: 214 214 152
Width: 1079
VWidth: 1655
GlyphClass: 2
Flags: HMW
LayerCount: 2
Fore
SplineSet
216 651 m 0
 216 495 246 367.5 306 268.5 c 128
 366 169.5 444.167 120 540.5 120 c 128
 636.833 120 715.333 166.667 776 260 c 128
 836.667 353.333 867 475 867 625 c 0
 867 720.333 853.5 805.833 826.5 881.5 c 128
 799.5 957.167 759.333 1017.5 706 1062.5 c 128
 652.665 1107.5 592.332 1130 525 1130 c 128
 457.667 1130 400.667 1108 354 1064 c 1
 261.333 975.333 215.333 837.667 216 651 c 0
1074 744 m 1
 1072 596.667 1037 457 969 325 c 1
 891.667 179.667 793.667 78.3333 675 21 c 0
 608.333 -11.6667 534 -28 452 -28 c 128
 370 -28 294.167 -3.66667 224.5 45 c 128
 154.833 93.6666 101.333 158.167 64 238.5 c 128
 26.6667 318.833 8 407.667 8 505 c 0
 8 641.667 34 768.667 86 886 c 128
 138 1003.33 211.667 1097.5 307 1168.5 c 128
 402.333 1239.5 510.333 1275 631 1275 c 0
 721.667 1275 802.5 1248.5 873.5 1195.5 c 128
 944.5 1142.5 995.667 1076.67 1027 998 c 128
 1058.33 919.333 1074 836 1074 748 c 2
 1074 744 l 1
804.5 1519 m 128
 821.5 1504.33 830 1486 830 1464 c 128
 830 1442 821.5 1423.33 804.5 1408 c 128
 787.5 1392.67 767.667 1385 745 1385 c 128
 722.333 1385 702.833 1392.67 686.5 1408 c 128
 670.167 1423.34 662 1442.18 662 1464.5 c 128
 662 1486.84 670.167 1505.18 686.5 1519.5 c 128
 702.833 1533.83 722.333 1541 745 1541 c 128
 767.667 1541 787.5 1533.67 804.5 1519 c 128
541 1519 m 128
 557.667 1504.33 566 1485.83 566 1463.5 c 128
 566 1441.17 557.667 1422.5 541 1407.5 c 128
 524.333 1392.5 504.667 1385 482 1385 c 128
 459.333 1385 440 1392.67 424 1408 c 128
 408 1423.34 400 1442.18 400 1464.5 c 128
 400 1486.84 408 1505.18 424 1519.5 c 128
 440 1533.83 459.333 1541 482 1541 c 128
 504.667 1541 524.333 1533.67 541 1519 c 128
EndSplineSet
EndChar

StartChar: uni00D7
Encoding: 215 215 153
Width: 557
VWidth: 1655
GlyphClass: 2
Flags: HMW
LayerCount: 2
Fore
SplineSet
298 380 m 1
 116 223 l 1
 61 305 l 1
 232 453 l 1
 99 607 l 1
 188 672 l 1
 320 520 l 1
 502 678 l 1
 555 595 l 1
 383 448 l 1
 519 291 l 1
 430 227 l 1
 298 380 l 1
EndSplineSet
EndChar

StartChar: uni00D8
Encoding: 216 216 154
Width: 1294
VWidth: 1655
GlyphClass: 2
Flags: HMW
LayerCount: 2
Fore
SplineSet
353 205 m 1
 407 147.667 469.333 119.333 540 120 c 0
 636.667 120 715.334 166.667 776 260 c 128
 836.667 353.333 867 474.5 867 623.5 c 128
 867 772.5 835 895.333 771 992 c 1
 353 205 l 1
216 651 m 0
 216 496.333 245.667 370 305 272 c 1
 718 1053 l 1
 660.666 1104.33 597.333 1130 528 1130 c 128
 458.667 1130 400.667 1108 354 1064 c 1
 261.333 975.333 215.333 837.667 216 651 c 0
824 1296 m 1
 966 1304 l 1
 899 1176 l 1
 955 1128 998.167 1065.67 1028.5 989 c 128
 1058.83 912.333 1074 832 1074 748 c 2
 1074 744 l 1
 1072 596.667 1037 457 969 325 c 1
 891.667 179.667 793.667 78.3333 675 21 c 0
 608.333 -11.6667 539.667 -28 469 -28 c 128
 398.333 -28 334.333 -14 277 14 c 1
 227 -73 l 1
 84 -81 l 1
 176 84 l 1
 155.333 103.333 132 115.667 106 121 c 0
 80.6667 126.333 64.6667 131.333 58 136 c 0
 42.6667 146.667 30.5 181.667 21.5 241 c 128
 12.5 300.333 8 393.5 8 520.5 c 128
 8 647.5 34 769.5 86 886.5 c 128
 138 1003.5 211.667 1097.5 307 1168.5 c 128
 402.333 1239.5 510.333 1275 631 1275 c 0
 689 1275 743.333 1264.33 794 1243 c 1
 824 1296 l 1
EndSplineSet
EndChar

StartChar: uni00D9
Encoding: 217 217 155
Width: 1426
VWidth: 1655
GlyphClass: 2
Flags: HMW
LayerCount: 2
Fore
SplineSet
230 1087 m 1
 8 1123 l 1
 30 1199 l 1
 140 1219 235.833 1231.67 317.5 1237 c 128
 399.167 1242.33 470 1245 530 1245 c 128
 590 1245 628.667 1244.33 646 1243 c 1
 628 1166 l 1
 429 1138 l 1
 381 745 l 2
 381 743 380.333 735 379 721 c 128
 377.667 707 374.833 682.333 370.5 647 c 128
 366.167 611.667 363.333 584.5 362 565.5 c 128
 360.667 546.5 360 520.667 360 488 c 128
 360 455.332 361.333 427.666 364 405 c 0
 366.667 382.333 371.333 357.333 378 330 c 0
 392.667 274 424 226.667 472 188 c 1
 522 144.667 581.333 123 650 123 c 0
 780 123 873.667 178.667 931 290 c 1
 957.667 343.333 978.667 424.667 994 534 c 2
 1068 1111 l 1
 843 1120 l 1
 861 1197 l 1
 1001.67 1227.67 1148.33 1243 1301 1243 c 0
 1311.67 1243 1351.67 1241.67 1421 1239 c 1
 1401 1163 l 1
 1194 1096 l 1
 1109 517 l 2
 1080.33 325 1028.66 190.667 954 114 c 0
 918.666 76.6666 869.833 42.6666 807.5 12 c 128
 745.167 -18.6667 671.667 -34 587 -34 c 2
 579 -34 l 1
 451 -28 351.333 11 280 83 c 0
 199.333 163.667 158.667 277.667 158 425 c 0
 158 459.667 166.667 552 184 702 c 2
 230 1087 l 1
551 1655 m 1
 665 1693 l 1
 794 1365 l 1
 738 1332 l 1
 551 1655 l 1
EndSplineSet
EndChar

StartChar: uni00DA
Encoding: 218 218 156
Width: 1426
VWidth: 1655
GlyphClass: 2
Flags: HMW
LayerCount: 2
Fore
SplineSet
230 1087 m 1
 8 1123 l 1
 30 1199 l 1
 140 1219 235.833 1231.67 317.5 1237 c 128
 399.167 1242.33 470 1245 530 1245 c 128
 590 1245 628.667 1244.33 646 1243 c 1
 628 1166 l 1
 429 1138 l 1
 381 745 l 2
 381 743 380.333 735 379 721 c 128
 377.667 707 374.833 682.333 370.5 647 c 128
 366.167 611.667 363.333 584.5 362 565.5 c 128
 360.667 546.5 360 520.667 360 488 c 128
 360 455.332 361.333 427.666 364 405 c 0
 366.667 382.333 371.333 357.333 378 330 c 0
 392.667 274 424 226.667 472 188 c 1
 522 144.667 581.333 123 650 123 c 0
 780 123 873.667 178.667 931 290 c 1
 957.667 343.333 978.667 424.667 994 534 c 2
 1068 1111 l 1
 843 1120 l 1
 861 1197 l 1
 1001.67 1227.67 1148.33 1243 1301 1243 c 0
 1311.67 1243 1351.67 1241.67 1421 1239 c 1
 1401 1163 l 1
 1194 1096 l 1
 1109 517 l 2
 1080.33 325 1028.66 190.667 954 114 c 0
 918.666 76.6666 869.833 42.6666 807.5 12 c 128
 745.167 -18.6667 671.667 -34 587 -34 c 2
 579 -34 l 1
 451 -28 351.333 11 280 83 c 0
 199.333 163.667 158.667 277.667 158 425 c 0
 158 459.667 166.667 552 184 702 c 2
 230 1087 l 1
973 1661 m 1
 792 1351 l 1
 743 1382 l 1
 862 1701 l 1
 973 1661 l 1
EndSplineSet
EndChar

StartChar: uni00DB
Encoding: 219 219 157
Width: 1426
VWidth: 1655
GlyphClass: 2
Flags: HMW
LayerCount: 2
Fore
SplineSet
230 1087 m 1
 8 1123 l 1
 30 1199 l 1
 140 1219 235.833 1231.67 317.5 1237 c 128
 399.167 1242.33 470 1245 530 1245 c 128
 590 1245 628.667 1244.33 646 1243 c 1
 628 1166 l 1
 429 1138 l 1
 381 745 l 2
 381 743 380.333 735 379 721 c 128
 377.667 707 374.833 682.333 370.5 647 c 128
 366.167 611.667 363.333 584.5 362 565.5 c 128
 360.667 546.5 360 520.667 360 488 c 128
 360 455.332 361.333 427.666 364 405 c 0
 366.667 382.333 371.333 357.333 378 330 c 0
 392.667 274 424 226.667 472 188 c 1
 522 144.667 581.333 123 650 123 c 0
 780 123 873.667 178.667 931 290 c 1
 957.667 343.333 978.667 424.667 994 534 c 2
 1068 1111 l 1
 843 1120 l 1
 861 1197 l 1
 1001.67 1227.67 1148.33 1243 1301 1243 c 0
 1311.67 1243 1351.67 1241.67 1421 1239 c 1
 1401 1163 l 1
 1194 1096 l 1
 1109 517 l 2
 1080.33 325 1028.66 190.667 954 114 c 0
 918.666 76.6666 869.833 42.6666 807.5 12 c 128
 745.167 -18.6667 671.667 -34 587 -34 c 2
 579 -34 l 1
 451 -28 351.333 11 280 83 c 0
 199.333 163.667 158.667 277.667 158 425 c 0
 158 459.667 166.667 552 184 702 c 2
 230 1087 l 1
773 1577 m 1
 948 1396 l 1
 900 1361 l 1
 739 1468 l 1
 729 1468 l 1
 592 1359 l 1
 555 1388 l 1
 720 1564 l 1
 773 1577 l 1
EndSplineSet
EndChar

StartChar: uni00DC
Encoding: 220 220 158
Width: 1426
VWidth: 1655
GlyphClass: 2
Flags: HMW
LayerCount: 2
Fore
SplineSet
230 1087 m 1
 8 1123 l 1
 30 1199 l 1
 140 1219 235.833 1231.67 317.5 1237 c 128
 399.167 1242.33 470 1245 530 1245 c 128
 590 1245 628.667 1244.33 646 1243 c 1
 628 1166 l 1
 429 1138 l 1
 381 745 l 2
 381 743 380.333 735 379 721 c 128
 377.667 707 374.833 682.333 370.5 647 c 128
 366.167 611.667 363.333 584.5 362 565.5 c 128
 360.667 546.5 360 520.667 360 488 c 128
 360 455.332 361.333 427.666 364 405 c 0
 366.667 382.333 371.333 357.333 378 330 c 0
 392.667 274 424 226.667 472 188 c 1
 522 144.667 581.333 123 650 123 c 0
 780 123 873.667 178.667 931 290 c 1
 957.667 343.333 978.667 424.667 994 534 c 2
 1068 1111 l 1
 843 1120 l 1
 861 1197 l 1
 1001.67 1227.67 1148.33 1243 1301 1243 c 0
 1311.67 1243 1351.67 1241.67 1421 1239 c 1
 1401 1163 l 1
 1194 1096 l 1
 1109 517 l 2
 1080.33 325 1028.66 190.667 954 114 c 0
 918.666 76.6666 869.833 42.6666 807.5 12 c 128
 745.167 -18.6667 671.667 -34 587 -34 c 2
 579 -34 l 1
 451 -28 351.333 11 280 83 c 0
 199.333 163.667 158.667 277.667 158 425 c 0
 158 459.667 166.667 552 184 702 c 2
 230 1087 l 1
942 1519 m 128
 958.667 1504.33 967 1486 967 1464 c 128
 967 1442 958.667 1423.33 942 1408 c 128
 925.333 1392.67 905.5 1385 882.5 1385 c 128
 859.5 1385 839.833 1392.67 823.5 1408 c 128
 807.167 1423.34 799 1442.18 799 1464.5 c 128
 799 1486.84 807.167 1505.18 823.5 1519.5 c 128
 839.833 1533.83 859.5 1541 882.5 1541 c 128
 905.5 1541 925.333 1533.67 942 1519 c 128
679 1519 m 128
 695.667 1504.33 704 1485.83 704 1463.5 c 128
 704 1441.17 695.667 1422.5 679 1407.5 c 128
 662.333 1392.5 642.5 1385 619.5 1385 c 128
 596.5 1385 577 1392.67 561 1408 c 128
 545 1423.34 537 1442.18 537 1464.5 c 128
 537 1486.84 545 1505.18 561 1519.5 c 128
 577 1533.83 596.5 1541 619.5 1541 c 128
 642.5 1541 662.333 1533.67 679 1519 c 128
EndSplineSet
EndChar

StartChar: uni00DD
Encoding: 221 221 159
Width: 1079
VWidth: 1655
GlyphClass: 2
Flags: HMW
LayerCount: 2
Fore
SplineSet
608 680 m 1
 578.667 583.333 557 476.333 543 359 c 2
 514 106 l 1
 727 81 l 1
 706 0 l 1
 80 0 l 1
 99 83 l 1
 320 129 l 1
 359 423 l 2
 365.667 470.333 369 519 369 569 c 0
 369 688.333 346.667 796.333 302 893 c 1
 241.333 1019.67 143.333 1092.33 8 1111 c 1
 17.3333 1160.34 39.1667 1197.17 73.5 1221.5 c 128
 107.833 1245.83 147 1259.33 191 1262 c 0
 193 1262 195 1262.67 197 1264 c 1
 202 1264 l 2
 309.333 1264 390.667 1204.67 446 1086 c 0
 492.667 984.667 515.333 856.667 514 702 c 2
 514 664 l 1
 530 664 l 1
 553.333 763.333 584.167 855.333 622.5 940 c 128
 660.833 1024.67 696.333 1088.83 729 1132.5 c 128
 761.668 1176.17 796.335 1206.67 833 1224 c 128
 869.668 1241.33 902.335 1250 931 1250 c 2
 941 1250 l 1
 944.333 1248.67 947.667 1248.33 951 1249 c 0
 988.333 1245.67 1018 1230.83 1040 1204.5 c 128
 1062 1178.17 1073 1150 1073 1120 c 0
 1073 1107.33 1071.67 1096.33 1069 1087 c 1
 1030.33 1085.67 985.831 1077.67 935.5 1063 c 128
 885.167 1048.33 839.667 1025.66 799 995 c 1
 751.667 957 714.667 915 688 869 c 128
 661.333 823 634.667 760 608 680 c 1
808 1661 m 1
 628 1351 l 1
 578 1382 l 1
 698 1701 l 1
 808 1661 l 1
EndSplineSet
EndChar

StartChar: uni00DE
Encoding: 222 222 160
Width: 1123
VWidth: 1655
GlyphClass: 2
Flags: HMW
LayerCount: 2
Fore
SplineSet
637 0 m 1
 7 0 l 1
 24 78 l 1
 246 130 l 1
 372 1099 l 1
 146 1131 l 1
 163 1205 l 1
 347.667 1239 502.667 1255.67 628 1255 c 0
 672.667 1255 726.667 1253 790 1249 c 1
 771 1171 l 1
 567 1150 l 1
 555 1039 l 1
 618.333 1044.33 666.333 1047 699 1047 c 0
 839.667 1047 947.167 1016.83 1021.5 956.5 c 128
 1095.83 896.166 1133 809.333 1133 696 c 0
 1133 580.667 1080.67 479.667 976 393 c 1
 868 303.667 715 250 517 232 c 1
 510 315 l 1
 668.667 333 784.667 379 858 453 c 0
 912 507.667 938.833 578.167 938.5 664.5 c 128
 938.165 750.833 907.832 824.5 847.5 885.5 c 128
 787.167 946.5 706 977 604 977 c 0
 584.666 977 565.333 975 546 971 c 1
 444 108 l 1
 662 80 l 1
 637 0 l 1
EndSplineSet
EndChar

StartChar: uni00DF
Encoding: 223 223 161
Width: 994
VWidth: 1655
GlyphClass: 2
Flags: HMW
LayerCount: 2
Fore
SplineSet
520 233 m 1
 556.667 124.333 611 65.6667 683 57 c 1
 691 57 l 1
 692.333 55.6667 697.5 55.1667 706.5 55.5 c 128
 715.5 55.8333 731.167 60.8333 753.5 70.5 c 128
 775.833 80.1667 792.667 92 804 106 c 1
 814.667 122.667 820 140 820 158 c 2
 820 165 l 1
 818.654 166.333 817.321 173 816 185 c 0
 812 213.667 788 250.333 744 295 c 0
 731.333 307.667 708.333 327.667 675 355 c 1
 604.333 411.667 560.333 455 543 485 c 128
 525.667 515 517 544.833 517 574.5 c 128
 517 604.167 521 629.167 529 649.5 c 128
 537 669.833 550.333 693.667 569 721 c 1
 595 756.333 642.667 804 712 864 c 1
 770 917.333 803.333 953 812 971 c 128
 820.667 989 826.667 1004.83 830 1018.5 c 128
 833.333 1032.17 835 1045.33 835 1058 c 0
 835 1113.33 812.667 1153.33 768 1178 c 0
 738 1195.35 704.333 1203.68 667 1203 c 0
 662.333 1203 647.833 1202 623.5 1200 c 128
 599.167 1198 574.167 1193 548.5 1185 c 128
 522.833 1177 497 1163.67 471 1145 c 128
 445 1126.32 425 1102.66 411 1074 c 0
 386.333 1023.33 370.666 949 364 851 c 1
 359 806 l 1
 337.667 468 323.167 251 315.5 155 c 128
 307.833 59 295.5 -20.6667 278.5 -84 c 128
 261.5 -147.333 235.333 -200 200 -242 c 0
 152.667 -300.667 93.6666 -341.667 23 -365 c 1
 -14.3333 -374.333 -48.6667 -379.167 -80 -379.5 c 128
 -111.333 -379.833 -139.667 -373 -165 -359 c 0
 -207 -334.333 -228 -297.333 -228 -248 c 0
 -228 -201.333 -209.667 -162.667 -173 -132 c 1
 -109 -196 -43.3333 -228 24 -228 c 0
 46 -228 64.6667 -224.5 80 -217.5 c 128
 95.3333 -210.5 105.833 -199.5 111.5 -184.5 c 128
 117.167 -169.5 122 -148 126 -120 c 128
 130 -92 134.5 -49.3333 139.5 8 c 128
 144.5 65.3333 147.667 108 149 136 c 128
 150.333 164 151.667 186.833 153 204.5 c 128
 154.333 222.167 156.167 243.834 158.5 269.5 c 128
 160.833 295.167 162 309.667 162 313 c 2
 195 775 l 1
 84 766 l 1
 99 871 l 1
 204 855 l 1
 209.333 881.667 215 907 221 931 c 0
 241.667 1007 273 1069.67 315 1119 c 128
 357 1168.33 411.833 1206.33 479.5 1233 c 128
 547.167 1259.67 616.667 1274.67 688 1278 c 1
 696 1279.33 721.833 1280 765.5 1280 c 128
 809.167 1280 852.334 1271.33 895 1254 c 1
 925 1244.67 950.833 1228.17 972.5 1204.5 c 128
 994.167 1180.83 1006.67 1156 1010 1130 c 0
 1010 1126.67 1010.33 1123.33 1011 1120 c 1
 1011 1109 l 2
 1011 1052.33 970 988.667 888 918 c 2
 778 822 l 2
 776 820 771 815.833 763 809.5 c 128
 755 803.167 741 791.667 721 775 c 128
 701 758.333 682.667 741 666 723 c 128
 649.333 705 641 682.5 641 655.5 c 128
 641 628.5 650.667 601 670 573 c 1
 698.667 538.333 724 512 746 494 c 128
 768 476 791.833 456.333 817.5 435 c 128
 843.17 413.667 861.337 398.333 872 389 c 0
 902.668 362.333 925.335 334.666 940 306 c 128
 954.667 277.333 962.667 252 964 230 c 1
 964 218 l 2
 964 178.667 948.667 138.667 918 98 c 1
 886 58.6667 842.833 26.6667 788.5 2 c 128
 734.167 -22.6667 682.667 -35 634 -35 c 0
 539.333 -35.6667 472.667 -12.6667 434 34 c 0
 415.333 56 406 83.3333 406 116 c 128
 406 148.667 423.333 179 458 207 c 1
 476.667 221 497.333 229.667 520 233 c 1
EndSplineSet
EndChar

StartChar: uni00E0
Encoding: 224 224 162
Width: 840
VWidth: 1655
GlyphClass: 2
Flags: HMW
LayerCount: 2
Fore
SplineSet
587 918 m 1
 706 881 l 1
 634 491 l 1
 604 253 l 1
 599.333 214.333 597 186 597 168 c 0
 597 133.333 611.667 116 641 116 c 0
 659 116 683.167 132.667 713.5 166 c 128
 743.833 199.333 770.667 235.667 794 275 c 1
 835 240 l 1
 798.333 146.667 758 78.1667 714 34.5 c 128
 670 -9.16667 613 -31 543 -31 c 0
 509.667 -31 484.167 -18.8333 466.5 5.5 c 128
 448.833 29.8333 440 65.6667 440 113 c 0
 440 161 452 219 476 287 c 1
 463 287 l 1
 427.667 203 381.667 130.667 325 70 c 128
 268.333 9.33333 212.333 -21 157 -21 c 128
 101.667 -21 63 -0.5 41 40.5 c 128
 19 81.5 8 143.167 8 225.5 c 128
 8 307.833 27.1667 401.167 65.5 505.5 c 128
 103.833 609.833 154.833 700.833 218.5 778.5 c 128
 282.167 856.167 345.667 895 409 895 c 128
 472.334 895 520.334 870 553 820 c 1
 562 820 l 1
 576 909 l 1
 587 918 l 1
214 595 m 0
 180 490.333 163 397.5 163 316.5 c 128
 163 235.5 167 184.833 175 164.5 c 128
 183 144.167 200.333 134 227 134 c 0
 275 134 330.333 184.667 393 286 c 1
 455.667 387.333 500.333 512 527 660 c 1
 517.666 688 498.166 713.333 468.5 736 c 128
 438.833 758.667 408 770 376 770 c 128
 344 770 313.167 754.167 283.5 722.5 c 128
 253.833 690.833 230.667 648.333 214 595 c 0
286 1303 m 1
 398 1339 l 1
 527 1013 l 1
 471 978 l 1
 286 1303 l 1
EndSplineSet
EndChar

StartChar: uni00E1
Encoding: 225 225 163
Width: 840
VWidth: 1655
GlyphClass: 2
Flags: HMW
LayerCount: 2
Fore
SplineSet
587 918 m 1
 706 881 l 1
 634 491 l 1
 604 253 l 1
 599.333 214.333 597 186 597 168 c 0
 597 133.333 611.667 116 641 116 c 0
 659 116 683.167 132.667 713.5 166 c 128
 743.833 199.333 770.667 235.667 794 275 c 1
 835 240 l 1
 798.333 146.667 758 78.1667 714 34.5 c 128
 670 -9.16667 613 -31 543 -31 c 0
 509.667 -31 484.167 -18.8333 466.5 5.5 c 128
 448.833 29.8333 440 65.6667 440 113 c 0
 440 161 452 219 476 287 c 1
 463 287 l 1
 427.667 203 381.667 130.667 325 70 c 128
 268.333 9.33333 212.333 -21 157 -21 c 128
 101.667 -21 63 -0.5 41 40.5 c 128
 19 81.5 8 143.167 8 225.5 c 128
 8 307.833 27.1667 401.167 65.5 505.5 c 128
 103.833 609.833 154.833 700.833 218.5 778.5 c 128
 282.167 856.167 345.667 895 409 895 c 128
 472.334 895 520.334 870 553 820 c 1
 562 820 l 1
 576 909 l 1
 587 918 l 1
214 595 m 0
 180 490.333 163 397.5 163 316.5 c 128
 163 235.5 167 184.833 175 164.5 c 128
 183 144.167 200.333 134 227 134 c 0
 275 134 330.333 184.667 393 286 c 1
 455.667 387.333 500.333 512 527 660 c 1
 517.666 688 498.166 713.333 468.5 736 c 128
 438.833 758.667 408 770 376 770 c 128
 344 770 313.167 754.167 283.5 722.5 c 128
 253.833 690.833 230.667 648.333 214 595 c 0
706 1309 m 1
 525 998 l 1
 476 1029 l 1
 595 1347 l 1
 706 1309 l 1
EndSplineSet
EndChar

StartChar: uni00E2
Encoding: 226 226 164
Width: 840
VWidth: 1655
GlyphClass: 2
Flags: HMW
LayerCount: 2
Fore
SplineSet
587 918 m 1
 706 881 l 1
 634 491 l 1
 604 253 l 1
 599.333 214.333 597 186 597 168 c 0
 597 133.333 611.667 116 641 116 c 0
 659 116 683.167 132.667 713.5 166 c 128
 743.833 199.333 770.667 235.667 794 275 c 1
 835 240 l 1
 798.333 146.667 758 78.1667 714 34.5 c 128
 670 -9.16667 613 -31 543 -31 c 0
 509.667 -31 484.167 -18.8333 466.5 5.5 c 128
 448.833 29.8333 440 65.6667 440 113 c 0
 440 161 452 219 476 287 c 1
 463 287 l 1
 427.667 203 381.667 130.667 325 70 c 128
 268.333 9.33333 212.333 -21 157 -21 c 128
 101.667 -21 63 -0.5 41 40.5 c 128
 19 81.5 8 143.167 8 225.5 c 128
 8 307.833 27.1667 401.167 65.5 505.5 c 128
 103.833 609.833 154.833 700.833 218.5 778.5 c 128
 282.167 856.167 345.667 895 409 895 c 128
 472.334 895 520.334 870 553 820 c 1
 562 820 l 1
 576 909 l 1
 587 918 l 1
214 595 m 0
 180 490.333 163 397.5 163 316.5 c 128
 163 235.5 167 184.833 175 164.5 c 128
 183 144.167 200.333 134 227 134 c 0
 275 134 330.333 184.667 393 286 c 1
 455.667 387.333 500.333 512 527 660 c 1
 517.666 688 498.166 713.333 468.5 736 c 128
 438.833 758.667 408 770 376 770 c 128
 344 770 313.167 754.167 283.5 722.5 c 128
 253.833 690.833 230.667 648.333 214 595 c 0
507 1224 m 1
 681 1043 l 1
 632 1008 l 1
 472 1115 l 1
 463 1115 l 1
 325 1006 l 1
 288 1036 l 1
 453 1212 l 1
 507 1224 l 1
EndSplineSet
EndChar

StartChar: uni00E3
Encoding: 227 227 165
Width: 840
VWidth: 1655
GlyphClass: 2
Flags: HMW
LayerCount: 2
Fore
SplineSet
587 918 m 1
 706 881 l 1
 634 491 l 1
 604 253 l 1
 599.333 214.333 597 186 597 168 c 0
 597 133.333 611.667 116 641 116 c 0
 659 116 683.167 132.667 713.5 166 c 128
 743.833 199.333 770.667 235.667 794 275 c 1
 835 240 l 1
 798.333 146.667 758 78.1667 714 34.5 c 128
 670 -9.16667 613 -31 543 -31 c 0
 509.667 -31 484.167 -18.8333 466.5 5.5 c 128
 448.833 29.8333 440 65.6667 440 113 c 0
 440 161 452 219 476 287 c 1
 463 287 l 1
 427.667 203 381.667 130.667 325 70 c 128
 268.333 9.33333 212.333 -21 157 -21 c 128
 101.667 -21 63 -0.5 41 40.5 c 128
 19 81.5 8 143.167 8 225.5 c 128
 8 307.833 27.1667 401.167 65.5 505.5 c 128
 103.833 609.833 154.833 700.833 218.5 778.5 c 128
 282.167 856.167 345.667 895 409 895 c 128
 472.334 895 520.334 870 553 820 c 1
 562 820 l 1
 576 909 l 1
 587 918 l 1
214 595 m 0
 180 490.333 163 397.5 163 316.5 c 128
 163 235.5 167 184.833 175 164.5 c 128
 183 144.167 200.333 134 227 134 c 0
 275 134 330.333 184.667 393 286 c 1
 455.667 387.333 500.333 512 527 660 c 1
 517.666 688 498.166 713.333 468.5 736 c 128
 438.833 758.667 408 770 376 770 c 128
 344 770 313.167 754.167 283.5 722.5 c 128
 253.833 690.833 230.667 648.333 214 595 c 0
353 1066 m 2
 336.333 1066 317 1050.33 295 1019 c 1
 258 1027 l 1
 260 1033.67 262.833 1044 266.5 1058 c 128
 270.167 1072 278.333 1089.33 291 1110 c 0
 315.667 1149.34 344.333 1168.68 377 1168 c 2
 383 1168 l 1
 385 1166.67 387.333 1166 390 1166 c 2
 608 1137 l 1
 611 1137 l 2
 625 1137 643.667 1150.67 667 1178 c 1
 714 1176 l 1
 682.667 1082 639.667 1035.33 585 1036 c 2
 574 1036 l 1
 355 1066 l 1
 353 1066 l 2
EndSplineSet
EndChar

StartChar: uni00E4
Encoding: 228 228 166
Width: 840
VWidth: 1655
GlyphClass: 2
Flags: HMW
LayerCount: 2
Fore
SplineSet
587 918 m 1
 706 881 l 1
 634 491 l 1
 604 253 l 1
 599.333 214.333 597 186 597 168 c 0
 597 133.333 611.667 116 641 116 c 0
 659 116 683.167 132.667 713.5 166 c 128
 743.833 199.333 770.667 235.667 794 275 c 1
 835 240 l 1
 798.333 146.667 758 78.1667 714 34.5 c 128
 670 -9.16667 613 -31 543 -31 c 0
 509.667 -31 484.167 -18.8333 466.5 5.5 c 128
 448.833 29.8333 440 65.6667 440 113 c 0
 440 161 452 219 476 287 c 1
 463 287 l 1
 427.667 203 381.667 130.667 325 70 c 128
 268.333 9.33333 212.333 -21 157 -21 c 128
 101.667 -21 63 -0.5 41 40.5 c 128
 19 81.5 8 143.167 8 225.5 c 128
 8 307.833 27.1667 401.167 65.5 505.5 c 128
 103.833 609.833 154.833 700.833 218.5 778.5 c 128
 282.167 856.167 345.667 895 409 895 c 128
 472.334 895 520.334 870 553 820 c 1
 562 820 l 1
 576 909 l 1
 587 918 l 1
214 595 m 0
 180 490.333 163 397.5 163 316.5 c 128
 163 235.5 167 184.833 175 164.5 c 128
 183 144.167 200.333 134 227 134 c 0
 275 134 330.333 184.667 393 286 c 1
 455.667 387.333 500.333 512 527 660 c 1
 517.666 688 498.166 713.333 468.5 736 c 128
 438.833 758.667 408 770 376 770 c 128
 344 770 313.167 754.167 283.5 722.5 c 128
 253.833 690.833 230.667 648.333 214 595 c 0
675.5 1165 m 128
 692.5 1150.32 701 1132.16 701 1110.5 c 128
 701 1088.83 692.5 1070.33 675.5 1055 c 128
 658.5 1039.67 638.5 1032 615.5 1032 c 128
 592.5 1032 572.833 1039.67 556.5 1055 c 128
 540.167 1070.33 532 1089 532 1111 c 128
 532 1133 540.167 1151.17 556.5 1165.5 c 128
 572.833 1179.83 592.5 1187 615.5 1187 c 128
 638.5 1187 658.5 1179.67 675.5 1165 c 128
412 1165 m 128
 428.667 1150.33 437 1132 437 1110 c 128
 437 1088 428.667 1069.5 412 1054.5 c 128
 395.333 1039.5 375.5 1032 352.5 1032 c 128
 329.5 1032 310 1039.67 294 1055 c 128
 278 1070.33 270 1089 270 1111 c 128
 270 1133 278 1151.17 294 1165.5 c 128
 310 1179.83 329.5 1187 352.5 1187 c 128
 375.5 1187 395.333 1179.67 412 1165 c 128
EndSplineSet
EndChar

StartChar: uni00E5
Encoding: 229 229 167
Width: 840
VWidth: 1655
GlyphClass: 2
Flags: HMW
LayerCount: 2
Fore
SplineSet
587 918 m 1
 706 881 l 1
 634 491 l 1
 604 253 l 1
 599.333 214.333 597 186 597 168 c 0
 597 133.333 611.667 116 641 116 c 0
 659 116 683.167 132.667 713.5 166 c 128
 743.833 199.333 770.667 235.667 794 275 c 1
 835 240 l 1
 798.333 146.667 758 78.1667 714 34.5 c 128
 670 -9.16667 613 -31 543 -31 c 0
 509.667 -31 484.167 -18.8333 466.5 5.5 c 128
 448.833 29.8333 440 65.6667 440 113 c 0
 440 161 452 219 476 287 c 1
 463 287 l 1
 427.667 203 381.667 130.667 325 70 c 128
 268.333 9.33333 212.333 -21 157 -21 c 128
 101.667 -21 63 -0.5 41 40.5 c 128
 19 81.5 8 143.167 8 225.5 c 128
 8 307.833 27.1667 401.167 65.5 505.5 c 128
 103.833 609.833 154.833 700.833 218.5 778.5 c 128
 282.167 856.167 345.667 895 409 895 c 128
 472.334 895 520.334 870 553 820 c 1
 562 820 l 1
 576 909 l 1
 587 918 l 1
214 595 m 0
 180 490.333 163 397.5 163 316.5 c 128
 163 235.5 167 184.833 175 164.5 c 128
 183 144.167 200.333 134 227 134 c 0
 275 134 330.333 184.667 393 286 c 1
 455.667 387.333 500.333 512 527 660 c 1
 517.666 688 498.166 713.333 468.5 736 c 128
 438.833 758.667 408 770 376 770 c 128
 344 770 313.167 754.167 283.5 722.5 c 128
 253.833 690.833 230.667 648.333 214 595 c 0
419.5 1262.5 m 128
 404.5 1241.5 397 1214.5 397 1181.5 c 128
 397 1148.5 405.5 1119.67 422.5 1095 c 128
 439.5 1070.33 462.333 1058 491 1058 c 0
 547 1058 574.667 1095.33 574 1170 c 0
 574 1204.67 565.333 1234 548 1258 c 128
 530.667 1282 508.667 1294 482 1294 c 128
 455.333 1294 434.5 1283.5 419.5 1262.5 c 128
602.5 1296 m 128
 630.167 1266.67 644 1228.67 644 1182 c 128
 644 1135.33 628.333 1095.16 597 1061.5 c 128
 565.666 1027.83 526.833 1011 480.5 1011 c 128
 434.167 1011 397 1025.83 369 1055.5 c 128
 341 1085.17 327 1123.5 327 1170.5 c 128
 327 1217.5 343.167 1257.5 375.5 1290.5 c 128
 407.833 1323.5 446.833 1340 492.5 1340 c 128
 538.168 1340 574.834 1325.33 602.5 1296 c 128
EndSplineSet
EndChar

StartChar: uni00E6
Encoding: 230 230 168
Width: 1131
VWidth: 1655
GlyphClass: 2
Flags: HMW
LayerCount: 2
Fore
SplineSet
892 897 m 0
 944 897 984.667 881.333 1014 850 c 128
 1043.33 818.667 1058 774.667 1058 718 c 128
 1058 661.333 1035.17 603.167 989.5 543.5 c 128
 943.833 483.833 888 433.666 822 393 c 128
 756 352.333 692.667 323 632 305 c 1
 632.667 235 646 184 672 152 c 128
 698 120 734.333 104 781 104 c 0
 867.667 104 941 151.333 1001 246 c 1
 1037 214 l 1
 1015 148 974.5 90.6667 915.5 42 c 128
 856.5 -6.66667 791.5 -31 720.5 -31 c 128
 649.5 -31 592.333 -7.66667 549 39 c 128
 505.667 85.6667 481.333 151 476 235 c 1
 434 159 388.333 97.3333 339 50 c 128
 289.667 2.66667 240.333 -21 191 -21 c 0
 95 -21 47 58.6667 47 218 c 0
 47 304.667 66.1667 400.333 104.5 505 c 128
 142.833 609.667 194.167 700.834 258.5 778.5 c 128
 322.833 856.167 389.333 895 458 895 c 0
 493.333 895 525.5 879 554.5 847 c 128
 583.5 815 604 774.667 616 726 c 1
 699.333 840 791.333 897 892 897 c 0
264.5 628 m 128
 246.833 586.667 232 537.167 220 479.5 c 128
 208 421.833 202 360 202 294 c 128
 202 228 206 184.833 214 164.5 c 128
 222 144.167 239 134 265 134 c 0
 313 134 368.667 184.667 432 286 c 1
 494.667 387.333 539.333 512 566 660 c 1
 556.667 688 537.167 713.333 507.5 736 c 128
 477.833 758.667 448.5 770 419.5 770 c 128
 390.5 770 361.833 756.667 333.5 730 c 128
 305.167 703.333 282.167 669.333 264.5 628 c 128
832.5 512 m 128
 881.5 570.667 906 631.834 906 695.5 c 128
 906 759.167 879.667 791 827 791 c 0
 716.333 791 652 653 634 377 c 1
 717.333 408.333 783.5 453.333 832.5 512 c 128
EndSplineSet
EndChar

StartChar: uni00E7
Encoding: 231 231 169
Width: 602
VWidth: 1655
GlyphClass: 2
Flags: HMW
LayerCount: 2
Fore
SplineSet
290 -75 m 1
 348.667 -125.667 377.667 -174.333 377 -221 c 0
 377 -289.667 311.667 -343 181 -381 c 1
 162 -323 l 1
 218 -303 246 -276 246 -242 c 0
 246 -215.333 222 -179.333 174 -134 c 1
 248 -31 l 1
 186 -25.6667 142.833 -17.8333 118.5 -7.5 c 128
 94.1667 2.83333 76.3333 15.3333 65 30 c 128
 53.6667 44.6667 41.3333 69.6667 28 105 c 128
 14.6667 140.333 8 205.833 8 301.5 c 128
 8 397.167 20 479.667 44 549 c 128
 68 618.333 99.1667 677.833 137.5 727.5 c 128
 175.833 777.167 219.667 817.167 269 847.5 c 128
 318.333 877.833 369.167 893 421.5 893 c 128
 473.834 893 515.834 877.667 547.5 847 c 128
 579.167 816.333 595 778.167 595 732.5 c 128
 595 686.833 584 653.5 562 632.5 c 128
 540 611.5 504.667 598 456 592 c 1
 456 601.333 452.667 625 446 663 c 0
 433.333 731.667 413.333 774 386 790 c 0
 376.667 794.667 366 796.667 354 796 c 0
 294 796 248.333 759.5 217 686.5 c 128
 185.667 613.5 170 521.667 170 411 c 128
 170 300.333 183.833 220.5 211.5 171.5 c 128
 239.167 122.5 286.333 98 353 98 c 2
 355 98 l 2
 387 98 418.833 109.667 450.5 133 c 128
 482.167 156.333 508.667 187.667 530 227 c 1
 566 195 l 1
 553.333 146.333 523.833 100.833 477.5 58.5 c 128
 431.167 16.1667 379.667 -11.3333 323 -24 c 1
 290 -75 l 1
EndSplineSet
EndChar

StartChar: uni00E8
Encoding: 232 232 170
Width: 599
VWidth: 1655
GlyphClass: 2
Flags: HMW
LayerCount: 2
Fore
SplineSet
547.5 849.5 m 128
 577.167 817.833 592 776.667 592 726 c 0
 592 630 542.667 547 444 477 c 1
 360.667 418.333 268.333 373 167 341 c 1
 170.333 183 224.667 104 330 104 c 0
 368 104 404.833 117.167 440.5 143.5 c 128
 476.167 169.833 508 204 536 246 c 1
 573 214 l 1
 549.667 146.667 508.833 89 450.5 41 c 128
 392.167 -7 325.167 -31 249.5 -31 c 128
 173.833 -31 114.667 -2 72 56 c 128
 29.3333 114 8 192.833 8 292.5 c 128
 8 392.167 27.5 488.167 66.5 580.5 c 128
 105.5 672.833 157.333 748.667 222 808 c 128
 286.667 867.333 354.333 897 425 897 c 0
 477 897 517.834 881.167 547.5 849.5 c 128
440 698 m 0
 440 760 413.333 790.667 360 790 c 0
 248 790 184 664.667 168 414 c 1
 349.333 480.667 440 575.333 440 698 c 0
241 1315 m 1
 354 1351 l 1
 484 1024 l 1
 427 990 l 1
 241 1315 l 1
EndSplineSet
EndChar

StartChar: uni00E9
Encoding: 233 233 171
Width: 599
VWidth: 1655
GlyphClass: 2
Flags: HMW
LayerCount: 2
Fore
SplineSet
547.5 849.5 m 128
 577.167 817.833 592 776.667 592 726 c 0
 592 630 542.667 547 444 477 c 1
 360.667 418.333 268.333 373 167 341 c 1
 170.333 183 224.667 104 330 104 c 0
 368 104 404.833 117.167 440.5 143.5 c 128
 476.167 169.833 508 204 536 246 c 1
 573 214 l 1
 549.667 146.667 508.833 89 450.5 41 c 128
 392.167 -7 325.167 -31 249.5 -31 c 128
 173.833 -31 114.667 -2 72 56 c 128
 29.3333 114 8 192.833 8 292.5 c 128
 8 392.167 27.5 488.167 66.5 580.5 c 128
 105.5 672.833 157.333 748.667 222 808 c 128
 286.667 867.333 354.333 897 425 897 c 0
 477 897 517.834 881.167 547.5 849.5 c 128
440 698 m 0
 440 760 413.333 790.667 360 790 c 0
 248 790 184 664.667 168 414 c 1
 349.333 480.667 440 575.333 440 698 c 0
662 1320 m 1
 483 1010 l 1
 432 1041 l 1
 551 1359 l 1
 662 1320 l 1
EndSplineSet
EndChar

StartChar: uni00EA
Encoding: 234 234 172
Width: 599
VWidth: 1655
GlyphClass: 2
Flags: HMW
LayerCount: 2
Fore
SplineSet
547.5 849.5 m 128
 577.167 817.833 592 776.667 592 726 c 0
 592 630 542.667 547 444 477 c 1
 360.667 418.333 268.333 373 167 341 c 1
 170.333 183 224.667 104 330 104 c 0
 368 104 404.833 117.167 440.5 143.5 c 128
 476.167 169.833 508 204 536 246 c 1
 573 214 l 1
 549.667 146.667 508.833 89 450.5 41 c 128
 392.167 -7 325.167 -31 249.5 -31 c 128
 173.833 -31 114.667 -2 72 56 c 128
 29.3333 114 8 192.833 8 292.5 c 128
 8 392.167 27.5 488.167 66.5 580.5 c 128
 105.5 672.833 157.333 748.667 222 808 c 128
 286.667 867.333 354.333 897 425 897 c 0
 477 897 517.834 881.167 547.5 849.5 c 128
440 698 m 0
 440 760 413.333 790.667 360 790 c 0
 248 790 184 664.667 168 414 c 1
 349.333 480.667 440 575.333 440 698 c 0
463 1236 m 1
 637 1055 l 1
 589 1019 l 1
 429 1127 l 1
 419 1127 l 1
 282 1018 l 1
 244 1047 l 1
 409 1224 l 1
 463 1236 l 1
EndSplineSet
EndChar

StartChar: uni00EB
Encoding: 235 235 173
Width: 599
VWidth: 1655
GlyphClass: 2
Flags: HMW
LayerCount: 2
Fore
SplineSet
547.5 849.5 m 128
 577.167 817.833 592 776.667 592 726 c 0
 592 630 542.667 547 444 477 c 1
 360.667 418.333 268.333 373 167 341 c 1
 170.333 183 224.667 104 330 104 c 0
 368 104 404.833 117.167 440.5 143.5 c 128
 476.167 169.833 508 204 536 246 c 1
 573 214 l 1
 549.667 146.667 508.833 89 450.5 41 c 128
 392.167 -7 325.167 -31 249.5 -31 c 128
 173.833 -31 114.667 -2 72 56 c 128
 29.3333 114 8 192.833 8 292.5 c 128
 8 392.167 27.5 488.167 66.5 580.5 c 128
 105.5 672.833 157.333 748.667 222 808 c 128
 286.667 867.333 354.333 897 425 897 c 0
 477 897 517.834 881.167 547.5 849.5 c 128
440 698 m 0
 440 760 413.333 790.667 360 790 c 0
 248 790 184 664.667 168 414 c 1
 349.333 480.667 440 575.333 440 698 c 0
631.5 1177 m 128
 648.5 1162.33 657 1144 657 1122 c 128
 657 1100 648.5 1081.33 631.5 1066 c 128
 614.5 1050.67 594.5 1043 571.5 1043 c 128
 548.5 1043 529 1050.67 513 1066 c 128
 497 1081.34 489 1100.18 489 1122.5 c 128
 489 1144.84 497 1163.18 513 1177.5 c 128
 529 1191.83 548.5 1199 571.5 1199 c 128
 594.5 1199 614.5 1191.67 631.5 1177 c 128
368.5 1177 m 128
 384.833 1162.33 393 1143.83 393 1121.5 c 128
 393 1099.17 384.833 1080.5 368.5 1065.5 c 128
 352.167 1050.5 332.5 1043 309.5 1043 c 128
 286.5 1043 267 1050.67 251 1066 c 128
 235 1081.34 227 1100.18 227 1122.5 c 128
 227 1144.84 235 1163.18 251 1177.5 c 128
 267 1191.83 286.5 1199 309.5 1199 c 128
 332.5 1199 352.167 1191.67 368.5 1177 c 128
EndSplineSet
EndChar

StartChar: uni00EC
Encoding: 236 236 174
Width: 585
VWidth: 1655
GlyphClass: 2
Flags: HMW
LayerCount: 2
Fore
SplineSet
348 254 m 1
 344.667 224.666 343 200.333 343 181 c 0
 343 142.333 354.333 123 377 123 c 128
 399.667 123 427 134.333 459 157 c 128
 491 179.667 517 209.333 537 246 c 1
 579 217 l 1
 519 57 423 -23 291 -23 c 0
 249.667 -23 220.5 -10.3333 203.5 15 c 128
 186.5 40.3333 178 71.5 178 108.5 c 128
 178 145.5 182.333 208 191 296 c 1
 227 611 l 2
 229 634.333 230 656 230 676 c 0
 230 728 218.167 754 194.5 754 c 128
 170.833 754 124.667 702.333 56 599 c 1
 8 631 l 1
 37.3333 707 79.8333 771.833 135.5 825.5 c 128
 191.167 879.167 246.667 906 302 906 c 0
 364 906 394.333 859.333 393 766 c 0
 393 758 387.333 692.333 376 569 c 1
 348 254 l 1
93 1331 m 1
 205 1367 l 1
 334 1041 l 1
 279 1006 l 1
 93 1331 l 1
EndSplineSet
EndChar

StartChar: uni00ED
Encoding: 237 237 175
Width: 585
VWidth: 1655
GlyphClass: 2
Flags: HMW
LayerCount: 2
Fore
SplineSet
348 254 m 1
 344.667 224.666 343 200.333 343 181 c 0
 343 142.333 354.333 123 377 123 c 128
 399.667 123 427 134.333 459 157 c 128
 491 179.667 517 209.333 537 246 c 1
 579 217 l 1
 519 57 423 -23 291 -23 c 0
 249.667 -23 220.5 -10.3333 203.5 15 c 128
 186.5 40.3333 178 71.5 178 108.5 c 128
 178 145.5 182.333 208 191 296 c 1
 227 611 l 2
 229 634.333 230 656 230 676 c 0
 230 728 218.167 754 194.5 754 c 128
 170.833 754 124.667 702.333 56 599 c 1
 8 631 l 1
 37.3333 707 79.8333 771.833 135.5 825.5 c 128
 191.167 879.167 246.667 906 302 906 c 0
 364 906 394.333 859.333 393 766 c 0
 393 758 387.333 692.333 376 569 c 1
 348 254 l 1
514 1336 m 1
 332 1026 l 1
 284 1057 l 1
 402 1375 l 1
 514 1336 l 1
EndSplineSet
EndChar

StartChar: uni00EE
Encoding: 238 238 176
Width: 585
VWidth: 1655
GlyphClass: 2
Flags: HMW
LayerCount: 2
Fore
SplineSet
348 254 m 1
 344.667 224.666 343 200.333 343 181 c 0
 343 142.333 354.333 123 377 123 c 128
 399.667 123 427 134.333 459 157 c 128
 491 179.667 517 209.333 537 246 c 1
 579 217 l 1
 519 57 423 -23 291 -23 c 0
 249.667 -23 220.5 -10.3333 203.5 15 c 128
 186.5 40.3333 178 71.5 178 108.5 c 128
 178 145.5 182.333 208 191 296 c 1
 227 611 l 2
 229 634.333 230 656 230 676 c 0
 230 728 218.167 754 194.5 754 c 128
 170.833 754 124.667 702.333 56 599 c 1
 8 631 l 1
 37.3333 707 79.8333 771.833 135.5 825.5 c 128
 191.167 879.167 246.667 906 302 906 c 0
 364 906 394.333 859.333 393 766 c 0
 393 758 387.333 692.333 376 569 c 1
 348 254 l 1
313 1252 m 1
 489 1071 l 1
 440 1036 l 1
 280 1142 l 1
 270 1142 l 1
 132 1034 l 1
 96 1064 l 1
 261 1239 l 1
 313 1252 l 1
EndSplineSet
EndChar

StartChar: uni00EF
Encoding: 239 239 177
Width: 585
VWidth: 1655
GlyphClass: 2
Flags: HMW
LayerCount: 2
Fore
SplineSet
348 254 m 1
 344.667 224.666 343 200.333 343 181 c 0
 343 142.333 354.333 123 377 123 c 128
 399.667 123 427 134.333 459 157 c 128
 491 179.667 517 209.333 537 246 c 1
 579 217 l 1
 519 57 423 -23 291 -23 c 0
 249.667 -23 220.5 -10.3333 203.5 15 c 128
 186.5 40.3333 178 71.5 178 108.5 c 128
 178 145.5 182.333 208 191 296 c 1
 227 611 l 2
 229 634.333 230 656 230 676 c 0
 230 728 218.167 754 194.5 754 c 128
 170.833 754 124.667 702.333 56 599 c 1
 8 631 l 1
 37.3333 707 79.8333 771.833 135.5 825.5 c 128
 191.167 879.167 246.667 906 302 906 c 0
 364 906 394.333 859.333 393 766 c 0
 393 758 387.333 692.333 376 569 c 1
 348 254 l 1
483 1193 m 128
 500.333 1178.32 509 1160.16 509 1138.5 c 128
 509 1116.83 500.333 1098.33 483 1083 c 128
 465.667 1067.67 445.5 1060 422.5 1060 c 128
 399.5 1060 379.833 1067.67 363.5 1083 c 128
 347.167 1098.33 339 1117 339 1139 c 128
 339 1161 347.167 1179.17 363.5 1193.5 c 128
 379.833 1207.83 399.5 1215 422.5 1215 c 128
 445.5 1215 465.667 1207.67 483 1193 c 128
219.5 1193 m 128
 235.833 1178.33 244 1160 244 1138 c 128
 244 1116 235.833 1097.5 219.5 1082.5 c 128
 203.167 1067.5 183.333 1060 160 1060 c 128
 136.667 1060 117.167 1067.67 101.5 1083 c 128
 85.8333 1098.33 78 1117 78 1139 c 128
 78 1161 85.8333 1179.17 101.5 1193.5 c 128
 117.167 1207.83 136.667 1215 160 1215 c 128
 183.333 1215 203.167 1207.67 219.5 1193 c 128
EndSplineSet
EndChar

StartChar: uni00F0
Encoding: 240 240 178
Width: 934
VWidth: 1655
GlyphClass: 2
Flags: HMW
LayerCount: 2
Fore
SplineSet
759 1085 m 1
 839.667 951 880.334 792 881 608 c 0
 881 388.667 828 221 722 105 c 0
 642 17.6667 550 -26 446 -26 c 0
 377.333 -26 319.333 -9.33333 272 24 c 0
 179.333 88.6667 132.667 198.333 132 353 c 0
 132 381.667 133.667 411.333 137 442 c 1
 153.667 576.667 202.333 683.5 283 762.5 c 128
 363.667 841.5 458 881 566 881 c 0
 596.667 881 625.167 873.5 651.5 858.5 c 128
 677.833 843.5 694.333 821 701 791 c 1
 707 791 l 1
 695.664 853 668.331 938.667 625 1048 c 1
 418 1008 l 1
 437 1085 l 1
 597 1117 l 1
 574.333 1164.34 538.333 1217.67 489 1277 c 1
 597 1277 l 1
 647.667 1233.67 689 1189.67 721 1145 c 1
 862 1176 l 1
 843 1101 l 1
 759 1085 l 1
538 790 m 2
 472 790 420.5 765.667 383.5 717 c 128
 346.5 668.333 321.333 592.333 308 489 c 0
 303.324 457 301.657 419.667 303 377 c 0
 303 280.333 318.5 205 349.5 151 c 128
 380.5 97 426.333 70 487 70 c 0
 605 70 678 185.333 706 416 c 0
 709.333 445.333 711 474 711 502 c 0
 711 587.333 695.5 656 664.5 708 c 128
 633.5 760 593.667 787.333 545 790 c 1
 538 790 l 2
EndSplineSet
EndChar

StartChar: uni00F1
Encoding: 241 241 179
Width: 999
VWidth: 1655
GlyphClass: 2
Flags: HMW
LayerCount: 2
Fore
SplineSet
349 344 m 1
 345.667 207.333 331.167 111.167 305.5 55.5 c 128
 279.833 -0.166668 237.667 -28 179 -28 c 0
 177 -28 163 -26.6667 137 -24 c 1
 123 3 l 1
 205 388 l 1
 227 620 l 2
 229 648 230 673.333 230 696 c 0
 230 744.667 217.667 768.667 193 768 c 0
 180.333 768 159.5 751.5 130.5 718.5 c 128
 101.5 685.5 76.6667 650.333 56 613 c 1
 8 651 l 1
 35.3333 723.667 77 786.834 133 840.5 c 128
 189 894.167 247.333 921 308 921 c 0
 360 921 385.667 886.667 385 818 c 0
 385 788 380.667 753 372 713 c 0
 362.667 672.333 356.667 643.667 354 627 c 0
 346.667 591.667 343.333 573.667 344 573 c 1
 355 567 l 1
 385 658.333 429.667 736.167 489 800.5 c 128
 548.333 864.833 604.333 897 657 897 c 128
 709.667 897 749.167 883.5 775.5 856.5 c 128
 801.833 829.5 815 794.167 815 750.5 c 128
 815 706.833 812 661.667 806 615 c 1
 762 253 l 2
 757.333 218.333 755 194.333 755 181 c 0
 755 141 766.667 121 790 121 c 128
 813.333 121 841 132.667 873 156 c 128
 905 179.333 931 209.333 951 246 c 1
 994 216 l 1
 934 56 832.667 -24 690 -24 c 0
 624.667 -24 592 17.6667 592 101 c 0
 592 111.667 599 176.333 613 295 c 2
 636 488 l 2
 645.333 571.333 650.333 625 651 649 c 0
 651 697.667 632.333 721.667 595 721 c 0
 489.667 721 407.667 595.333 349 344 c 1
822 1203 m 1
 790.667 1109 748.333 1062.67 695 1064 c 2
 683 1064 l 1
 465 1094 l 1
 461 1094 l 2
 441.667 1094 425 1082 411 1058 c 1
 402 1047 l 1
 365 1055 l 1
 367 1061.67 370 1072 374 1086 c 128
 378 1100 386.667 1116.67 400 1136 c 0
 424.667 1175.33 453.333 1195.33 486 1196 c 2
 492 1196 l 1
 493.341 1194.67 495.674 1194 499 1194 c 2
 718 1164 l 1
 720 1164 l 2
 737.333 1164 755.667 1177.67 775 1205 c 1
 822 1203 l 1
EndSplineSet
EndChar

StartChar: uni00F2
Encoding: 242 242 180
Width: 673
VWidth: 1655
GlyphClass: 2
Flags: HMW
LayerCount: 2
Fore
SplineSet
79.5 79.5 m 128
 31.8333 149.833 8 236.833 8 340.5 c 128
 8 444.167 25.5 537.5 60.5 620.5 c 128
 95.5 703.5 143.333 770.333 204 821 c 128
 264.667 871.667 331.667 897 405 897 c 128
 478.333 897 540.667 863 592 795 c 128
 643.333 727 669 644 669 546 c 128
 669 448 653.667 357.167 623 273.5 c 128
 592.333 189.833 546.333 119 485 61 c 128
 423.667 3 352.667 -26 272 -26 c 128
 191.333 -26 127.167 9.16667 79.5 79.5 c 128
230 733 m 0
 176 672.333 149 581.333 149 460 c 0
 149 325.333 179.667 220.667 241 146 c 0
 271 108.667 304.5 90.1666 341.5 90.5 c 128
 378.5 90.8333 411.333 107 440 139 c 0
 496 204.333 524 299.333 524 424 c 0
 524 557.333 494.333 659.333 435 730 c 0
 405 765.333 371 783.167 333 783.5 c 128
 295 783.833 260.667 767 230 733 c 0
199 1298 m 1
 311 1336 l 1
 442 1008 l 1
 385 973 l 1
 199 1298 l 1
EndSplineSet
EndChar

StartChar: uni00F3
Encoding: 243 243 181
Width: 673
VWidth: 1655
GlyphClass: 2
Flags: HMW
LayerCount: 2
Fore
SplineSet
79.5 79.5 m 128
 31.8333 149.833 8 236.833 8 340.5 c 128
 8 444.167 25.5 537.5 60.5 620.5 c 128
 95.5 703.5 143.333 770.333 204 821 c 128
 264.667 871.667 331.667 897 405 897 c 128
 478.333 897 540.667 863 592 795 c 128
 643.333 727 669 644 669 546 c 128
 669 448 653.667 357.167 623 273.5 c 128
 592.333 189.833 546.333 119 485 61 c 128
 423.667 3 352.667 -26 272 -26 c 128
 191.333 -26 127.167 9.16667 79.5 79.5 c 128
230 733 m 0
 176 672.333 149 581.333 149 460 c 0
 149 325.333 179.667 220.667 241 146 c 0
 271 108.667 304.5 90.1666 341.5 90.5 c 128
 378.5 90.8333 411.333 107 440 139 c 0
 496 204.333 524 299.333 524 424 c 0
 524 557.333 494.333 659.333 435 730 c 0
 405 765.333 371 783.167 333 783.5 c 128
 295 783.833 260.667 767 230 733 c 0
620 1304 m 1
 440 994 l 1
 390 1024 l 1
 510 1342 l 1
 620 1304 l 1
EndSplineSet
EndChar

StartChar: uni00F4
Encoding: 244 244 182
Width: 673
VWidth: 1655
GlyphClass: 2
Flags: HMW
LayerCount: 2
Fore
SplineSet
79.5 79.5 m 128
 31.8333 149.833 8 236.833 8 340.5 c 128
 8 444.167 25.5 537.5 60.5 620.5 c 128
 95.5 703.5 143.333 770.333 204 821 c 128
 264.667 871.667 331.667 897 405 897 c 128
 478.333 897 540.667 863 592 795 c 128
 643.333 727 669 644 669 546 c 128
 669 448 653.667 357.167 623 273.5 c 128
 592.333 189.833 546.333 119 485 61 c 128
 423.667 3 352.667 -26 272 -26 c 128
 191.333 -26 127.167 9.16667 79.5 79.5 c 128
230 733 m 0
 176 672.333 149 581.333 149 460 c 0
 149 325.333 179.667 220.667 241 146 c 0
 271 108.667 304.5 90.1666 341.5 90.5 c 128
 378.5 90.8333 411.333 107 440 139 c 0
 496 204.333 524 299.333 524 424 c 0
 524 557.333 494.333 659.333 435 730 c 0
 405 765.333 371 783.167 333 783.5 c 128
 295 783.833 260.667 767 230 733 c 0
421 1220 m 1
 595 1039 l 1
 546 1003 l 1
 386 1111 l 1
 377 1111 l 1
 240 1001 l 1
 202 1031 l 1
 367 1207 l 1
 421 1220 l 1
EndSplineSet
EndChar

StartChar: uni00F5
Encoding: 245 245 183
Width: 673
VWidth: 1655
GlyphClass: 2
Flags: HMW
LayerCount: 2
Fore
SplineSet
79.5 79.5 m 128
 31.8333 149.833 8 236.833 8 340.5 c 128
 8 444.167 25.5 537.5 60.5 620.5 c 128
 95.5 703.5 143.333 770.333 204 821 c 128
 264.667 871.667 331.667 897 405 897 c 128
 478.333 897 540.667 863 592 795 c 128
 643.333 727 669 644 669 546 c 128
 669 448 653.667 357.167 623 273.5 c 128
 592.333 189.833 546.333 119 485 61 c 128
 423.667 3 352.667 -26 272 -26 c 128
 191.333 -26 127.167 9.16667 79.5 79.5 c 128
230 733 m 0
 176 672.333 149 581.333 149 460 c 0
 149 325.333 179.667 220.667 241 146 c 0
 271 108.667 304.5 90.1666 341.5 90.5 c 128
 378.5 90.8333 411.333 107 440 139 c 0
 496 204.333 524 299.333 524 424 c 0
 524 557.333 494.333 659.333 435 730 c 0
 405 765.333 371 783.167 333 783.5 c 128
 295 783.833 260.667 767 230 733 c 0
628 1171 m 1
 596.667 1077 554 1030.33 500 1031 c 2
 489 1031 l 1
 270 1062 l 1
 267 1062 l 2
 247.667 1062 231 1050 217 1026 c 1
 209 1015 l 1
 171 1022 l 1
 173 1028.67 176 1039 180 1053 c 128
 184 1067 192.333 1084.33 205 1105 c 0
 229.667 1144.34 258.333 1163.68 291 1163 c 2
 298 1163 l 1
 299.338 1161.67 301.671 1161 305 1161 c 2
 522 1132 l 1
 525 1132 l 2
 542.333 1132 561 1145.67 581 1173 c 1
 628 1171 l 1
EndSplineSet
EndChar

StartChar: uni00F6
Encoding: 246 246 184
Width: 673
VWidth: 1655
GlyphClass: 2
Flags: HMW
LayerCount: 2
Fore
SplineSet
79.5 79.5 m 128
 31.8333 149.833 8 236.833 8 340.5 c 128
 8 444.167 25.5 537.5 60.5 620.5 c 128
 95.5 703.5 143.333 770.333 204 821 c 128
 264.667 871.667 331.667 897 405 897 c 128
 478.333 897 540.667 863 592 795 c 128
 643.333 727 669 644 669 546 c 128
 669 448 653.667 357.167 623 273.5 c 128
 592.333 189.833 546.333 119 485 61 c 128
 423.667 3 352.667 -26 272 -26 c 128
 191.333 -26 127.167 9.16667 79.5 79.5 c 128
230 733 m 0
 176 672.333 149 581.333 149 460 c 0
 149 325.333 179.667 220.667 241 146 c 0
 271 108.667 304.5 90.1666 341.5 90.5 c 128
 378.5 90.8333 411.333 107 440 139 c 0
 496 204.333 524 299.333 524 424 c 0
 524 557.333 494.333 659.333 435 730 c 0
 405 765.333 371 783.167 333 783.5 c 128
 295 783.833 260.667 767 230 733 c 0
589 1160 m 128
 606.333 1145.33 615 1127.16 615 1105.5 c 128
 615 1083.83 606.333 1065.33 589 1050 c 128
 571.667 1034.67 551.667 1027 529 1027 c 128
 506.333 1027 486.833 1034.67 470.5 1050 c 128
 454.167 1065.33 446 1084 446 1106 c 128
 446 1128 454.167 1146.17 470.5 1160.5 c 128
 486.833 1174.83 506.333 1182 529 1182 c 128
 551.667 1182 571.667 1174.67 589 1160 c 128
326.5 1160 m 128
 342.833 1145.33 351 1127 351 1105 c 128
 351 1083 342.833 1064.5 326.5 1049.5 c 128
 310.167 1034.5 290.5 1027 267.5 1027 c 128
 244.5 1027 224.833 1034.67 208.5 1050 c 128
 192.167 1065.33 184 1084 184 1106 c 128
 184 1128 192.167 1146.17 208.5 1160.5 c 128
 224.833 1174.83 244.5 1182 267.5 1182 c 128
 290.5 1182 310.167 1174.67 326.5 1160 c 128
EndSplineSet
EndChar

StartChar: uni00F7
Encoding: 247 247 185
Width: 968
VWidth: 1655
GlyphClass: 2
Flags: HMW
LayerCount: 2
Fore
SplineSet
704 790 m 0
 704 782 703.333 776.333 702 773 c 1
 696.667 739.665 680.5 711.332 653.5 688 c 128
 626.5 664.667 597.5 653 566.5 653 c 128
 535.5 653 511.167 662.667 493.5 682 c 128
 475.833 701.333 467 720.833 467 740.5 c 128
 467 760.167 467.333 771.667 468 775 c 1
 472 806.333 487 832.5 513 853.5 c 128
 539 874.5 567.667 885 599 885 c 132
 630.333 885 655.667 875.833 675 857.5 c 128
 694.333 839.167 704 816.667 704 790 c 0
616 238 m 0
 616 230 615.667 224.333 615 221 c 1
 609.664 187.667 593.331 159.667 566 137 c 128
 538.667 114.333 509.833 103 479.5 103 c 128
 449.167 103 424.667 112.167 406 130.5 c 128
 387.333 148.833 378 168 378 188 c 128
 378 208 378.667 219.667 380 223 c 1
 384 254.333 399.333 280.333 426 301 c 128
 452.667 321.667 481.333 332 512 332 c 128
 542.667 332 567.667 323 587 305 c 128
 606.333 287 616 264.667 616 238 c 0
163 548 m 1
 959 548 l 1
 931 446 l 1
 136 446 l 1
 163 548 l 1
EndSplineSet
EndChar

StartChar: uni00F8
Encoding: 248 248 186
Width: 815
VWidth: 1655
GlyphClass: 2
Flags: HMW
LayerCount: 2
Fore
SplineSet
227 163 m 1
 261 114.333 297.833 90.1667 337.5 90.5 c 128
 377.167 90.8333 411.333 107 440 139 c 0
 496 204.333 524 299.333 524 424 c 0
 524 502.667 510.667 576 484 644 c 1
 227 163 l 1
230 733 m 0
 176 672.333 149 581.333 149 460 c 0
 149 376.667 162.333 301 189 233 c 1
 446 716 l 1
 415.333 761.333 379.333 784 338 784 c 128
 296.667 784 260.667 767 230 733 c 0
529 915 m 1
 658 923 l 1
 590 794 l 1
 642 727.333 668.167 644.833 668.5 546.5 c 128
 668.833 448.167 653.667 357.167 623 273.5 c 128
 592.333 189.833 546.333 119 485 61 c 128
 423.667 3 353.667 -26 275 -26 c 0
 235.667 -26 198.333 -16.6667 163 2 c 1
 121 -77 l 1
 -8 -84 l 1
 81 80 l 1
 32.3333 148.667 8 235.167 8 339.5 c 128
 8 443.833 25.5 537.5 60.5 620.5 c 128
 95.5 703.5 143.333 770.333 204 821 c 128
 264.667 871.667 330 897 400 897 c 0
 432 897 467 887.667 505 869 c 1
 529 915 l 1
EndSplineSet
EndChar

